<?xml version="1.0" encoding="utf-8"?>
<!-- Generator: Adobe Illustrator 19.0.1, SVG Export Plug-In . SVG Version: 6.00 Build 0)  -->
<svg version="1.1" id="маски" xmlns="http://www.w3.org/2000/svg" xmlns:xlink="http://www.w3.org/1999/xlink" x="0px" y="0px"
	 viewBox="0 0 2533 1073" style="enable-background:new 0 0 2533 1073;" xml:space="preserve">
<style type="text/css">
	.st0{fill:#4BB7D7;}
	.st1{clip-path:url(#SVGID_2_);}
	.st2{fill:#13A0CB;}
	.st3{fill:#16BEE3;}
	.st4{fill:#37DDFD;}
	.st5{fill:#16ABD7;}
	.st6{clip-path:url(#SVGID_4_);}
	.st7{fill:#0C84B0;}
	.st8{fill:#0E8DBC;}
	.st9{clip-path:url(#SVGID_6_);}
	.st10{clip-path:url(#SVGID_8_);}
	.st11{fill:#29D9F6;}
	.st12{fill:#21CBEF;}
	.st13{clip-path:url(#SVGID_10_);}
	.st14{clip-path:url(#SVGID_12_);}
	.st15{clip-path:url(#SVGID_14_);}
	.st16{clip-path:url(#SVGID_16_);}
	.st17{clip-path:url(#SVGID_18_);}
	.st18{clip-path:url(#SVGID_20_);}
	.st19{clip-path:url(#SVGID_22_);}
	.st20{clip-path:url(#SVGID_24_);}
</style>
<g id="ПОДЛОЖКА">
	<path class="st0" d="M460.5,413.1c39.4,0,59.6,30,59.6,59.8c0.5,30.4-19.5,61-59.6,61h-46.1V413.1H460.5z M460.2,505.3
		c19.2,0,28.3-16.1,28.3-32.1c0-15.9-9.7-31.8-28.3-31.8H446v63.9H460.2z"/>
	<path class="st0" d="M570.2,518.6l-6.9,15h-33v-4.3l55.4-117.7h14.5l54.9,117.7v4.3h-32.6l-7.1-15H570.2z M580.3,492.2h25
		L592.8,463L580.3,492.2z"/>
	<path class="st0" d="M777.3,529.2v4.5h-33.5l-20.7-37.8h-16.6v37.8H675V412.9c17.9,0,35.4-0.2,53.1,0c29.2,0,43.5,21.6,43.5,42.8
		c-0.2,13.8-6,27.1-17.9,35.2L777.3,529.2z M727.9,470.1c8.8,0,13.1-7.6,13.1-15.2s-4.1-14.7-13.1-14.7H706v29.8H727.9z"/>
	<path class="st0" d="M835.2,471.5v62.3h-31.6V412.4h9.8l63,59.5v-59H908v121.1h-9.3L835.2,471.5z"/>
	<path class="st0" d="M1017.9,440.3h-43.8v17.3h40.4v27.6h-40.4v19.7h45.4v28.8h-77V412.9h75.4V440.3z"/>
	<path class="st0" d="M1104.3,535.9c-31.7,0-61.4-20.6-61.4-62.3c0-41.5,30.7-62.5,62-62.5c30.7,0,61.3,20.9,61.3,62.5
		C1166.1,510.3,1140.7,535.9,1104.3,535.9z M1104.4,506.2c14.9,0,30.2-11.2,30.2-32.6c0-21.5-14.9-32.6-29.9-32.6
		c-15.6,0-30.5,10.6-30.5,32.6C1074.2,495,1089,506.2,1104.4,506.2z"/>
	<path class="st0" d="M1278.4,496.8c0,8.3,9.5,12.4,19.2,12.4c9,0,18.5-4.1,18.5-11.4c0-11.6-13.5-12.1-22.3-12.6
		c-22.1-1.4-44.2-10.2-44.2-35.4c0-26.3,22.3-39.6,47-39.6c23.3,0,47,13.3,46.5,39.6h-29.5c-0.2-8.3-7.9-11.7-16.4-11.7
		c-7.1,0-16.4,1.9-16.4,11.1c0,8.1,6.9,10,18.5,11.2c25.7,2.2,48.2,8.3,48.2,37.7c0,25.4-24.7,38.7-49.4,38.7
		c-25.6,0-50.1-12.8-49.6-39.9H1278.4z"/>
	<path class="st0" d="M1364.3,440.6v-27.6h89.6v27.6h-29.5v93.1H1394v-93.1H1364.3z"/>
	<path class="st0" d="M1477.8,493.6v-80.7h31.5v80c0,10,8.8,14.3,17.7,14.3c8.4,0,17.4-4.3,17.4-14.3v-80h31.1v80.7
		c0,27-23.4,41.3-48.7,41.3C1501.4,534.9,1477.8,520.6,1477.8,493.6z"/>
	<path class="st0" d="M1655.6,413.1c39.3,0,59.5,30,59.5,59.7c0.5,30.3-19.5,60.9-59.5,60.9h-46V413.1H1655.6z M1655.3,505.2
		c19.1,0,28.3-16,28.3-32.1c0-15.9-9.7-31.7-28.3-31.7h-14.1v63.8H1655.3z"/>
	<path class="st0" d="M1799.1,508.2v25.5h-62.3v-25.5h15.4v-69.7h-14v-25.5h59.6v25.5h-14v69.7H1799.1z"/>
	<path class="st0" d="M1882.6,535.9c-31.9,0-61.7-20.7-61.7-62.5c0-41.7,30.8-62.7,62.2-62.7c30.8,0,61.5,21,61.5,62.7
		C1944.6,510.2,1919.1,535.9,1882.6,535.9z M1882.7,506.1c15,0,30.3-11.2,30.3-32.7s-15-32.7-30-32.7c-15.7,0-30.7,10.7-30.7,32.7
		C1852.4,494.9,1867.2,506.1,1882.7,506.1z"/>
</g>
<g>
	<defs>
		<path id="SVGID_1_" d="M460.5,413.1c39.4,0,59.6,30,59.6,59.7c0.5,30.4-19.5,60.9-59.6,60.9h-46.1V413.1H460.5z M460.2,505.3
			c19.2,0,28.3-16.1,28.3-32.1c0-15.9-9.7-31.8-28.3-31.8H446v63.9H460.2z"/>
	</defs>
	<clipPath id="SVGID_2_">
		<use xlink:href="#SVGID_1_"  style="overflow:visible;"/>
	</clipPath>
	<g class="st1">
		<polygon class="st2" points="540.1,391.7 587.3,473.4 634.5,391.7 		"/>
		<polygon class="st3" points="351.4,391.7 398.5,473.4 445.7,391.7 		"/>
		<polygon class="st3" points="398.6,473.4 445.7,555.1 492.9,473.4 		"/>
		<polygon class="st3" points="445.7,391.7 492.9,473.4 540.1,391.7 		"/>
		<polygon class="st3" points="492.9,473.4 540.1,555.2 587.3,473.4 		"/>
		<polygon class="st4" points="445.7,555.1 398.6,473.4 351.4,555.1 		"/>
		<polygon class="st5" points="492.9,473.4 445.7,391.7 398.5,473.4 		"/>
		<polygon class="st5" points="540.1,555.1 492.9,473.4 445.7,555.1 		"/>
		<polygon class="st5" points="587.3,473.4 540.1,391.7 492.9,473.4 		"/>
		<polygon class="st5" points="634.5,555.1 587.3,473.4 540.1,555.1 		"/>
	</g>
</g>
<g>
	<defs>
		<path id="SVGID_3_" d="M570.2,518.7l-6.9,15h-33v-4.3l55.4-117.7h14.5l54.9,117.7v4.3h-32.6l-7.1-15H570.2z M580.3,492.3h25
			l-12.6-29.2L580.3,492.3z"/>
	</defs>
	<clipPath id="SVGID_4_">
		<use xlink:href="#SVGID_3_"  style="overflow:visible;"/>
	</clipPath>
	<g class="st6">
		<polygon class="st7" points="728.8,391.7 681.6,473.4 634.4,391.7 		"/>
		<polygon class="st7" points="776,473.4 728.8,555.1 681.7,473.4 		"/>
		<polygon class="st3" points="823.2,391.7 776,473.4 728.8,391.7 		"/>
		<polygon class="st8" points="681.6,473.4 728.8,391.7 776,473.4 		"/>
		<polygon class="st2" points="728.9,555.1 776,473.4 823.2,555.1 		"/>
		<polygon class="st2" points="587.3,473.4 634.4,555.1 681.6,473.4 		"/>
		<polygon class="st2" points="540.1,391.7 587.3,473.4 634.5,391.7 		"/>
		<polygon class="st3" points="445.7,391.7 492.9,473.4 540.1,391.7 		"/>
		<polygon class="st3" points="492.9,473.4 540.1,555.2 587.3,473.4 		"/>
		<polygon class="st8" points="728.8,555.2 681.6,473.5 634.4,555.2 		"/>
		<polygon class="st8" points="681.6,473.4 634.4,391.7 587.2,473.4 		"/>
		<polygon class="st5" points="540.1,555.1 492.9,473.4 445.7,555.1 		"/>
		<polygon class="st5" points="587.3,473.4 540.1,391.7 492.9,473.4 		"/>
		<polygon class="st5" points="634.5,555.1 587.3,473.4 540.1,555.1 		"/>
	</g>
</g>
<g>
	<defs>
		<path id="SVGID_5_" d="M777.3,529.1v4.5h-33.5l-20.7-37.8h-16.6v37.8h-31.6V412.7c18,0,35.4-0.2,53.2,0
			c29.2,0,43.5,21.6,43.5,42.8c-0.2,13.8-6,27.1-18,35.2L777.3,529.1z M727.9,470c8.8,0,13.1-7.6,13.1-15.2
			c0-7.6-4.1-14.7-13.1-14.7H706V470H727.9z"/>
	</defs>
	<clipPath id="SVGID_6_">
		<use xlink:href="#SVGID_5_"  style="overflow:visible;"/>
	</clipPath>
	<g class="st9">
		<polygon class="st7" points="728.8,391.7 681.6,473.4 634.4,391.7 		"/>
		<polygon class="st7" points="776,473.4 728.8,555.1 681.7,473.4 		"/>
		<polygon class="st3" points="870.4,473.4 823.2,555.1 776,473.4 		"/>
		<polygon class="st3" points="823.2,391.7 776,473.4 728.8,391.7 		"/>
		<polygon class="st8" points="681.6,473.4 728.8,391.7 776,473.4 		"/>
		<polygon class="st2" points="728.9,555.1 776,473.4 823.2,555.1 		"/>
		<polygon class="st2" points="587.3,473.4 634.4,555.1 681.6,473.4 		"/>
		<polygon class="st2" points="540.1,391.7 587.3,473.4 634.5,391.7 		"/>
		<polygon class="st3" points="398.6,473.4 445.7,555.1 492.9,473.4 		"/>
		<polygon class="st3" points="445.7,391.7 492.9,473.4 540.1,391.7 		"/>
		<polygon class="st3" points="492.9,473.4 540.1,555.2 587.3,473.4 		"/>
		<polygon class="st8" points="728.8,555.2 681.6,473.5 634.4,555.2 		"/>
		<polygon class="st8" points="681.6,473.4 634.4,391.7 587.2,473.4 		"/>
		<polygon class="st5" points="492.9,473.4 445.7,391.7 398.5,473.4 		"/>
		<polygon class="st5" points="540.1,555.1 492.9,473.4 445.7,555.1 		"/>
		<polygon class="st5" points="587.3,473.4 540.1,391.7 492.9,473.4 		"/>
		<polygon class="st5" points="634.5,555.1 587.3,473.4 540.1,555.1 		"/>
		<polygon class="st5" points="776,473.4 823.2,391.7 870.3,473.4 		"/>
	</g>
</g>
<g>
	<defs>
		<path id="SVGID_7_" d="M835.1,471.4v62.3h-31.6V412.4h9.8l63,59.6v-59H908v121.2h-9.3L835.1,471.4z"/>
	</defs>
	<clipPath id="SVGID_8_">
		<use xlink:href="#SVGID_7_"  style="overflow:visible;"/>
	</clipPath>
	<g class="st10">
		<polygon class="st7" points="728.8,391.7 681.6,473.4 634.4,391.7 		"/>
		<polygon class="st7" points="776,473.4 728.8,555.1 681.7,473.4 		"/>
		<polygon class="st3" points="870.4,473.4 823.2,555.1 776,473.4 		"/>
		<polygon class="st3" points="823.2,391.7 776,473.4 728.8,391.7 		"/>
		<polygon class="st11" points="1059.1,473.4 1011.9,555.1 964.7,473.4 		"/>
		<polygon class="st11" points="1011.9,391.7 964.7,473.4 917.5,391.7 		"/>
		<polygon class="st11" points="964.7,473.4 917.6,555.1 870.4,473.4 		"/>
		<polygon class="st11" points="917.5,391.7 870.3,473.4 823.2,391.7 		"/>
		<polygon class="st8" points="681.6,473.4 728.8,391.7 776,473.4 		"/>
		<polygon class="st2" points="728.9,555.1 776,473.4 823.2,555.1 		"/>
		<polygon class="st12" points="964.7,473.4 1011.9,391.7 1059.1,473.4 		"/>
		<polygon class="st4" points="917.5,555.1 964.7,473.4 1011.9,555.1 		"/>
		<polygon class="st12" points="870.3,473.4 917.5,391.7 964.7,473.4 		"/>
		<polygon class="st2" points="587.3,473.4 634.4,555.1 681.6,473.4 		"/>
		<polygon class="st2" points="540.1,391.7 587.3,473.4 634.5,391.7 		"/>
		<polygon class="st8" points="728.8,555.2 681.6,473.5 634.4,555.2 		"/>
		<polygon class="st8" points="681.6,473.4 634.4,391.7 587.2,473.4 		"/>
		<polygon class="st5" points="634.5,555.1 587.3,473.4 540.1,555.1 		"/>
		<polygon class="st5" points="776,473.4 823.2,391.7 870.3,473.4 		"/>
		<polygon class="st4" points="823.2,555.1 870.4,473.4 917.5,555.1 		"/>
	</g>
</g>
<g>
	<defs>
		<path id="SVGID_9_" d="M1017.9,440.3h-43.8v17.3h40.4v27.6h-40.4v19.7h45.4v28.8h-77V412.9h75.4V440.3z"/>
	</defs>
	<clipPath id="SVGID_10_">
		<use xlink:href="#SVGID_9_"  style="overflow:visible;"/>
	</clipPath>
	<g class="st13">
		<polygon class="st11" points="1153.4,473.4 1106.3,555.1 1059.1,473.4 		"/>
		<polygon class="st11" points="1059.1,473.4 1011.9,555.1 964.7,473.4 		"/>
		<polygon class="st11" points="1200.6,391.7 1153.5,473.4 1106.3,391.7 		"/>
		<polygon class="st11" points="1106.3,391.7 1059.1,473.4 1011.9,391.7 		"/>
		<polygon class="st11" points="1011.9,391.7 964.7,473.4 917.5,391.7 		"/>
		<polygon class="st11" points="964.7,473.4 917.6,555.1 870.4,473.4 		"/>
		<polygon class="st12" points="964.7,473.4 1011.9,391.7 1059.1,473.4 		"/>
		<polygon class="st12" points="1059.1,473.4 1106.3,391.7 1153.5,473.4 		"/>
		<polygon class="st4" points="1106.3,555.2 1153.4,473.4 1200.6,555.2 		"/>
		<polygon class="st4" points="1011.9,555.1 1059.1,473.4 1106.3,555.1 		"/>
		<polygon class="st4" points="917.5,555.1 964.7,473.4 1011.9,555.1 		"/>
		<polygon class="st12" points="870.3,473.4 917.5,391.7 964.7,473.4 		"/>
	</g>
</g>
<g>
	<defs>
		<path id="SVGID_11_" d="M1103.9,536c-31.9,0-61.8-20.7-61.8-62.7c0-41.8,30.9-62.8,62.3-62.8c30.9,0,61.6,21.1,61.6,62.8
			C1166.1,510.3,1140.5,536,1103.9,536z M1104.1,506.1c15,0,30.4-11.2,30.4-32.8c0-21.6-15-32.8-30-32.8
			c-15.7,0-30.7,10.7-30.7,32.8C1073.7,494.9,1088.5,506.1,1104.1,506.1z"/>
	</defs>
	<clipPath id="SVGID_12_">
		<use xlink:href="#SVGID_11_"  style="overflow:visible;"/>
	</clipPath>
	<g class="st14">
		<polygon class="st11" points="1247.8,473.4 1200.6,555.1 1153.4,473.4 		"/>
		<polygon class="st11" points="1153.4,473.4 1106.3,555.1 1059.1,473.4 		"/>
		<polygon class="st11" points="1059.1,473.4 1011.9,555.1 964.7,473.4 		"/>
		<polygon class="st11" points="1200.6,391.7 1153.5,473.4 1106.3,391.7 		"/>
		<polygon class="st11" points="1106.3,391.7 1059.1,473.4 1011.9,391.7 		"/>
		<polygon class="st12" points="964.7,473.4 1011.9,391.7 1059.1,473.4 		"/>
		<polygon class="st12" points="1059.1,473.4 1106.3,391.7 1153.5,473.4 		"/>
		<polygon class="st12" points="1153.4,473.4 1200.6,391.7 1247.8,473.4 		"/>
		<polygon class="st4" points="1106.3,555.2 1153.4,473.4 1200.6,555.2 		"/>
		<polygon class="st4" points="1011.9,555.1 1059.1,473.4 1106.3,555.1 		"/>
	</g>
</g>
<g>
	<defs>
		<path id="SVGID_13_" d="M1278.4,496.6c0,8.3,9.5,12.4,19.2,12.4c9,0,18.5-4.1,18.5-11.4c0-11.6-13.5-12.1-22.3-12.6
			c-22.1-1.4-44.2-10.2-44.2-35.4c0-26.2,22.3-39.5,47-39.5c23.3,0,47,13.3,46.4,39.5h-29.5c-0.2-8.3-7.9-11.7-16.4-11.7
			c-7.1,0-16.4,1.9-16.4,11c0,8.1,6.9,10,18.5,11.2c25.7,2.2,48.2,8.3,48.2,37.6c0,25.4-24.7,38.7-49.4,38.7
			c-25.5,0-50.1-12.8-49.5-39.9H1278.4z"/>
	</defs>
	<clipPath id="SVGID_14_">
		<use xlink:href="#SVGID_13_"  style="overflow:visible;"/>
	</clipPath>
	<g class="st15">
		<polygon class="st11" points="1436.5,473.4 1389.3,555.1 1342.1,473.4 		"/>
		<polygon class="st11" points="1342.2,473.4 1295,555.1 1247.8,473.4 		"/>
		<polygon class="st11" points="1247.8,473.4 1200.6,555.1 1153.4,473.4 		"/>
		<polygon class="st11" points="1389.3,391.7 1342.1,473.4 1294.9,391.7 		"/>
		<polygon class="st11" points="1483.7,391.7 1436.5,473.4 1389.3,391.7 		"/>
		<polygon class="st11" points="1295,391.7 1247.8,473.4 1200.6,391.7 		"/>
		<polygon class="st12" points="1153.4,473.4 1200.6,391.7 1247.8,473.4 		"/>
		<polygon class="st12" points="1247.8,473.4 1294.9,391.7 1342.1,473.4 		"/>
		<polygon class="st12" points="1342.1,473.4 1389.3,391.7 1436.5,473.4 		"/>
		<polygon class="st4" points="1295,555.1 1342.1,473.4 1389.3,555.1 		"/>
		<polygon class="st4" points="1200.6,555.1 1247.8,473.4 1295,555.1 		"/>
		<polygon class="st4" points="1389.3,555.1 1436.5,473.4 1483.6,555.1 		"/>
	</g>
</g>
<g>
	<defs>
		<path id="SVGID_15_" d="M1364.2,440.5v-27.6h89.8v27.6h-29.5v93.2h-30.6v-93.2H1364.2z"/>
	</defs>
	<clipPath id="SVGID_16_">
		<use xlink:href="#SVGID_15_"  style="overflow:visible;"/>
	</clipPath>
	<g class="st16">
		<polygon class="st11" points="1436.5,473.4 1389.3,555.1 1342.1,473.4 		"/>
		<polygon class="st11" points="1342.2,473.4 1295,555.1 1247.8,473.4 		"/>
		<polygon class="st11" points="1389.3,391.7 1342.1,473.4 1294.9,391.7 		"/>
		<polygon class="st11" points="1483.7,391.7 1436.5,473.4 1389.3,391.7 		"/>
		<polygon class="st11" points="1295,391.7 1247.8,473.4 1200.6,391.7 		"/>
		<polygon class="st3" points="1530.8,473.4 1483.6,555.1 1436.5,473.4 		"/>
		<polygon class="st12" points="1247.8,473.4 1294.9,391.7 1342.1,473.4 		"/>
		<polygon class="st12" points="1342.1,473.4 1389.3,391.7 1436.5,473.4 		"/>
		<polygon class="st5" points="1436.5,473.4 1483.6,391.7 1530.8,473.4 		"/>
		<polygon class="st4" points="1295,555.1 1342.1,473.4 1389.3,555.1 		"/>
		<polygon class="st4" points="1200.6,555.1 1247.8,473.4 1295,555.1 		"/>
		<polygon class="st4" points="1389.3,555.1 1436.5,473.4 1483.6,555.1 		"/>
	</g>
</g>
<g>
	<defs>
		<path id="SVGID_17_" d="M1477.8,493.9v-81h31.6v80.3c0,10,8.8,14.3,17.8,14.3c8.5,0,17.4-4.3,17.4-14.3v-80.3h31.2v81
			c0,27.1-23.5,41.4-48.9,41.4C1501.5,535.3,1477.8,521,1477.8,493.9z"/>
	</defs>
	<clipPath id="SVGID_18_">
		<use xlink:href="#SVGID_17_"  style="overflow:visible;"/>
	</clipPath>
	<g class="st17">
		<polygon class="st2" points="1625.2,473.4 1578,555.1 1530.8,473.4 		"/>
		<polygon class="st11" points="1436.5,473.4 1389.3,555.1 1342.1,473.4 		"/>
		<polygon class="st11" points="1389.3,391.7 1342.1,473.4 1294.9,391.7 		"/>
		<polygon class="st11" points="1483.7,391.7 1436.5,473.4 1389.3,391.7 		"/>
		<polygon class="st3" points="1578,391.7 1530.8,473.4 1483.6,391.7 		"/>
		<polygon class="st3" points="1530.8,473.4 1483.6,555.1 1436.5,473.4 		"/>
		<polygon class="st12" points="1342.1,473.4 1389.3,391.7 1436.5,473.4 		"/>
		<polygon class="st5" points="1436.5,473.4 1483.6,391.7 1530.8,473.4 		"/>
		<polygon class="st4" points="1295,555.1 1342.1,473.4 1389.3,555.1 		"/>
		<polygon class="st4" points="1389.3,555.1 1436.5,473.4 1483.6,555.1 		"/>
		<polygon class="st5" points="1530.8,473.4 1578,391.7 1625.2,473.4 		"/>
		<polygon class="st5" points="1483.6,555.1 1530.8,473.4 1578,555.1 		"/>
	</g>
</g>
<g>
	<defs>
		<path id="SVGID_19_" d="M1655.6,413.1c39.4,0,59.6,30,59.6,59.7c0.5,30.4-19.5,60.9-59.6,60.9h-46.1V413.1H1655.6z M1655.3,505.3
			c19.2,0,28.3-16.1,28.3-32.1c0-15.9-9.7-31.8-28.3-31.8h-14.2v63.9H1655.3z"/>
	</defs>
	<clipPath id="SVGID_20_">
		<use xlink:href="#SVGID_19_"  style="overflow:visible;"/>
	</clipPath>
	<g class="st18">
		<polygon class="st7" points="1719.5,473.4 1672.4,555.2 1625.2,473.4 		"/>
		<polygon class="st7" points="1766.7,391.7 1719.5,473.4 1672.3,391.7 		"/>
		<polygon class="st2" points="1672.3,391.7 1625.2,473.4 1578,391.7 		"/>
		<polygon class="st2" points="1625.2,473.4 1578,555.1 1530.8,473.4 		"/>
		<polygon class="st8" points="1578,555.1 1625.2,473.4 1672.4,555.1 		"/>
		<polygon class="st8" points="1672.3,555.1 1719.5,473.4 1766.7,555.1 		"/>
		<polygon class="st8" points="1625.1,473.4 1672.3,391.7 1719.5,473.4 		"/>
		<polygon class="st5" points="1530.8,473.4 1578,391.7 1625.2,473.4 		"/>
	</g>
</g>
<g>
	<defs>
		<path id="SVGID_21_" d="M1799.1,508.2v25.5h-62.3v-25.5h15.4v-69.7h-14v-25.5h59.6v25.5h-14v69.7H1799.1z"/>
	</defs>
	<clipPath id="SVGID_22_">
		<use xlink:href="#SVGID_21_"  style="overflow:visible;"/>
	</clipPath>
	<g class="st19">
		<polygon class="st7" points="1766.7,391.7 1719.5,473.4 1672.3,391.7 		"/>
		<polygon class="st2" points="1813.8,473.3 1766.7,555.1 1719.5,473.3 		"/>
		<polygon class="st2" points="1861,391.7 1813.8,473.4 1766.6,391.7 		"/>
		<polygon class="st8" points="1672.3,555.1 1719.5,473.4 1766.7,555.1 		"/>
		<polygon class="st8" points="1719.5,473.4 1766.7,391.7 1813.9,473.4 		"/>
		<polygon class="st5" points="1766.6,555.1 1813.8,473.4 1861,555.1 		"/>
	</g>
</g>
<g>
	<defs>
		<path id="SVGID_23_" d="M1882.4,536c-31.9,0-61.8-20.7-61.8-62.7c0-41.8,30.9-62.8,62.3-62.8c30.9,0,61.6,21.1,61.6,62.8
			C1944.6,510.3,1919,536,1882.4,536z M1882.6,506.1c15,0,30.4-11.2,30.4-32.8c0-21.6-15-32.8-30-32.8c-15.7,0-30.7,10.7-30.7,32.8
			C1852.2,494.9,1867.1,506.1,1882.6,506.1z"/>
	</defs>
	<clipPath id="SVGID_24_">
		<use xlink:href="#SVGID_23_"  style="overflow:visible;"/>
	</clipPath>
	<g class="st20">
		<polygon class="st2" points="1861,391.7 1813.8,473.4 1766.6,391.7 		"/>
		<polygon class="st11" points="2002.5,473.4 1955.4,555.1 1908.2,473.4 		"/>
		<polygon class="st3" points="1955.4,391.7 1908.2,473.4 1861,391.7 		"/>
		<polygon class="st3" points="1908.2,473.4 1861,555.1 1813.8,473.4 		"/>
		<polygon class="st12" points="1908.2,473.4 1955.4,391.6 2002.6,473.4 		"/>
		<polygon class="st12" points="1861,555.1 1908.2,473.3 1955.4,555.1 		"/>
		<polygon class="st5" points="1813.8,473.4 1861,391.7 1908.2,473.4 		"/>
		<polygon class="st5" points="1766.6,555.1 1813.8,473.4 1861,555.1 		"/>
	</g>
</g>
</svg>
