<svg id="маски" xmlns="http://www.w3.org/2000/svg" xmlns:xlink="http://www.w3.org/1999/xlink" viewBox="0 0 1651.21 163.56">
    <defs>
        <style>
            .cls-1{fill:none;}.cls-2{fill:#4bb7d7;}.cls-3{clip-path:url(#clip-path);}.cls-4{fill:#13a0cb;}.cls-5{fill:#16bee3;}.cls-6{fill:#37ddfd;}.cls-7{fill:#16abd7;}.cls-8{clip-path:url(#clip-path-2);}.cls-9{fill:#0c84b0;}.cls-10{fill:#0e8dbc;}.cls-11{clip-path:url(#clip-path-3);}.cls-12{clip-path:url(#clip-path-4);}.cls-13{fill:#29d9f6;}.cls-14{fill:#21cbef;}.cls-15{clip-path:url(#clip-path-5);}.cls-16{clip-path:url(#clip-path-6);}.cls-17{clip-path:url(#clip-path-7);}.cls-18{clip-path:url(#clip-path-8);}.cls-19{clip-path:url(#clip-path-9);}.cls-20{clip-path:url(#clip-path-10);}.cls-21{clip-path:url(#clip-path-11);}.cls-22{clip-path:url(#clip-path-12);}
        </style>
        <clipPath id="clip-path" transform="translate(63.09 18.5)">
            <path class="cls-1" d="M46.09,2.93c39.36,0,59.56,30,59.56,59.73C106.16,93,86.14,123.6,46.09,123.6H0V2.93Zm-.34,92.18c19.16,0,28.31-16.05,28.31-32.11,0-15.88-9.67-31.76-28.31-31.76H31.59V95.11Z"/>
        </clipPath>
        <clipPath id="clip-path-2" transform="translate(63.09 18.5)">
            <path class="cls-1" d="M155.71,108.58l-6.91,15h-33v-4.32L171.24,1.55h14.5l54.89,117.73v4.32H208l-7.08-15Zm10.18-26.41h25L178.32,53Z"/>
        </clipPath>
        <clipPath id="clip-path-3" transform="translate(63.09 18.5)">
            <path class="cls-1" d="M362.86,118.94v4.49H329.37l-20.72-37.8H292.08v37.8H260.49V2.59c18,0,35.39-.17,53.17,0,29.17,0,43.5,21.58,43.5,42.81-.17,13.81-6,27.1-18,35.21Zm-49.37-59c8.8,0,13.12-7.6,13.12-15.19S322.46,30,313.49,30H291.56V59.9Z"/>
        </clipPath>
        <clipPath id="clip-path-4" transform="translate(63.09 18.5)">
            <path class="cls-1" d="M420.69,61.28V123.6H389.1V2.24h9.84l63,59.55v-59h31.59V123.94h-9.32Z"/>
        </clipPath>
        <clipPath id="clip-path-5" transform="translate(63.09 18.5)">
            <path class="cls-1" d="M603.49,30.21H559.65V47.47H600V75.09H559.65V94.77H605V123.6h-77V2.76h75.44Z"/>
        </clipPath>
        <clipPath id="clip-path-6" transform="translate(63.09 18.5)">
            <path class="cls-1" d="M689.46,125.84c-31.93,0-61.8-20.71-61.8-62.66C627.66,21.41,658.56.34,690,.34c30.9,0,61.63,21.06,61.63,62.83C751.61,100.12,726.06,125.84,689.46,125.84ZM689.63,96c15,0,30.38-11.22,30.38-32.8s-15-32.8-30-32.8c-15.71,0-30.73,10.7-30.73,32.8C659.25,84.76,674.1,96,689.63,96Z"/>
        </clipPath>
        <clipPath id="clip-path-7" transform="translate(63.09 18.5)">
            <path class="cls-1" d="M864,86.48c0,8.29,9.49,12.43,19.16,12.43,9,0,18.47-4.14,18.47-11.39,0-11.57-13.46-12.08-22.27-12.6-22.1-1.38-44.19-10.18-44.19-35.39,0-26.24,22.27-39.53,47-39.53,23.3,0,47,13.29,46.44,39.53H899c-.17-8.29-7.94-11.74-16.4-11.74-7.08,0-16.4,1.9-16.4,11,0,8.11,6.91,10,18.47,11.22,25.72,2.24,48.16,8.29,48.16,37.63,0,25.38-24.68,38.67-49.37,38.67-25.55,0-50.06-12.77-49.54-39.88Z"/>
        </clipPath>
        <clipPath id="clip-path-8" transform="translate(63.09 18.5)">
            <path class="cls-1" d="M949.78,30.38V2.76h89.76V30.38H1010V123.6H979.47V30.38Z"/>
        </clipPath>
        <clipPath id="clip-path-9" transform="translate(63.09 18.5)">
            <path class="cls-1" d="M1063.37,83.72v-81H1095V83c0,10,8.8,14.33,17.78,14.33,8.46,0,17.44-4.32,17.44-14.33V2.76h31.24v81c0,27.1-23.48,41.43-48.85,41.43C1087,125.15,1063.37,110.82,1063.37,83.72Z"/>
        </clipPath>
        <clipPath id="clip-path-10" transform="translate(63.09 18.5)">
            <path class="cls-1" d="M1241.17,2.93c39.36,0,59.56,30,59.56,59.73.52,30.38-19.51,60.93-59.56,60.93h-46.09V2.93Zm-.35,92.18c19.16,0,28.31-16.05,28.31-32.11,0-15.88-9.67-31.76-28.31-31.76h-14.16V95.11Z"/>
        </clipPath>
        <clipPath id="clip-path-11" transform="translate(63.09 18.5)">
            <path class="cls-1" d="M1384.62,98V123.6H1322.3V98h15.36V28.31h-14V2.76h59.56V28.31h-14V98Z"/>
        </clipPath>
        <clipPath id="clip-path-12" transform="translate(63.09 18.5)">
            <path class="cls-1" d="M1468,125.84c-31.93,0-61.8-20.71-61.8-62.66,0-41.77,30.9-62.83,62.32-62.83,30.9,0,61.63,21.06,61.63,62.83C1530.14,100.12,1504.59,125.84,1468,125.84Zm.17-29.86c15,0,30.38-11.22,30.38-32.8s-15-32.8-30-32.8c-15.71,0-30.73,10.7-30.73,32.8C1437.79,84.76,1452.63,96,1468.17,96Z"/>
        </clipPath>
    </defs>
    <title>logo_vektor2</title>
    <g id="ПОДЛОЖКА">
        <path class="cls-2" d="M46.08,2.93c39.37,0,59.58,30,59.58,59.75.52,30.39-19.51,61-59.58,61H0V2.93Zm-.35,92.22c19.17,0,28.32-16.06,28.32-32.12,0-15.89-9.67-31.78-28.32-31.78H31.58v63.9Z" transform="translate(63.09 18.5)"/>
        <path class="cls-2" d="M155.71,108.49l-6.91,15h-33v-4.32L171.24,1.46h14.5l54.89,117.73v4.32H208l-7.08-15Zm10.18-26.41h25L178.32,52.9Z" transform="translate(63.09 18.5)"/>
        <path class="cls-2" d="M362.83,119v4.49H329.36L308.65,85.72H292.09v37.79H260.52V2.72c17.94,0,35.37-.17,53.14,0,29.16,0,43.48,21.57,43.48,42.79-.17,13.8-6,27.09-17.94,35.2ZM313.49,60c8.8,0,13.11-7.59,13.11-15.18s-4.14-14.67-13.11-14.67H291.57V60Z" transform="translate(63.09 18.5)"/>
        <path class="cls-2" d="M420.73,61.31v62.28H389.15V2.3H399l63,59.52v-59h31.57V123.94h-9.32Z" transform="translate(63.09 18.5)"/>
        <path class="cls-2" d="M603.49,30.21H559.65V47.47H600V75.09H559.65V94.77H605V123.6h-77V2.76h75.44Z" transform="translate(63.09 18.5)"/>
        <path class="cls-2" d="M689.82,125.74c-31.75,0-61.44-20.59-61.44-62.3,0-41.53,30.72-62.47,62-62.47,30.72,0,61.27,20.94,61.27,62.47C751.61,100.17,726.21,125.74,689.82,125.74ZM690,96.05c14.93,0,30.21-11.16,30.21-32.61s-14.93-32.61-29.86-32.61c-15.62,0-30.55,10.64-30.55,32.61C659.79,84.9,674.55,96.05,690,96.05Z" transform="translate(63.09 18.5)"/>
        <path class="cls-2" d="M864,86.63c0,8.29,9.5,12.44,19.18,12.44,9,0,18.49-4.15,18.49-11.4,0-11.58-13.48-12.1-22.29-12.61-22.12-1.38-44.24-10.19-44.24-35.42,0-26.26,22.29-39.57,47-39.57,23.33,0,47,13.31,46.48,39.57H899c-.17-8.29-7.95-11.75-16.42-11.75-7.08,0-16.42,1.9-16.42,11.06,0,8.12,6.91,10,18.49,11.23,25.75,2.25,48.21,8.29,48.21,37.67,0,25.4-24.71,38.71-49.42,38.71-25.57,0-50.11-12.79-49.59-39.92Z" transform="translate(63.09 18.5)"/>
        <path class="cls-2" d="M949.9,30.51V2.92h89.65V30.51h-29.48v93.1H979.55V30.51Z" transform="translate(63.09 18.5)"/>
        <path class="cls-2" d="M1063.37,83.44V2.76h31.48v80c0,10,8.77,14.28,17.72,14.28,8.43,0,17.38-4.3,17.38-14.28v-80h31.14V83.44c0,27-23.4,41.29-48.68,41.29C1086.93,124.73,1063.37,110.45,1063.37,83.44Z" transform="translate(63.09 18.5)"/>
        <path class="cls-2" d="M1241.17,3c39.31,0,59.48,30,59.48,59.65.52,30.34-19.48,60.86-59.48,60.86h-46V3ZM1240.83,95C1260,95,1269.1,79,1269.1,63c0-15.86-9.65-31.72-28.28-31.72h-14.14V95Z" transform="translate(63.09 18.5)"/>
        <path class="cls-2" d="M1384.62,98.06v25.55H1322.3V98.06h15.36V28.32h-14V2.77h59.56V28.32h-14V98.06Z" transform="translate(63.09 18.5)"/>
        <path class="cls-2" d="M1468.12,125.77c-31.87,0-61.67-20.67-61.67-62.53,0-41.69,30.84-62.71,62.19-62.71,30.84,0,61.5,21,61.5,62.71C1530.14,100.1,1504.65,125.77,1468.12,125.77Zm.17-29.8c15,0,30.32-11.2,30.32-32.73s-15-32.73-30-32.73C1453,30.5,1438,41.18,1438,63.23,1438,84.77,1452.79,96,1468.3,96Z" transform="translate(63.09 18.5)"/>
    </g>
    <g class="cls-3">
        <polygon class="cls-4" points="188.73 0.07 235.91 81.79 283.1 0.07 188.73 0.07"/>
        <polygon class="cls-5" points="0 0.06 47.18 81.79 94.37 0.06 0 0.06"/>
        <polygon class="cls-5" points="47.2 81.77 94.38 163.49 141.56 81.77 47.2 81.77"/>
        <polygon class="cls-5" points="94.36 0.07 141.54 81.79 188.73 0.07 94.36 0.07"/>
        <polygon class="cls-5" points="141.55 81.79 188.73 163.51 235.92 81.79 141.55 81.79"/>
        <polygon class="cls-6" points="94.39 163.46 47.21 81.73 0.02 163.46 94.39 163.46"/>
        <polygon class="cls-7" points="141.54 81.78 94.36 0.05 47.17 81.78 141.54 81.78"/>
        <polygon class="cls-7" points="188.72 163.48 141.54 81.75 94.35 163.48 188.72 163.48"/>
        <polygon class="cls-7" points="235.92 81.8 188.74 0.08 141.55 81.8 235.92 81.8"/>
        <polygon class="cls-7" points="283.11 163.5 235.92 81.77 188.74 163.5 283.11 163.5"/>
    </g>
    <g class="cls-8">
        <polygon class="cls-9" points="377.4 0.08 330.22 81.81 283.03 0.08 377.4 0.08"/>
        <polygon class="cls-9" points="424.66 81.77 377.49 163.49 330.29 81.77 424.66 81.77"/>
        <polygon class="cls-5" points="471.8 0.06 424.63 81.78 377.43 0.06 471.8 0.06"/>
        <polygon class="cls-10" points="330.24 81.76 377.42 0.03 424.6 81.76 330.24 81.76"/>
        <polygon class="cls-4" points="377.5 163.48 424.68 81.75 471.86 163.48 377.5 163.48"/>
        <polygon class="cls-4" points="235.91 81.75 283.08 163.48 330.28 81.75 235.91 81.75"/>
        <polygon class="cls-4" points="188.73 0.07 235.91 81.79 283.1 0.07 188.73 0.07"/>
        <polygon class="cls-5" points="94.36 0.07 141.54 81.79 188.73 0.07 94.36 0.07"/>
        <polygon class="cls-5" points="141.55 81.79 188.73 163.51 235.92 81.79 141.55 81.79"/>
        <polygon class="cls-10" points="377.43 163.56 330.25 81.83 283.06 163.56 377.43 163.56"/>
        <polygon class="cls-10" points="330.24 81.81 283.06 0.08 235.87 81.81 330.24 81.81"/>
        <polygon class="cls-7" points="188.72 163.48 141.54 81.75 94.35 163.48 188.72 163.48"/>
        <polygon class="cls-7" points="235.92 81.8 188.74 0.08 141.55 81.8 235.92 81.8"/>
        <polygon class="cls-7" points="283.11 163.5 235.92 81.77 188.74 163.5 283.11 163.5"/>
    </g>
    <g class="cls-11">
        <polygon class="cls-9" points="377.4 0.08 330.22 81.81 283.03 0.08 377.4 0.08"/>
        <polygon class="cls-9" points="424.66 81.77 377.49 163.49 330.29 81.77 424.66 81.77"/>
        <polygon class="cls-5" points="519.04 81.74 471.86 163.46 424.67 81.74 519.04 81.74"/>
        <polygon class="cls-5" points="471.8 0.06 424.63 81.78 377.43 0.06 471.8 0.06"/>
        <polygon class="cls-10" points="330.24 81.76 377.42 0.03 424.6 81.76 330.24 81.76"/>
        <polygon class="cls-4" points="377.5 163.48 424.68 81.75 471.86 163.48 377.5 163.48"/>
        <polygon class="cls-4" points="235.91 81.75 283.08 163.48 330.28 81.75 235.91 81.75"/>
        <polygon class="cls-4" points="188.73 0.07 235.91 81.79 283.1 0.07 188.73 0.07"/>
        <polygon class="cls-5" points="47.2 81.77 94.38 163.49 141.56 81.77 47.2 81.77"/>
        <polygon class="cls-5" points="94.36 0.07 141.54 81.79 188.73 0.07 94.36 0.07"/>
        <polygon class="cls-5" points="141.55 81.79 188.73 163.51 235.92 81.79 141.55 81.79"/>
        <polygon class="cls-10" points="377.43 163.56 330.25 81.83 283.06 163.56 377.43 163.56"/>
        <polygon class="cls-10" points="330.24 81.81 283.06 0.08 235.87 81.81 330.24 81.81"/>
        <polygon class="cls-7" points="141.54 81.78 94.36 0.05 47.17 81.78 141.54 81.78"/>
        <polygon class="cls-7" points="188.72 163.48 141.54 81.75 94.35 163.48 188.72 163.48"/>
        <polygon class="cls-7" points="235.92 81.8 188.74 0.08 141.55 81.8 235.92 81.8"/>
        <polygon class="cls-7" points="283.11 163.5 235.92 81.77 188.74 163.5 283.11 163.5"/>
        <polygon class="cls-7" points="424.62 81.77 471.8 0.04 518.99 81.77 424.62 81.77"/>
    </g>
    <g class="cls-12">
        <polygon class="cls-9" points="377.4 0.08 330.22 81.81 283.03 0.08 377.4 0.08"/>
        <polygon class="cls-9" points="424.66 81.77 377.49 163.49 330.29 81.77 424.66 81.77"/>
        <polygon class="cls-5" points="519.04 81.74 471.86 163.46 424.67 81.74 519.04 81.74"/>
        <polygon class="cls-5" points="471.8 0.06 424.63 81.78 377.43 0.06 471.8 0.06"/>
        <polygon class="cls-13" points="707.74 81.78 660.56 163.5 613.38 81.78 707.74 81.78"/>
        <polygon class="cls-13" points="660.5 0.04 613.32 81.77 566.13 0.04 660.5 0.04"/>
        <polygon class="cls-13" points="613.37 81.75 566.19 163.47 519 81.75 613.37 81.75"/>
        <polygon class="cls-13" points="566.17 0.04 518.99 81.76 471.8 0.04 566.17 0.04"/>
        <polygon class="cls-10" points="330.24 81.76 377.42 0.03 424.6 81.76 330.24 81.76"/>
        <polygon class="cls-4" points="377.5 163.48 424.68 81.75 471.86 163.48 377.5 163.48"/>
        <polygon class="cls-14" points="613.33 81.78 660.51 0.05 707.7 81.78 613.33 81.78"/>
        <polygon class="cls-6" points="566.19 163.46 613.37 81.74 660.56 163.46 566.19 163.46"/>
        <polygon class="cls-14" points="518.97 81.77 566.15 0.04 613.34 81.77 518.97 81.77"/>
        <polygon class="cls-4" points="235.91 81.75 283.08 163.48 330.28 81.75 235.91 81.75"/>
        <polygon class="cls-4" points="188.73 0.07 235.91 81.79 283.1 0.07 188.73 0.07"/>
        <polygon class="cls-10" points="377.43 163.56 330.25 81.83 283.06 163.56 377.43 163.56"/>
        <polygon class="cls-10" points="330.24 81.81 283.06 0.08 235.87 81.81 330.24 81.81"/>
        <polygon class="cls-7" points="283.11 163.5 235.92 81.77 188.74 163.5 283.11 163.5"/>
        <polygon class="cls-7" points="424.62 81.77 471.8 0.04 518.99 81.77 424.62 81.77"/>
        <polygon class="cls-6" points="471.81 163.46 518.99 81.73 566.18 163.46 471.81 163.46"/>
    </g>
    <g class="cls-15">
        <polygon class="cls-13" points="802.09 81.78 754.91 163.5 707.72 81.78 802.09 81.78"/>
        <polygon class="cls-13" points="707.74 81.78 660.56 163.5 613.38 81.78 707.74 81.78"/>
        <polygon class="cls-13" points="849.28 0.05 802.1 81.78 754.91 0.05 849.28 0.05"/>
        <polygon class="cls-13" points="754.92 0.04 707.74 81.77 660.56 0.04 754.92 0.04"/>
        <polygon class="cls-13" points="660.5 0.04 613.32 81.77 566.13 0.04 660.5 0.04"/>
        <polygon class="cls-13" points="613.37 81.75 566.19 163.47 519 81.75 613.37 81.75"/>
        <polygon class="cls-14" points="613.33 81.78 660.51 0.05 707.7 81.78 613.33 81.78"/>
        <polygon class="cls-14" points="707.74 81.77 754.92 0.05 802.11 81.77 707.74 81.77"/>
        <polygon class="cls-6" points="754.89 163.52 802.08 81.79 849.26 163.52 754.89 163.52"/>
        <polygon class="cls-6" points="660.56 163.49 707.75 81.77 754.93 163.49 660.56 163.49"/>
        <polygon class="cls-6" points="566.19 163.46 613.37 81.74 660.56 163.46 566.19 163.46"/>
        <polygon class="cls-14" points="518.97 81.77 566.15 0.04 613.34 81.77 518.97 81.77"/>
    </g>
    <g class="cls-16">
        <polygon class="cls-13" points="896.42 81.78 849.24 163.5 802.05 81.78 896.42 81.78"/>
        <polygon class="cls-13" points="802.09 81.78 754.91 163.5 707.72 81.78 802.09 81.78"/>
        <polygon class="cls-13" points="707.74 81.78 660.56 163.5 613.38 81.78 707.74 81.78"/>
        <polygon class="cls-13" points="849.28 0.05 802.1 81.78 754.91 0.05 849.28 0.05"/>
        <polygon class="cls-13" points="754.92 0.04 707.74 81.77 660.56 0.04 754.92 0.04"/>
        <polygon class="cls-14" points="613.33 81.78 660.51 0.05 707.7 81.78 613.33 81.78"/>
        <polygon class="cls-14" points="707.74 81.77 754.92 0.05 802.11 81.77 707.74 81.77"/>
        <polygon class="cls-14" points="802.06 81.79 849.24 0.06 896.43 81.79 802.06 81.79"/>
        <polygon class="cls-6" points="754.89 163.52 802.08 81.79 849.26 163.52 754.89 163.52"/>
        <polygon class="cls-6" points="660.56 163.49 707.75 81.77 754.93 163.49 660.56 163.49"/>
    </g>
    <g class="cls-17">
        <polygon class="cls-13" points="1085.11 81.78 1037.93 163.5 990.75 81.78 1085.11 81.78"/>
        <polygon class="cls-13" points="990.8 81.76 943.62 163.49 896.43 81.76 990.8 81.76"/>
        <polygon class="cls-13" points="896.42 81.78 849.24 163.5 802.05 81.78 896.42 81.78"/>
        <polygon class="cls-13" points="1037.94 0.05 990.76 81.78 943.58 0.05 1037.94 0.05"/>
        <polygon class="cls-13" points="1132.3 0.05 1085.13 81.78 1037.94 0.05 1132.3 0.05"/>
        <polygon class="cls-13" points="943.6 0.05 896.42 81.78 849.23 0.05 943.6 0.05"/>
        <polygon class="cls-14" points="802.06 81.79 849.24 0.06 896.43 81.79 802.06 81.79"/>
        <polygon class="cls-14" points="896.4 81.79 943.59 0.06 990.78 81.79 896.4 81.79"/>
        <polygon class="cls-14" points="990.76 81.77 1037.94 0.04 1085.13 81.77 990.76 81.77"/>
        <polygon class="cls-6" points="943.6 163.48 990.78 81.75 1037.97 163.48 943.6 163.48"/>
        <polygon class="cls-6" points="849.25 163.49 896.43 81.77 943.62 163.49 849.25 163.49"/>
        <polygon class="cls-6" points="1037.92 163.48 1085.1 81.75 1132.29 163.48 1037.92 163.48"/>
    </g>
    <g class="cls-18">
        <polygon class="cls-13" points="1085.11 81.78 1037.93 163.5 990.75 81.78 1085.11 81.78"/>
        <polygon class="cls-13" points="990.8 81.76 943.62 163.49 896.43 81.76 990.8 81.76"/>
        <polygon class="cls-13" points="1037.94 0.05 990.76 81.78 943.58 0.05 1037.94 0.05"/>
        <polygon class="cls-13" points="1132.3 0.05 1085.13 81.78 1037.94 0.05 1132.3 0.05"/>
        <polygon class="cls-13" points="943.6 0.05 896.42 81.78 849.23 0.05 943.6 0.05"/>
        <polygon class="cls-5" points="1179.46 81.77 1132.28 163.49 1085.09 81.77 1179.46 81.77"/>
        <polygon class="cls-14" points="896.4 81.79 943.59 0.06 990.78 81.79 896.4 81.79"/>
        <polygon class="cls-14" points="990.76 81.77 1037.94 0.04 1085.13 81.77 990.76 81.77"/>
        <polygon class="cls-7" points="1085.11 81.77 1132.29 0.04 1179.47 81.77 1085.11 81.77"/>
        <polygon class="cls-6" points="943.6 163.48 990.78 81.75 1037.97 163.48 943.6 163.48"/>
        <polygon class="cls-6" points="849.25 163.49 896.43 81.77 943.62 163.49 849.25 163.49"/>
        <polygon class="cls-6" points="1037.92 163.48 1085.1 81.75 1132.29 163.48 1037.92 163.48"/>
    </g>
    <g class="cls-19">
        <polygon class="cls-4" points="1273.83 81.78 1226.65 163.5 1179.46 81.78 1273.83 81.78"/>
        <polygon class="cls-13" points="1085.11 81.78 1037.93 163.5 990.75 81.78 1085.11 81.78"/>
        <polygon class="cls-13" points="1037.94 0.05 990.76 81.78 943.58 0.05 1037.94 0.05"/>
        <polygon class="cls-13" points="1132.3 0.05 1085.13 81.78 1037.94 0.05 1132.3 0.05"/>
        <polygon class="cls-5" points="1226.66 0.06 1179.48 81.78 1132.29 0.06 1226.66 0.06"/>
        <polygon class="cls-5" points="1179.46 81.77 1132.28 163.49 1085.09 81.77 1179.46 81.77"/>
        <polygon class="cls-14" points="990.76 81.77 1037.94 0.04 1085.13 81.77 990.76 81.77"/>
        <polygon class="cls-7" points="1085.11 81.77 1132.29 0.04 1179.47 81.77 1085.11 81.77"/>
        <polygon class="cls-6" points="943.6 163.48 990.78 81.75 1037.97 163.48 943.6 163.48"/>
        <polygon class="cls-6" points="1037.92 163.48 1085.1 81.75 1132.29 163.48 1037.92 163.48"/>
        <polygon class="cls-7" points="1179.45 81.79 1226.63 0.07 1273.82 81.79 1179.45 81.79"/>
        <polygon class="cls-7" points="1132.26 163.49 1179.44 81.76 1226.63 163.49 1132.26 163.49"/>
    </g>
    <g class="cls-20">
        <polygon class="cls-9" points="1368.17 81.81 1320.99 163.53 1273.8 81.81 1368.17 81.81"/>
        <polygon class="cls-9" points="1415.31 0.04 1368.13 81.76 1320.94 0.04 1415.31 0.04"/>
        <polygon class="cls-4" points="1320.98 0.06 1273.8 81.78 1226.61 0.06 1320.98 0.06"/>
        <polygon class="cls-4" points="1273.83 81.78 1226.65 163.5 1179.46 81.78 1273.83 81.78"/>
        <polygon class="cls-10" points="1226.63 163.51 1273.81 81.78 1321 163.51 1226.63 163.51"/>
        <polygon class="cls-10" points="1320.95 163.51 1368.13 81.78 1415.32 163.51 1320.95 163.51"/>
        <polygon class="cls-10" points="1273.79 81.8 1320.96 0.07 1368.15 81.8 1273.79 81.8"/>
        <polygon class="cls-7" points="1179.45 81.79 1226.63 0.07 1273.82 81.79 1179.45 81.79"/>
    </g>
    <g class="cls-21">
        <polygon class="cls-9" points="1415.31 0.04 1368.13 81.76 1320.94 0.04 1415.31 0.04"/>
        <polygon class="cls-4" points="1462.47 81.7 1415.29 163.43 1368.1 81.7 1462.47 81.7"/>
        <polygon class="cls-4" points="1509.65 0.02 1462.47 81.75 1415.28 0.02 1509.65 0.02"/>
        <polygon class="cls-10" points="1320.95 163.51 1368.13 81.78 1415.32 163.51 1320.95 163.51"/>
        <polygon class="cls-10" points="1368.14 81.76 1415.32 0.03 1462.51 81.76 1368.14 81.76"/>
        <polygon class="cls-7" points="1415.27 163.45 1462.45 81.72 1509.64 163.45 1415.27 163.45"/>
    </g>
    <g class="cls-22">
        <polygon class="cls-4" points="1509.65 0.02 1462.47 81.75 1415.28 0.02 1509.65 0.02"/>
        <polygon class="cls-13" points="1651.18 81.72 1604 163.44 1556.82 81.72 1651.18 81.72"/>
        <polygon class="cls-5" points="1604.02 0.02 1556.84 81.74 1509.65 0.02 1604.02 0.02"/>
        <polygon class="cls-5" points="1556.83 81.74 1509.65 163.47 1462.46 81.74 1556.83 81.74"/>
        <polygon class="cls-14" points="1556.84 81.73 1604.02 0 1651.21 81.73 1556.84 81.73"/>
        <polygon class="cls-14" points="1509.66 163.43 1556.84 81.7 1604.03 163.43 1509.66 163.43"/>
        <polygon class="cls-7" points="1462.46 81.75 1509.64 0.03 1556.83 81.75 1462.46 81.75"/>
        <polygon class="cls-7" points="1415.27 163.45 1462.45 81.72 1509.64 163.45 1415.27 163.45"/>
    </g>
</svg>