<?xml version="1.0" encoding="utf-8"?>
<!-- Generator: Adobe Illustrator 21.0.0, SVG Export Plug-In . SVG Version: 6.00 Build 0)  -->
<svg version="1.1"
	 id="svg2" inkscape:version="0.41" sodipodi:docbase="/home/charm/inkscape" sodipodi:docname="moon.svg" sodipodi:version="0.32" xmlns:cc="http://web.resource.org/cc/" xmlns:dc="http://purl.org/dc/elements/1.1/" xmlns:inkscape="http://www.inkscape.org/namespaces/inkscape" xmlns:rdf="http://www.w3.org/1999/02/22-rdf-syntax-ns#" xmlns:sodipodi="http://inkscape.sourceforge.net/DTD/sodipodi-0.dtd" xmlns:svg="http://www.w3.org/2000/svg"
	 xmlns="http://www.w3.org/2000/svg" xmlns:xlink="http://www.w3.org/1999/xlink" x="0px" y="0px" viewBox="0 0 99.3 97.6"
	 style="enable-background:new 0 0 99.3 97.6;" xml:space="preserve">
<style type="text/css">
	.st0{display:none;stroke:#000000;}
	.st1{fill:#5E5E5E;stroke:#000000;}
	.st2{fill:#D2D2D2;}
	.st3{fill:#5E5E5E;}
</style>
<sodipodi:namedview  bordercolor="#666666" borderopacity="1.0" id="base" inkscape:current-layer="layer1" inkscape:cx="329.51608" inkscape:cy="598.47168" inkscape:document-units="px" inkscape:pageopacity="0.0" inkscape:pageshadow="2" inkscape:window-height="883" inkscape:window-width="1226" inkscape:window-x="0" inkscape:window-y="0" inkscape:zoom="0.70000000" pagecolor="#ffffff">
	</sodipodi:namedview>
<g id="layer1" inkscape:groupmode="layer" inkscape:label="Layer 1">
	<g id="g2100">
		
			<path id="path1291" sodipodi:cx="385.71429" sodipodi:cy="482.36218" sodipodi:rx="140.00000" sodipodi:ry="140.00000" sodipodi:type="arc" class="st0" d="
			M99.1,49.4c0,27.6-22.4,50-50,50s-50-22.4-50-50l0,0c0-27.6,22.4-50,50-50S99.1,21.7,99.1,49.4L99.1,49.4z"/>
		
			<path id="path2052" sodipodi:cx="385.71429" sodipodi:cy="482.36218" sodipodi:rx="140.00000" sodipodi:ry="140.00000" sodipodi:type="arc" class="st1" d="
			M98.8,48.8c0,26.7-22,48.3-49.1,48.3S0.5,75.4,0.5,48.8l0,0c0-26.7,22-48.3,49.1-48.3S98.8,22.1,98.8,48.8L98.8,48.8z"/>
		
			<path id="path2058" sodipodi:cx="385.71429" sodipodi:cy="482.36218" sodipodi:rx="140.00000" sodipodi:ry="140.00000" sodipodi:type="arc" class="st2" d="
			M93.6,41c0,20.8-16.9,37.7-37.7,37.7S18.3,61.8,18.3,41l0,0C18.3,20.2,35.2,3.3,56,3.3S93.6,20.2,93.6,41L93.6,41z"/>
		
			<path id="path2060" sodipodi:cx="385.71429" sodipodi:cy="482.36218" sodipodi:rx="140.00000" sodipodi:ry="140.00000" sodipodi:type="arc" class="st2" d="
			M57.9,6.7c3.4,5.5-3.3,15.9-15,23.2s-24,8.8-27.4,3.3l0,0c-3.4-5.5,3.3-15.9,15-23.2S54.4,1.2,57.9,6.7L57.9,6.7z"/>
		
			<path id="path2062" sodipodi:cx="385.71429" sodipodi:cy="482.36218" sodipodi:rx="140.00000" sodipodi:ry="140.00000" sodipodi:type="arc" class="st2" d="
			M51.8,24.9c3.4,5.5-3.3,15.9-15,23.2s-24,8.8-27.4,3.3l0,0c-3.4-5.5,3.3-15.9,15-23.2S48.4,19.4,51.8,24.9L51.8,24.9z"/>
		
			<path id="path2064" sodipodi:cx="385.71429" sodipodi:cy="482.36218" sodipodi:rx="140.00000" sodipodi:ry="140.00000" sodipodi:type="arc" class="st2" d="
			M50.7,38.4c3.4,5.5-3.3,15.9-15,23.2C24,69,11.7,70.4,8.3,64.9l0,0c-3.4-5.5,3.3-15.9,15-23.2S47.2,32.9,50.7,38.4L50.7,38.4z"/>
		
			<path id="path2066" sodipodi:cx="385.71429" sodipodi:cy="482.36218" sodipodi:rx="140.00000" sodipodi:ry="140.00000" sodipodi:type="arc" class="st2" d="
			M61.9,44.2c3.4,5.5-3.3,15.9-15,23.2c-11.7,7.3-24,8.8-27.4,3.3l0,0c-3.4-5.5,3.3-15.9,15-23.2S58.5,38.6,61.9,44.2L61.9,44.2z"/>
		
			<path id="path2068" sodipodi:cx="385.71429" sodipodi:cy="482.36218" sodipodi:rx="140.00000" sodipodi:ry="140.00000" sodipodi:type="arc" class="st2" d="
			M67.7,56c3.4,5.5-3.3,15.9-15,23.2c-11.7,7.3-24,8.8-27.4,3.3l0,0c-3.4-5.5,3.3-15.9,15-23.2S64.2,50.4,67.7,56L67.7,56z"/>
		
			<path id="path2070" sodipodi:cx="385.71429" sodipodi:cy="482.36218" sodipodi:rx="140.00000" sodipodi:ry="140.00000" sodipodi:type="arc" class="st2" d="
			M82.1,56.8c3.4,5.5-3.3,15.9-15,23.2c-11.7,7.3-24,8.8-27.4,3.3l0,0c-3.4-5.5,3.3-15.9,15-23.2S78.6,51.3,82.1,56.8L82.1,56.8z"/>
		
			<path id="path2072" sodipodi:cx="385.71429" sodipodi:cy="482.36218" sodipodi:rx="140.00000" sodipodi:ry="140.00000" sodipodi:type="arc" class="st2" d="
			M69.8,82.8c-2.8,5.8-15.2,5.7-27.6-0.4C29.8,76.3,22,66.7,24.9,60.8l0,0c2.8-5.8,15.2-5.7,27.6,0.4S72.7,76.9,69.8,82.8L69.8,82.8
			z"/>
		
			<path id="path2074" sodipodi:cx="385.71429" sodipodi:cy="482.36218" sodipodi:rx="140.00000" sodipodi:ry="140.00000" sodipodi:type="arc" class="st2" d="
			M80.8,76.7c-2.8,5.8-15.2,5.7-27.6-0.4c-12.4-6.1-20.2-15.7-17.3-21.5l0,0c2.8-5.8,15.2-5.7,27.6,0.4S83.6,70.9,80.8,76.7
			L80.8,76.7z"/>
		
			<path id="path2076" sodipodi:cx="385.71429" sodipodi:cy="482.36218" sodipodi:rx="140.00000" sodipodi:ry="140.00000" sodipodi:type="arc" class="st2" d="
			M87.1,69.2c-2.8,5.8-15.2,5.7-27.6-0.4S39.3,53.2,42.1,47.3l0,0c2.8-5.8,15.2-5.7,27.6,0.4S89.9,63.4,87.1,69.2L87.1,69.2z"/>
		
			<path id="path2078" sodipodi:cx="385.71429" sodipodi:cy="482.36218" sodipodi:rx="140.00000" sodipodi:ry="140.00000" sodipodi:type="arc" class="st2" d="
			M93.4,59.4c-2.8,5.8-15.2,5.7-27.6-0.4S45.6,43.4,48.5,37.5l0,0c2.8-5.8,15.2-5.7,27.6,0.4S96.3,53.6,93.4,59.4L93.4,59.4z"/>
		<path id="path2082" class="st3" d="M25.1,48.1c-1.1,2.8-0.8,6.3,1.1,9.4c2.9,4.8,8.5,6.7,12.4,4.3c3.9-2.4,4.7-8.2,1.8-13
			c-0.8-1.2-1.7-2.3-2.7-3.1c0.3,0.4,0.6,0.8,0.9,1.2c2.3,3.8,1.4,8.6-2.1,10.7c-3.5,2.1-8.1,0.7-10.5-3.1
			C24.9,52.5,24.6,50.2,25.1,48.1z"/>
		<path id="path2087" class="st3" d="M51.5,53.2c-0.3-0.9-0.5-1.9-0.6-2.9c-0.5-5.4,2.4-10,6.3-10.4c4-0.3,7.5,3.7,8,9.1
			c0,0.1,0,0.2,0,0.3c0.3-1.1,0.4-2.2,0.3-3.4c-0.4-5-4.5-8.7-9.1-8.3c-4.6,0.4-8,4.8-7.5,9.8C49.1,49.7,50.1,51.7,51.5,53.2z"/>
		<path id="path2092" class="st3" d="M54.4,69.7c-0.1,0.6-0.3,1.2-0.5,1.8c-1.4,3.1-4.5,4.7-6.8,3.6c-2.4-1.1-3.1-4.5-1.7-7.6
			c0-0.1,0.1-0.1,0.1-0.2c-0.5,0.5-0.9,1.1-1.2,1.8c-1.3,2.9-0.1,6.2,2.6,7.5c2.7,1.3,6,0,7.3-2.9C54.7,72.4,54.8,71,54.4,69.7z"/>
		<path id="path2094" class="st3" d="M78.4,41.3c0.5-0.2,0.9-0.3,1.4-0.3c2.6-0.1,4.6,2.2,4.5,5.1c-0.1,2.9-2.3,5.4-4.9,5.5
			c-0.1,0-0.1,0-0.2,0c0.5,0.3,1,0.4,1.6,0.4c2.4-0.1,4.5-2.9,4.6-6.3c0.1-3.4-1.7-6.1-4.1-6C80.2,39.7,79.2,40.3,78.4,41.3z"/>
		<path id="path2096" class="st3" d="M51,12.4c-0.3-0.8-0.5-1.6-0.4-2.4c0.3-4.2,6.1-6.2,12.7-4.5S75.1,11.9,74.8,16
			c0,0.1-0.1,0.2-0.1,0.2c0.7-0.6,1.2-1.4,1.2-2.3c0.3-3.8-5.7-8.5-13.5-10.4S48.1,3.1,47.8,7C47.7,8.7,48.9,10.6,51,12.4z"/>
		<path id="path2098" class="st3" d="M37.1,13.8c0.6,0.7,1.2,1.5,1.7,2.4c2.6,4.7,1.8,10.1-1.7,12c-3.5,1.9-8.4-0.4-11-5.2
			c-0.1-0.1-0.1-0.2-0.1-0.3c0.2,1.1,0.5,2.2,1.1,3.2c2.4,4.4,7.6,6.2,11.7,4c4-2.2,5.4-7.6,3-12C40.7,16,39,14.6,37.1,13.8z"/>
	</g>
</g>
</svg>
