<?xml version="1.0" encoding="utf-8"?>
<!-- Generator: Adobe Illustrator 21.0.0, SVG Export Plug-In . SVG Version: 6.00 Build 0)  -->
<svg version="1.1" id="Слой_1" xmlns="http://www.w3.org/2000/svg" xmlns:xlink="http://www.w3.org/1999/xlink" x="0px" y="0px"
	 viewBox="0 0 100 98.7" style="enable-background:new 0 0 100 98.7;" xml:space="preserve">
<style type="text/css">
	.st0{opacity:0.25;}
	.st1{fill:none;}
	.st2{fill:#D1D1D2;}
	.st3{fill:url(#path31281_1_);}
	.st4{fill:url(#path30545_1_);}
	.st5{fill:#B3B3B5;}
	.st6{fill:#FBFBFC;}
	.st7{fill:url(#path29809_1_);}
	.st8{fill:url(#path2096_1_);}
	.st9{fill:url(#path1512_1_);}
	.st10{fill:#E5E5E6;}
	.st11{fill:url(#path2127_1_);}
	.st12{fill:#504F55;}
	.st13{fill:url(#path2133_1_);}
	.st14{fill:#4F4F4F;}
	.st15{fill:#4D4D53;}
	.st16{fill:#5D5C63;}
	.st17{fill:#5F5E64;}
	.st18{fill:#69686F;}
	.st19{fill:#56555B;}
	.st20{fill:#6B6A71;}
	.st21{fill:#A8A7AA;}
	.st22{fill:#959595;stroke:#B9B9B9;stroke-width:2.1183;}
	.st23{fill:#A7A7A7;stroke:#CACACA;stroke-width:1.6096;}
	.st24{fill:#959595;stroke:#B9B9B9;stroke-width:3.8944;}
	.st25{fill:#CACACA;}
	.st26{fill:#CDCDCD;}
	.st27{fill:#E7E6E8;stroke:#A9A9A9;stroke-width:3.6222;}
	.st28{fill:#ECECED;}
	.st29{fill:url(#path18151_1_);}
	.st30{fill:url(#path18141_1_);}
	.st31{fill:#E3E3E3;fill-opacity:0.4464;}
	.st32{fill:#54535A;}
	.st33{fill:#E7E6E8;stroke:#A9A9A9;stroke-width:4.12;}
	.st34{opacity:0.658;fill:#959595;stroke:#B9B9B9;stroke-width:3.8944;enable-background:new    ;}
	.st35{fill:#94939A;fill-opacity:0.6548;}
	.st36{fill:#98989E;}
	.st37{fill:#E7E6E8;}
	.st38{opacity:0.5959;fill:url(#path16675_1_);enable-background:new    ;}
	.st39{opacity:0.8497;fill:#FFFFFF;enable-background:new    ;}
	.st40{fill:#A8A7AA;fill-opacity:0.8671;}
	.st41{fill:#B9B8BA;}
	.st42{fill:#F3F3F4;}
	.st43{fill:#CDCDCD;fill-opacity:0.4345;}
</style>
<g>
	<title>Layer 1</title>
	<g id="g3372" class="st0">
		<title>light moon</title>
		<g id="g2563">
			<path id="path2084" class="st1" d="M38.3,14c-0.2-0.2-0.5-0.3-0.7-0.5c-0.4-0.3-1-0.4-1.4-0.5c-0.4-0.1-1,0-1.5,0
				c-0.6,0-0.8,0.2-1.2,0.3c-0.3,0.1-0.7,0.4-0.9,0.6c-0.3,0.3-0.5,0.5-0.6,0.9c-0.1,0.5-0.2,0.7-0.2,1.3c0,0.4,0.3,0.5,0.7,0.6
				c0.6,0.2-0.1,0.8-0.2,0.9c-0.3,0.2-0.7-0.6-0.8-0.7c-0.3-0.3-0.5,0.6-0.6,0.7c-0.2,0.3-0.8,0.1-1.1,0.4c-0.2,0.2,0,1.1-0.1,1.3
				c-0.1,0.3-0.7,0.4-0.9,0.6c-0.3,0.3-0.5,0.4-0.8,0.7c-0.3,0.3-0.5,0.6-0.7,0.8c-0.4,0.4-0.4,0.1-0.4-0.5c0-0.7,0.5-0.5,0-1
				c-0.2-0.2-0.9,0.4-1,0.5c-0.3,0.3-0.9,0-1.1-0.2c-0.3-0.3-0.3-0.6-0.3-1.2c0-0.3,0.3-0.8,0.4-1.1c0.1-0.5,0.2-0.7,0.4-1.1
				c0.2-0.4,0-0.5,0.4-0.9c0.4-0.4,0.6-0.1,0.9-0.6c0,0-0.3-0.9-0.2-1.1c0.1-0.4,0.3-0.7,0.4-1.1c0.1-0.6,0.4-0.9,0.9-0.4
				c0.4,0.4,0.6,0.2,1.1,0.1c0.5-0.1,0.8-0.3,1.2-0.4c0.4-0.1,0.7-0.3,1.1-0.4c0.3-0.1,0.6-0.5,0.8-0.7c0.3-0.3,1.2-0.1,1.5-0.2
				c0.5-0.1,0.5-0.5,0.4-0.9c-0.1-0.4,0.8-0.1,1.2,0.1c0.1,0,0.9-0.5,1-0.5c0.4-0.1,0.7-0.3,1-0.5c0.4-0.2,0.7-0.3,1.1-0.4
				c0.6-0.2-0.6-0.7-0.6-0.7C37,8.1,36.8,8,36.3,7.8c-0.4-0.1-1-0.1-1.3-0.2c-0.3-0.1-0.9,0.2-1.2,0.3c-0.4,0.1-1,0-1.5,0
				c-0.3,0-0.5,0.6-0.7,0.8c-0.2,0.2-1,0.1-1.4,0.1c-0.7,0-0.7,0.2-0.8,0.7c-0.1,0.6-0.4,0.5-0.9,0.6c-0.6,0.1-0.8,0.1-1.2,0.3
				c-0.5,0.2-0.7,0.2-1,0.1c-0.4-0.1-0.7-0.5-0.8-0.8c-0.3-0.5,0.3-0.8,0.5-1c0.6-0.6-0.1-0.8-0.8-0.8c-0.2,0-0.9,0.5-1,0.6
				c-0.4,0.3-0.6,0.3-0.9,0.6c-0.3,0.3-0.6,0.3-0.9,0.6c-0.2,0.2-0.5,0.7-0.6,0.9c-0.1,0.1-1,0.4-1.1,0.4c-0.3,0.2-0.6,0.5-0.8,0.7
				c-0.3,0.3-0.6,0.5-0.8,0.8c-0.2,0.3-0.8,0.4-1,0.5c-0.4,0.2-0.6,0.4-0.9,0.6c-0.4,0.2-0.6,0.4-0.9,0.6c-0.3,0.2-0.5,0.6-0.7,0.8
				c-0.3,0.3,1,0.3,1,0.3c0,0-0.6,0.7-0.7,0.8c-0.3,0.3-0.5,0.4-0.8,0.7c-0.3,0.3-0.4,0.5-0.7,0.8c-0.2,0.2-0.5-0.2-0.7-0.4
				C13.6,17.1,13,18,13,18c-0.2,0.4-0.4,0.5-0.6,0.9c-0.2,0.3-0.6,0.5-0.8,0.7c-0.3,0.3,0.6,0.6,0.6,0.6c0.2,0.1-0.9,0.7-0.9,0.7
				c-0.5,0.3-0.5,0.4-0.3-0.2c0,0-1,0.4-1.1,0.4c-0.5,0.2-0.6,0.4-0.8,0.8c-0.2,0.4,0.2,0.5,0.1,1c-0.1,0.2-0.6,0.6-0.8,0.8
				c-0.5,0.5-1,1.3-1.3,1.6c-0.2,0.2-0.4,0.8-0.5,1c-0.2,0.4-0.5,0.4-0.6,0.9c0,0.1,0.2,0.3,0.3,0.3c0.1,0,0.1,0.4,0.2,0.4
				C6.7,27.9,7,27.2,7.1,27c0.2-0.4,0.3-0.6,0.6-0.9c0.3-0.3,0.4-0.5,0.7-0.8c0.3-0.3,0.6-0.5,0.9-0.6c0.4-0.2,0.4,0.5,0.5,0.8
				c0.2,0.7-0.6,0.2-0.8,0.1c0,0-0.5,0.6-0.6,0.7c-0.3,0.3-0.5,0.6-0.7,0.8c-0.3,0.3-0.5,0.4-0.7,0.8c-0.6,1.2-1.2,0.8-1.4,1.7
				c-0.2,0.7,0.7-0.1,0.8-0.2c0.3-0.3,0.4-0.5,0.7-0.8C7.5,28.3,7.8,28.7,8,28c0.1-0.6,0.1-0.7,0.6-0.9c0.3-0.1,0.5,0.4,0.8,0.4
				c0.3,0-0.5,0.8-0.5,0.8c-0.1,0.1,0,1.3,0,1.5c0,0-0.6-0.4-0.6-0.9c0-0.7-0.5,0.5-0.5,0.6c-0.1,0.3-0.5,0.7-0.6,0.9
				c-0.2,0.4-0.3,0.7-0.6,1C6.1,32,6.3,31,6.5,30.8c0.2-0.2,0.3-0.8,0.4-1.1c0.2-0.8-0.6-0.1-0.7,0c-0.3,0.3-0.3,0.6-0.6,0.9
				c-0.2,0.2-0.3,0.9-0.4,1.1c-0.1,0.4-0.3,0.6-0.3,1.2c0,0.7,0.3,0.6,0.8,0.5c0.8-0.2,0.6,0.4,0.5,0.8c-0.1,0.4-0.4,0.7-0.7,0.8
				c-0.4,0.2-0.1-1.2-0.5-1.1c-0.2,0.1-0.4,0.8-0.5,1c-0.2,0.4-0.3,0.6-0.4,1.1C4,36.5,3.9,36.8,4,37.3C4.1,37.8,4.1,38,4.8,38
				c0.3,0,0.4-0.8,0.4-1.1c0-0.8,0.1,0.5,0.1,0.8c0,0.6-0.1,0.5-0.6,0.8c-0.5,0.3-0.5,0.7-0.5,1c0,0.4,0.6-0.3,0.9-0.6
				c0.3-0.3,0.6-0.5,0.9-0.6c0.4-0.2,0.4,0.1,0.7,0.4C7.1,39,6.8,39,6.3,39.2c-0.4,0.1-0.6,0.3-1.1,0.4c-0.7,0.2-0.8,0.1-0.4,0.5
				c0.1,0.1,1-0.3,1.2-0.3c0.7-0.2,0.7,0.3,0.8,0.7c0.1,0.5,0.5,0.4-0.3,0.6c-0.3,0.1,0.6,0.4,0.8,0.7c0.4,0.4,0.4,0.5,0.5,1
				c0.1,0.4-0.6-0.2-0.7-0.5c-0.2-0.6-0.8-0.3-1-0.2c-0.2,0.1,0.2,1.3,0.2,1.3c0,0.2,0.6,0.7,0.7,0.8c0.4,0.4,0.6,0.3,0.5,0.8
				c0,0.1-0.8,0.1-0.9,0.6c0,0.1,0.4,0.7,0.4,1.1c0,0.5-0.5,0.4-0.5,1c0,0.7,0.1,0.9-0.3,1.3c-0.3,0.3-0.6,0.3-0.7,0.8
				c-0.1,0.3-0.1,0.1-0.2,0.3c0.2,0.1,0.3,0.3,0.5,0.4c0.5,0.4,0.5,0.2,0.8,0.7c0.3,0.5,0.9-0.4,0.9-0.4c0.4-0.4,0.7-0.1,0.8,0.3
				c0.1,0.4,0,1.1,0.1,1.4c0.1,0.5,0.7-0.1,0.7,0.8c0,0.1,0.8,0,0.8,0.7c0,0.5,0.1,0.8,0.1,1.4c0,0.1,0.6,0.7,0.7,0.8
				c0.4,0.4-0.2,0.8-0.4,0.9c-0.3,0.2,0,1.1,0.1,1.2c0.2,0.5,0.4,0.7,0.5,1.1c0.1,0.2,0.8,0.5,0.9,0.6c0.3,0.2,0.9,0.1,1.4,0.1
				c0.5,0,0.1-0.9,0-1.1c-0.1-0.3,0.3-0.9,0.3-1c0.1-0.5,0.2-0.4,0.1-1c0-0.1,0.8,0.7,0.8,0.7c0.3,0.3,0.5-0.1,0.5,0.8
				c0,0.2,0.3,0.8,0.4,1.1c0.2,0.6-0.2,0.5-0.5,0.8c-0.6,0.6,0.3,0.5,0.5,0.4c0.4-0.2,0.8-0.2,1.2-0.1c0.7,0.2,0.4-0.6,0.3-0.8
				c-0.2-0.4-0.4-0.6-0.5-1c-0.1-0.5-0.3-0.6-0.2-1.1c0-0.1,0.7,0.7,0.8,0.8c0.2,0.3,0.5,0.6,0.7,0.8c0.2,0.2,0.9-0.2,0.9-0.2
				c0.1,0,0.8,0.4,1,0.5c0.5,0.1,0.6-0.1,0.8-0.5c0.2-0.5,0.3-0.6,0.6-0.9c0.4-0.4,0.9,1,1,1.2c0.3,0.4,0.5,0.5,0.7,1.1
				c0,0.2,0.7,0.6,0.8,0.7c0.5,0.5,0.4,0.2,0.3,0.6c0,0.1-0.6,0.1-0.7,0.6c-0.1,0.2,0.4,0.8,0.5,1c0.1,0.4,0.1,0.9,0,1.3
				c-0.1,0.4-0.6,0.7-0.8,0.8c-0.6,0.3-0.6,0.1-1-0.1c-0.4-0.2-0.7-0.4-1.2-0.4c-0.3,0-0.6,0.6-0.7,0.8c-0.2,0.5,0.1,0.8-0.5,1
				c-0.4,0.1-0.5,0.6-0.6,0.9c-0.1,0.6,0.2,0.8,0.3,1.2c0.1,0.2,0.7,0.5,0.9,0.6c0.4,0.2,0.7,0.5,0.9,0.7c0.5,0.5-0.4,0.1-0.6-0.1
				c-0.5-0.5-0.6,0-0.4,0.4c0.2,0.4,0.3,0.7,0.5,1c0.2,0.4,0.4,0.6,0.5,1c0.1,0.3,0.6,0.7,0.8,0.9c0.3,0.3,0-0.8,0.1-1.2
				c0.1,0,0.3,0.1,0.4,0.1c0.6,0.2,0.6-0.2,0.9,0.4c0.2,0.3,0.6,0.5,0.8,0.7c0.3,0.3-0.1,0.9,0,1.3c0.1,0.4,0.5,0.3,0.5,1.1
				c0,0.7,0.5,0,0.6-0.3c0.1-0.4-0.3-0.6-0.2-1.1c0.1-0.4,0.5,0.8,0.8,1.1c0.2,0.2,0.5-0.5,0.9-0.1c0.5,0.5-0.9,0.4-1.1,0.4
				c-0.5,0,0.2,0.5,0.6,0.5c0.6,0,0.7-0.1,0.9,0.4c0.2,0.5,0.1-0.7,0.1-0.9c0-0.1,0.4-0.6,0.3-1c0,0-1.1-0.2-1.1-0.2
				c-0.7-0.3-0.9-0.4-0.7-1c0.1-0.4,0.8,0.5,1.2,0.6c0.3,0.1,0.4,0.2,0.7,0.2c0.4,0,0.1-0.8,0.3-1.2c0.2-0.3,0.5,0.6,0.8,0.8
				c0.4,0.2,0-0.8-0.1-1.2c-0.1-0.4-0.4-0.5-0.5-1c-0.2-0.8,0.3-0.6,0.5-0.2c0.3,0.6,0.6,0.1,0.8-0.1c0.2-0.2,0.7,0.7,0.8,0.8
				c0.3,0.3,0.5,0.4,0.9,0.6c0.4,0.2,0.4-0.5,0.5-0.8c0.1-0.3-0.7-0.6-0.9-0.7c-0.3-0.2-0.6-0.5-0.7-0.8c-0.2-0.4,0.3-0.9-0.4-0.9
				c-0.4,0,0-0.4-0.7-0.6c-0.5-0.1-0.5,0.5-1,0c-0.3-0.3-0.2-0.9-0.2-1.3c0-0.6-0.1-0.9-0.2-1.4c-0.2-0.8,0.5-0.7,0.9-0.8
				c0.1,0,0.4-0.6,0.8-0.7c0.5-0.1,0.5-0.4,1.1-0.4c0.3,0,0.5,0.7,1.1,0.7c0.7,0,0.6-0.3,0.5-0.6c0-0.1-0.7-0.6-0.8-0.7
				c-0.5-0.5,0-0.4,0.3-0.2c0.6,0.3,0.1-0.6,0-0.7c-0.3-0.6,0-0.9,0.3-0.3c0.4,0.7,0.5-0.1,0.5-0.5c0-0.6,0.3-0.6,0.9-0.6
				c0.6,0,0.8-0.1,1.1-0.4c0.4-0.4,0.7-0.3,1-0.1c0.5,0.3-0.4,0.9-0.4,0.9c-0.3,0.3-0.2,0.8-0.1,1.2c0.1,0.5,0.3,0.7,0.3,1.3
				c0,0.4-0.8-0.2-1.1,0c-0.5,0.2,0.3,0.8-0.4,0.1c-0.6-0.6-0.4,0-0.1,0.3c0.4,0.4-0.4,0.9-0.5,1c-0.2,0.2-0.1,1.1-0.2,1.4
				c-0.1,0.2-1.2,0.1-1.4,0.1c-0.2,0,0.2-0.4,0.2-0.9c0-0.3-0.9-0.3-1.2-0.3c-0.6,0,0.1,0.9,0.1,1c0.1,0.1,0.2,0.3,0.3,0.4
				c0.2,0.3-0.5,0.5-0.7,0.8c-0.1,0.2-0.4-0.4-0.6-0.4c-0.1,0-0.1,0.4-0.2,0.4c-0.6-0.1-1.1,0.1-0.4,0.3c0.5,0.1,0.6,0.3,1.1,0.4
				c0.4,0.1,0.7,0.4,0.8,0.7c0.3,0.5,0,0.9,0.7,0.9c0.5,0,0.1,0.3,0.6,0.6c0.4,0.2,0.7,0.7,0,0.3c-0.3-0.1,0.6,0.8,0.3,0.9
				c-0.6,0.2-0.5,0.4-0.2,0.7c0.4,0.4,0.6,0.2-0.3,0.2c-0.6,0-0.8,0.2-1.1,0.4c-0.3,0.2-0.3,0.8-0.3,1.2c0,0.7-0.6,0.4-0.8,0.2
				c-0.4-0.4-0.6-0.4-0.4,0.1c0.2,0.4,0,0.6-0.1,0.8c-0.2,0.4,0.5,0.7,0.5,1.1c0,0.7,0.1,0.7,0.8,0.7c0.5,0,1,0,1.5,0
				c0.4,0,0.2-0.6,0.6-0.8c0.5-0.3,0.5-0.1-0.2-0.3c-0.4-0.1,0.3-0.6,0.7-0.6c0.6,0,1,0,1.3,0.3c0.3,0.3-0.9,0.1-1,0.5
				c-0.1,0.3,0.7,0.5,0.9,0.6c0.6,0.2-0.1-1,1.4-0.7c0.1,0,0.6-0.8,0.7-0.9c0.5-0.5-0.3-0.6-0.7-0.6c-0.6,0-0.4,0.3-1.1,0.3
				c-0.1,0-0.9-0.5-1-0.6C32.9,75,32.3,75,32,74.9c-0.3-0.2,0.7-0.2,1-0.5c0.2-0.2-0.1-0.5,0-0.7c0.1-0.3,0.5,0.4,0.8,0.3
				c0.6-0.3-0.8-0.6-0.9-0.6c-0.4,0,0.8-0.2,1.2-0.1c0.4,0.1,0.6,0.4,1,0.5c0.5,0.1,0.6,0.2,0.4-0.5c-0.2-0.7,0-0.7-0.4-1.1
				c-0.3-0.3-0.2-0.8-0.2-1.3c0-0.5-0.5-0.6-1-0.6c-0.7,0-0.8-0.1-0.2-0.3c0.6-0.1,0.8-0.1,1.1,0.2c0.2,0.2,0.4,0.7,0.5,1
				c0.1,0.4,0.4,0.6,0.5,1c0.1,0.5,0.1,0.9,0.2,1.3c0.1,0.4,0.8,0.1,1.1,0.4c0.5,0.5,0.6,1.3,1.2,0.7c0.1-0.1,0.5,0.4,0.8,0.6
				c0.5,0.3,0.8,0.4,1.3,0.3c0.3-0.1-0.8-0.9-0.9-0.9c0,0,0.5-0.8,0.6-0.9c0.3-0.3,0.5-0.3,1.2-0.3c0.6,0,0.9,0,1.4,0
				c0.3,0-0.4,0.1-0.7,0.2c-0.4,0.1-0.6,0.4-0.6,0.9c0,0.4,0.4,0.6,0.7,0.9c0.3,0.3,0.7,0.4,1.2,0.4c0.3,0,0.6-0.5,0.7-0.8
				c0.1-0.6,0.1-0.8-0.2-1.1c-0.5-0.5-0.5-0.4-0.5-0.5c-0.1-0.1,1.2-0.5,1.5,0.2"/>
			<path id="path1350" marker-start="none" marker-mid="none" marker-end="none" class="st2" d="M100,49.4c0,27.2-22.4,49.3-50,49.3
				S0,76.6,0,49.4C0,22.2,22.4,0.1,50,0.1S100,22.2,100,49.4z"/>
			
				<linearGradient id="path31281_1_" gradientUnits="userSpaceOnUse" x1="-340.3238" y1="339.2213" x2="-340.3968" y2="339.3167" gradientTransform="matrix(254.0019 0 0 -423.4507 86465.5234 143717.3438)">
				<stop  offset="0" style="stop-color:#ADADB0"/>
				<stop  offset="1" style="stop-color:#B7B7B9;stop-opacity:0.3878"/>
			</linearGradient>
			<path id="path31281" marker-start="none" marker-mid="none" marker-end="none" class="st3" d="M3.1,66.6
				c-3.9-11.2-4.7-23.8,1.3-37.5c0.3-0.6,1,1.4,1,2c0,0.9,0,1.8,0,2.7c0,1.2,0.2,1.4,0.5,2.2c0.3,0.6,0.6,1.2,0.9,1.8
				c0.4,0.7,0.3,1.1,0.5,2.2c0.2,0.6,0.3,1.8,0.7,2.5c0.5,1,0.6,2.1,1.1,3.1c0.4,0.9,1,2,1.3,3.1c0.3,1,0.8,2.1,1.3,3.1
				c0.4,0.8,0.5,1.8,1.1,2.3c0.5,0.5,0.9,0.9,1.8,1.1c1.1,0.3,2.9,0.5,4,1.1c0.7,0.4,1.8,0.5,2.5,0.9c0.5,0.3,1,0.8,1.6,1.1
				c0.9,0.5,1.4,0.8,2,1.4C25,60,26,60.9,26,61.5c0,0.9,0,1.8,0,2.7c0,0.4-0.3,2.4,0,2.7c0.4,0.4,0.7,1.4,1.6,0.9
				c0.6-0.3,1.1-0.5,1.6-1.1c0.3-0.3,0.9-1.3,1.6-1.1c0.4,0.1,1.1,0.2,1.6,0.7c0.5,0.5,0.9,0.7,1.4,1.3c0.3,0.3,0.9,1,1.4,1.3
				c0.3,0.1,1.5,0.7,1.6,1.1c0.2,0.6,0.4,1.6-0.5,1.8c-0.8,0.2-1.2,0.3-2,0.7c-0.4,0.2-1.2,0.8-1.8,0.9c-1,0.2-1.4,0.3-1.8,1.1
				c-0.3,0.6-0.7,0.9-1.3,1.4c-0.4,0.4-1.1,0.8-0.4,1.6c0.4,0.4,0.8,1,1.4,1.3c0.7,0.4,1.3,0.7,2,1.1c0.5,0.2,1.4,0.5,1.8,0.9
				c0.8,0.8,0.5,0.8-0.5,0.5c-0.8-0.2-1.5-0.5-2.2-0.7c-0.8-0.2-1.5-0.2-2.5-0.2c-1,0-1.7-0.2-2.7-0.2c-1.1,0-2-0.2-3.1-0.2
				c-0.5,0-2.3,0.1-1.6,1.1C22.5,82,22.7,82,24,82c0.9,0,1.6,0,2.2,0.5c0.5,0.5,0.8,1,1.1,1.6c0.4,0.8,0.9,1.4,1.3,2.2
				c0.4,0.9,0.7,1.2,1.4,2c0.5,0.5,1.4,0.8,2.3,0.5c0.6-0.2,2.3-0.8,2.5-0.4c-0.3-0.6-0.4,1.5-0.9,2c-0.6,0.6-1.4,0.3-2,0
				c-0.6-0.3-1.4-0.4-2-0.7c-0.7-0.4-1.1-0.7-1.8-1.1c-1.1-0.5-0.9-0.6-0.7-1.3c0.3-1.2-0.1-0.7-1.3-0.7c-1,0-1.7,0.2-2.3,0.4
				c-1.2,0.3-0.5,0.8,0,1.3c1,1-0.5,0-0.9-0.2c-0.6-0.3-1.2-0.9-1.6-1.3c-0.6-0.6-1.2-0.9-1.8-1.4c-0.5-0.5-1.1-0.8-1.6-1.1
				c-0.7-0.3-1-0.8-1.4-1.3c-0.4-0.4,0.7-0.6,0.7-1.6c0-1.3-0.1-1.4-0.7-2c-0.5-0.5-0.2,1.5-0.7,2c-0.1,0.1-1.7-0.9-1.8-0.9
				c-0.7-0.3-1.1-0.6-1.6-1.1c-0.5-0.5-0.7-1.3-1.1-1.8c-0.5-0.6-0.7-1.1-1.4-1.3c-0.4-0.1-1-1.2-1.3-1.4c-0.6-0.6-0.8-1-1.3-1.4
				c-0.6-0.6-0.2-1.5,0-2c0.3-0.6,0.9-1,1.3-1.4c0,0-1.6,0.5-1.8,0.5c-1,0.3-0.9-0.4-1.4-0.9c-0.4-0.4-0.4-1.5-0.4-2.3
				C4.9,66.8,3.6,66.7,3.1,66.6z"/>
			
				<linearGradient id="path30545_1_" gradientUnits="userSpaceOnUse" x1="-341.4607" y1="339.3456" x2="-341.575" y2="339.4844" gradientTransform="matrix(275.6386 0 0 -389.4458 94200.3672 132241.2813)">
				<stop  offset="0" style="stop-color:#ADADB0"/>
				<stop  offset="1" style="stop-color:#B7B7B9;stop-opacity:0.3878"/>
			</linearGradient>
			<path id="path30545" marker-start="none" marker-mid="none" marker-end="none" class="st4" d="M82.9,70.1c-1.9,1.7-0.3,4.4,1.6,5
				c-0.3,2.7-3.4,2.1-4.9,3.7c-0.8,1.5,4.9,0.3,2,1.9c-1.5,0.2-3.4,5.8-1.7,3c1.8-0.3,3.2-3.2,5-1.8c1.5-0.6,1.7,0.1,0.4,0.9
				c-1.3,1.1-2.2,3.9-3.8,2.7c-1.2,1.8-3.7,2.7-5.8,2.8c-1.6,0.3,1,2.7-1.4,2.9c-2.4,1.2-0.4-2.9,0.9-3c0-1.8,1.1-2.7,2.9-2.5
				c1.8-2.7,1-3.4-0.6-1.6c-1.5,1.5-3.8,2.2-5.8,2.1c-0.8-1.9-3.1-0.9-4.2-1.7c2-2.1,5.1-2.2,7.5-3.8c1.4-0.6,3.7-0.4,2.9-2.5
				c0.6-1.3,3.3-1.3,3.5-2.2c-1.2-0.2-2.1-0.1-2.2-1.1c-2,0.4-2.2,2.1-2,3.7c-1.1,2-3.7,1.1-5.4,2.1c-2.2,0.4-4.7,0.7-6.7-0.4
				c-1.5-0.7-3.9,1.4-4.7,0.7c1.4-1.6,3.7-1,5.4-2c1.8-1.1,4.9-3.6,4-5.8c-2.7-0.6-3.8,3.2-5.4,4.2c-1.3-0.5-2.2-1.4-3.7-0.9
				c0.2-1.3,0.1-2.5-1.8-2.6c-2.4,0.8-4.6-1.9-2-3.4c0.2-1.7-2.8,0.2-3.6,0.6C50,72.2,52.2,68,53.2,67c0.1-2,1-4.4-0.1-6.3
				c-1.4-0.6-3.9-3.5-1.2-4c2.2,1,5.4-0.3,3.8-3c-0.4-1.3-1.9-4.4,0.4-4.3c0.6-1.3-1.2-3.5,1.2-4.1c1.3-1.6,2.5-3.1,4.6-3.6
				c2.2-1.4,3.7-3.4,4.7-5.8c0.6-2.9,4.2-0.8,6.2-0.7c1.4,1,0.4,3.9,0.1,5.5c-0.7,2-0.6,4.2-0.2,6.2c0.9,2.1,3,3.4,4.2,5.3
				c1,2.1-0.3,5.3,1.8,6.7c1.7,1.8,3,5.9,3.9,8.1c0.3,0.3,3.9,0.9,5.2-0.9c1.5,0.6,2.5,1.9,2.4,2.1c-0.4,0.4,1.7,2.2-0.2,3
				c-0.9,0.4-1.4-1.3-2.2-1.8c-0.8-0.5-2.1,0.3-2.5,0.3C84,69.9,83.1,69.7,82.9,70.1z"/>
			<path id="path25450" marker-start="none" marker-mid="none" marker-end="none" class="st5" d="M61,42.7c-1.2,0.7-0.8,2.3-1,3.4
				c-0.4,1.2-1.8,1.5-2.9,1.7c-1.3,0.2-2.3,1.4-3.6,1.2c-1.2-0.1-2.5,0.2-3.5-0.7c-8.8-9.7-4.3-17.3-3.5-19.3
				c-3.7-7,22.7-4.4,19.6,4.5c0.3,1,0.1,2.1,0,3.1c-0.6,0.9-1.7,1.4-1.7,2.5C64,40.4,61.4,42.5,61,42.7z"/>
			<path id="path30547" marker-start="none" marker-mid="none" marker-end="none" class="st6" d="M71.6,36.6
				c-0.2,0.2-0.6,0.2-0.9,0.3c-0.6,0.1-1.2,0.2-1.7,0.2c-0.7-0.2-1.1-0.8-1.7-1.1c-0.4-0.2-0.8,0.2-0.8,0.6c0,0.3-0.2,0.9,0.2,1.1
				c0.6,0.3,1.2,0.3,1.8,0.5c0.4,0.2,0.1,0.7-0.2,0.9c-0.3,0.3-0.6,0.6-0.9,0.7c-0.4,0.1-0.8,0.3-0.8,0.7c0,0.4,0.4,0.7,0.2,1
				c-0.4,0.6-1.1,0.8-1.4,1.5c-0.1,0.3,0.1,0.5,0.3,0.2c0.2-0.3,0.4-0.7,0.7-0.8c0.4-0.2,0.9-0.4,1.4-0.5c0.3-0.2,0.3-0.6,0.4-1
				c0.1-0.4,0.1-0.9,0.2-1.3c0.2-0.5,0.8-0.5,1.2-0.9c0.4-0.4,0.8-0.9,1.3-1.2c0.3-0.1,0.7-0.2,0.7-0.6
				C71.5,36.9,71.6,36.7,71.6,36.6z"/>
			
				<linearGradient id="path29809_1_" gradientUnits="userSpaceOnUse" x1="-341.1037" y1="339.5112" x2="-341.2382" y2="339.574" gradientTransform="matrix(258.2896 0 0 -151.3117 88175.6875 51385.7813)">
				<stop  offset="0" style="stop-color:#ADADB0"/>
				<stop  offset="1" style="stop-color:#B7B7B9;stop-opacity:0.3878"/>
			</linearGradient>
			<path id="path29809" marker-start="none" marker-mid="none" marker-end="none" class="st7" d="M73.1,22.1c0.7-1.4,1-2.1,0-3.1
				c-1-1-2.3,0.7-2.3-1.5c0-0.9,1.3-1.4,1.5-2.3c0.2-0.9-0.7-2.4-1-3.1c-0.6-1.3-0.7-1.4-1.5-2.3C68.7,8.8,70,5.7,70.7,5
				c0.5-0.5-13.5-7.5-32.1-2.7c-0.2,0-1.2,3.3-1.4,3.4c-0.9,0.9-1.3,1-1,2.3c0,0.1,4.5-0.5,4.9-0.5c1.3,0,1.5,0.6,2.8,0.5
				c5.8-0.5,24.3,3.2,26,3.8c1.3,0.5,0.9,1.5,0.5,2.3c-0.2,0.5-2,1.2-2.3,1.5c-0.2,0.2,0.9,1.6,0.5,2.3c-0.5,1-1.1,1.2,0,2.3
				c0.8,0.8,1,1.5,1.8,2.3C70.7,23,72.9,22.1,73.1,22.1z"/>
			
				<radialGradient id="path2096_1_" cx="-29.4081" cy="266.7305" r="33.5782" gradientTransform="matrix(0.9587 9.901272e-02 0.1722 -1.6672 -8.0776 485.2395)" gradientUnits="userSpaceOnUse">
				<stop  offset="0" style="stop-color:#7D7D7F"/>
				<stop  offset="1" style="stop-color:#515056"/>
			</radialGradient>
			<path id="path2096" class="st8" d="M45.6,36.1c0,0.1,1.3-0.3,1.5-0.4c0.6-0.2,1-0.4,1.4-0.6c0.9-0.4,0.3-0.3,0.9-0.3
				c0.6,0,0.9-0.2,1.1-0.8c0.2-0.4,0.6-0.7,0.9-1c0.3-0.3,0.6-0.4,1.1-0.5c0.7-0.2,1-0.1,1.4-0.5c0.6-0.6-1.2-0.5-1.4-0.5
				c-0.8,0-1,0.2-0.8-0.6c0,0-1.6-0.3-1.7-0.3c-0.5-0.1-0.9-0.7-1.3-0.9c-0.5-0.3-0.9-0.5-1.4-0.6c-0.6-0.2-0.7-0.8-0.8-1.3
				c-0.2-0.7,0.4-1,0.8-1.3c0.5-0.4,0.7-0.3,1.4-0.5c0.7-0.2,1.2,0.1,1.5,0.4c0.4,0.4,1,0.4,1.5,0.5c0.4,0.1,0.2,0.8,1.1,0.8
				c1,0,1.1,0.2,1.3,0.4c0.2,0.2-2.7,1.1-0.4,1.1c0.6,0,0.5,0.8,1.4,0.8c0.6,0,0.9-0.4,1.4-0.5c0.3-0.1,0.6-1,0.6-1.3
				c0.1-0.5,0.5-0.8,0.6-1.3c0.1-0.6,0.4-0.9,0.5-1.4c0.1-0.6,0.5-0.7,0.5-1.4c0-0.7,0.2-1,0.6-1.3c0.4-0.2-0.1-0.6-0.3-1.1
				c-0.2-0.7-0.4-1-0.5-1.7c-0.1-0.5,0.3-1.1,0.5-1.4c0.4-0.7-0.5-0.9-0.9-1c-0.3-0.1-0.7,0.7-1.1,0.8c-0.6,0.2-0.5-0.6-0.5-1.3
				c0-0.7-0.3-0.9-0.8-1.1c-0.4-0.2-0.9,0.4-1.5,0.4c-0.4,0-0.7-0.8-0.9-1c-0.3-0.3-0.4-0.9-0.5-1.4c-0.2-0.7-0.6-0.5-1.4-0.5
				c-0.2,0-0.9-0.5-1.3-0.6c-0.6-0.1-1.1-0.3-1.5-0.4c-0.5-0.1-0.8-0.4-1.4-0.5c-0.5-0.1-1.2-0.1-1.7,0c-0.1,0-0.8-0.7-0.9-0.8
				c-0.8-0.8-2.8,0.3-3.2,0.5c-0.4,0.2-1,0.4-1.4,0.5c-0.6,0.2-1,0.6-1.4,0.8c-0.4,0.2-0.8,0.6-1,0.6c-0.1,0-1-0.6-1.3-0.6
				c-0.6-0.2-1.2-0.1-1.9-0.1c-0.7,0-1,0.3-1.4,0.5c-0.4,0.2-0.6,0.8-0.8,1.1c-0.3,0.6-0.5,0.6-0.5,1.4c0,0.6,0.4,0.7,0.3,1.4
				c-0.1,0.5-1.1-0.4-1.3-0.5c0,0-0.8,0.8-1,0.9c-0.5,0.1-0.5,0.9-0.6,1.3c-0.1,0.4-0.7,0.8-0.9,1c-0.4,0.4-0.7,0.7-0.9,1.1
				c-0.4,0.7-0.8,0.2-0.9-0.3c-0.1-0.4,0.8-1-0.4-1c-0.4,0-0.9,0.5-1.3,0.6c-0.6,0.3-0.9-0.5-1-0.9c-0.1-0.4,0.4-1.1,0.5-1.4
				c0.3-0.5,0.2-1,0.4-1.7c0.1-0.5,0.5-0.4,0.6-1c0.2-0.7,1,0.1,0.5-0.9c-0.3-0.6,0.5-1.5,0.6-1.9c0.3-0.7,0.7-0.5,1.3-0.4
				c0.6,0.1,1.3,0,1.9,0c0.8,0,0.9-0.2,1.3-0.6c0.3-0.3,0.8-0.6,1.1-0.8c0.6-0.3,1-0.1,1.4-0.5c0.3-0.3,1.1-0.5,1.4-0.6
				c0.5-0.3,1-0.2,1.5-0.4c0.5-0.1,1-0.3,1.4-0.5c0.6-0.3-0.8-0.7-0.9-0.8c-0.5-0.1-0.9-0.3-1.7-0.3c-0.6,0-1.3,0-1.9,0
				c-0.6,0-1,0.3-1.5,0.5c-0.5,0.2-0.9,0.4-1.5,0.5c-0.5,0.1-0.9,0.4-1.4,0.5c-0.4,0.1-0.4,0.6-1.3,0.4c-0.4-0.1-0.9,0.4-1.5,0.4
				c-0.7,0-0.9-0.3-1-0.9c-0.2-0.6,0.4-0.9,0.5-1.4c0.1-0.5-1,0.4-1.5,0.6c-0.5,0.2-0.9,0.4-1.3,0.6c-0.5,0.3-0.8,0.4-1.1,0.8
				c-0.7,0.7-2,1.5-3.2,2c-0.5,0.2-0.7,0.5-1.1,0.8c-0.4,0.2-0.6,0.8-0.9,1c-0.4,0.4-0.7,0.7-0.9,1.1c-0.3,0.6,0.7-0.2,0.9-0.3
				c0.9-0.5,0.4,0.2,0.1,0.5c-0.4,0.4-0.7,0.6-1,0.9c-0.4,0.4-0.6,0.7-0.9,1c-0.5,0.5-0.8,0.2-1-0.3c0,0-0.9,1-1,1.1
				c-0.3,0.3-0.6,0.8-0.9,1.1c-0.5,0.5-0.6,0.8,0.1,0.6c0.4-0.1-0.5,0.6-0.6,0.8c-0.5,0.5-0.4,0-1,0.1c-0.4,0.1-0.8,0.7-1,0.9
				c-0.6,0.6-0.3,0.6-0.3,0.9c0.1,0.3,0.3,0.3-0.3,0.9c-0.4,0.4-0.7,0.6-1,0.9c-0.4,0.4-0.6,0.7-0.8,1.1C7,25.7,6.4,26,6,26.4
				c-0.2,0.2,0.4,0.4,0.3,0.6c-0.3,0.5-0.4,0.9-0.6,1.3c-0.3,0.7,0.9-1.2,1.3-1.8c0.3-0.5,0.6-1,0.9-1.3c0.4-0.4,0.7-0.7,1-1
				c0.2-0.2,0,0.7-0.1,1c-0.2,0.5-0.5,0.7-0.8,1.1c-0.2,0.4-0.7,0.6-0.9,1c-0.2,0.5-0.7,0.6-0.9,1c-0.3,0.7-0.5,0.5-0.4,1
				c0.1,0.4,0.7-0.6,0.9-1c0.3-0.5,0.8-0.1,1-0.9c0.1-0.6,0.7-0.7,0.9-0.8c0.3-0.1,0.6,0.4,0.9,0.5C9.9,27.4,9,28.1,9,28.6
				c0,1.2-0.7-0.5-1,0.6c-0.1,0.4-0.6,0.8-0.8,1.1c-0.2,0.5-0.5,0.7-0.8,1.1c-0.3,0.6-0.6-1-0.6-1.3c0-0.7-0.1-0.3-0.5,0.1
				c-0.3,0.3-0.5,1-0.6,1.3c-0.2,0.5-0.1,1.2,0,1.7c0.2,0.7,0.7,0.5,1.1,0.3c0.6-0.3,0.4,0.3,0.4,1c0,0.9-0.6,0.4-1.3,0.4
				c-0.4,0-0.7,1-0.8,1.1c-0.2,0.4-0.1,1.2-0.3,1.7c-0.2,0.7-0.6,0.9,0.3,1.1c0.3,0.1,0.8-1,0.9-1.1c0.3-0.4,0.3-1.1,0.3-1.7
				c0-0.6,0.1,1.2,0.1,1.8c0,0.8,0.7,0.4,1.3,0.4c0.5,0-0.1,1.2,0.4,1.4c0.7,0.4,0,0.5-0.5,0.8c-0.1,0,0.5,0.6,0.5,0.9
				c0,1.1-0.8-0.2-0.8,0.9c0,0.9,0.1,1,0.5,1.4c0.4,0.4,0.6,0.7,0.9,1c0.5,0.5,0.1,1.1-0.1,1.3c-0.3,0.3-0.6-1.2-0.9,0
				c-0.1,0.3,0,1.3,0,1.7c0,0.6-0.3,1.1-0.5,1.4c-0.2,0.4-0.6,0.7-0.6,0.8c-0.2,0.4,0.7,0.6,0.9,1c0.3,0.7,0.9,0.3,1.1,0
				c0.7-0.7,0.5,0.1,0.5,0.8c0,0.8,0.4,0.8,0.9,1c0.9,0.5,0.8,0.4,0.8,2c0,0.6,0.4,0.9,0.6,1.3c0.3,0.6,0.6,0.5,0.4,1.3
				c-0.1,0.5-0.3,1-0.1,1.5c0.1,0.5,0.6,0.7,0.9,1c0.4,0.4,1.3,0,1.5-0.1c0.2-0.1,0.1-1.4,0.1-1.8c0-0.1,1-0.7,1.1-0.8
				c0.1,0,0.3,1.4,0.3,1.7c0,0.5-0.8,0.2-0.6,1c0.1,0.5,0.8,0.1,0.8,1.1c0,1,0.7,0.2,0.9,0c0.3-0.3,1.1-0.4,1.4-0.5
				c0.5-0.2-0.5-1.1-0.5-1.3c-0.1-0.5-0.5-0.8-0.6-1.3c-0.2-0.7,0.9,0.3,1,0.5c0.2,0.5,0.5,0.8,1,0.9c0.5,0.1,0.1-1.8,0.4-0.5
				c0.2,0.9,1.4,0.3,1.8,0.1c0.3-0.2,0.6-0.7,1-0.9c0,0,1,0.8,1.1,0.9c0.6,0.3-0.2,0.9-0.4,1.1c-0.4,0.8,6.7,4.8,6.9,4.6
				c0.5-0.5,1-0.2,1.3,0.1c0.8,0.8,0.9,0.3,1.7-0.3c0,0-1.1,0.1-0.6-0.8c0.2-0.5,0.1-1.4,0.3-1.7c0.2-0.5,0.4,0.6,1.1,0.4
				c0.5-0.1,0.4-0.5,0.4-1c0-0.3,0.7,0,0.8-0.1c0.9-0.2,0.4-0.4,1-0.1c0.1,0.1,0,1.7,0,1.9c0,0.5-0.1,0.9-0.3,1.4
				c-0.1,0.3-0.7,0-1,0.1c-0.3,0.1-0.4-0.5-0.4,0.8c0,0.6-0.6,0.4-0.6,1.3c0,0.6-0.5,0.4-1.3,0.4c-0.4,0,0.1-0.9-0.1-1.1
				c-0.5-0.5-0.9,0.3-1,0.6c-0.2,0.8,4.9,1.7-0.1,1.1c-0.6,0.3-0.3,0.8-0.1,1.3c0.1,0.2,14.6-10.1,14.7-14.9c0-0.6,0.4-1.9,0.5-1.8
				c0.3,0.3,1.6,0.1,2,0.1c0.7,0,1.3-0.1,1.8-0.3c0.9-0.2,0.2-0.5-0.3-0.6c-0.8-0.2-1-0.1-1.4-0.5c-0.4-0.4-0.1-0.3,0.4-0.8
				c0,0-0.5-0.5,0.4-0.8c0.6-0.1,0.6-1,0.6-1.5c0-1.1,0.5,0.2,0.6,0.4c0.2,0.4,0.9,0.8,1.1,0.9c0,0,0.6-1.2,0.6-1.3
				c0.2-0.4,0.4-1,0.4-1.5c0-0.8-0.9-0.2-1.3-0.1c-0.7,0.2-0.9,0.1-0.9-0.8c0-0.9,0.1-0.9,0.3-1.5c0-0.1,0.9-0.6,1-0.9
				c0.2-0.3-0.6-0.1-1.3-0.1c-0.9,0-0.2-0.8,0.3-0.9c0.7-0.2,1.2,0.1,1.7,0.3c0.3,0.1,0.3-0.6,0.3-0.9c0-0.4,0.9,0.4,1.3,0.3
				c0.7-0.2,0.2-0.6,1-0.1c0.4,0.2,1.2-0.4,1.4-0.5c0.6-0.3,0.8-0.4,1.4-0.3c0.5,0.1,0.9,0.6,1.1,0.9c0.5,0.5,0.4,0.7,1.1,0.5
				c0.7-0.2,1.2,0.1,1.7,0.3c0.5,0.1,0.5,0.7,1.1,0.9c0.6,0.2,1.1,0,1.7,0.1c1,0.3,0.8-0.3,0.5-0.8c-0.1-0.1,0.6-1,0.6-1
				c0.1-0.4-0.5-0.8-0.4-1.3c0,0,2.3-0.3,0.8-0.6c-0.6-0.1-1.2-0.1-1.7,0c-0.7,0.2-0.1,1.3-1,0.4c-0.6-0.6,0.3-0.9,0.6-1
				c0.4-0.1,1.4-0.1,0.3-0.4c-0.6-0.2-1-0.3-1.3-0.6c-0.2-0.2-0.6-0.2-0.9-0.3c0.2-0.1,0.4-0.3,0.6-0.4c0.3-0.2,0.4-1.1,0.6-1.3
				c0.3-0.3,0.8,0.5,1.3,0.6c0.8,0.2,0.4,0.7,0.1,1c-0.6,0.6,0.6,0.9,1,0.9c0.4,0,0.6,1.3,0.6,0c0-0.5,0.4-1,0.9-1
				c0.8,0,0.7-0.6,0.5-1.3c-0.2-0.7-0.6-0.6-0.6,0.3c0,0.8-0.6,0.6-1,0.6c-0.8,0-1-0.1-1.1-0.8c-0.1-0.5,1.1,0.1,1.5,0.4
				c0.5,0.2-0.3-0.8-0.5-0.9c-0.2-0.1,0.7-0.4,0.5-0.6c-0.3-0.3-1.3,0.4-1.4,0.5c-0.7,0.3-0.9-0.2-1.4-0.4c-0.6-0.3-0.5-0.6-1.3-0.8
				c-0.8-0.2-0.9,0.4-1,0.9c-0.1,0.5,0.9,0.3,0.1,1c-0.6,0.6-0.9-0.4-1.1-0.6c-0.4-0.4-1.1-0.3-1.7-0.3c-0.8,0-0.3-0.8-0.3-1.1
				c0.1-0.4-0.7-0.8-0.9-1c-0.6-0.6-0.6-0.3-0.8,0.4c-0.2,0.7-0.5,0.9,0.5,0.9c0.9,0,0.3,0.8,0.1,1c-0.5,0.5-1-0.3-1.4,0.5
				c-0.3,0.7-0.9,0.2-0.5,1c0.2,0.4-0.5,0.5-0.1,1.1c0.3,0.5,0.5,0.7,0.6,1.3c0.3,1-0.3,0.9-1,1.3c-0.8,0.4-0.8-0.2-0.8-0.9
				c0-0.6,0.1-1.1,0.1-1.8c0-0.9-0.2-0.8-0.9-1c-0.7-0.2-1.4,0.1-1.7,0.3c-0.7,0.3-0.5,0.3-1.1,0c-0.4-0.2-0.3-1.1-0.3-1.7
				c0-0.5-1,0.3-1.5,0.4C46.8,36.7,46.1,36.4,45.6,36.1z M32,54.1c0.1,0.5-0.6,0.6-0.6,0.9c0,0.2,0.1,0.3,0.1,0.4
				c-0.1,0.2-0.3,0.4-0.5,0.6c-0.2,0.2-0.4,0.4-0.5,0.7c-0.1,0.4,0.4,1.8,0.3,2.2c-0.1,0.1-0.6-0.9-0.7-1c-0.2-0.1-0.3-0.3-0.5-0.3
				c-0.3-0.1-0.7,0-1-0.1c-0.2-0.1-0.3-0.4-0.4-0.6c0-0.2,0-0.4,0-0.6c0.1-0.1,0.2-0.1,0.3-0.1c0.1,0,0.2-0.2,0.1-0.3
				c-0.1-0.2-0.2-0.7-0.2-1c0-0.2,0.2-0.4,0.4-0.6c0.2-0.1,0.4-0.2,0.5-0.4c0.1-0.1,0.1-0.2,0.2-0.3c0.1,0,0.2,0.1,0.3,0.2
				c0.1,0.2,0.3,0.7,0.3,0.9c-0.1,0.1,0.1,0.3,0.2,0.2c0.2-0.1,0.3-0.4,0.5-0.6C31.3,54.2,31.7,54,32,54.1z"/>
			
				<linearGradient id="path1512_1_" gradientUnits="userSpaceOnUse" x1="-340.6304" y1="340.5371" x2="-340.6302" y2="340.6469" gradientTransform="matrix(210.9544 0 0 -204.0975 71891.3125 69579.2891)">
				<stop  offset="0" style="stop-color:#4A4A4C"/>
				<stop  offset="1" style="stop-color:#626266"/>
			</linearGradient>
			<path id="path1512" class="st9" d="M21.1,57.9c0,0,1,0.8,1.1,0.9c0.6,0.3-0.2,0.9-0.4,1.1c-0.4,0.8,0.8,0.6,1.3,0.6
				c0.8,0,0.4,0.9,0.4,1c-0.2,0.6-0.3,0.8,0,1.4c0.3,0.5-0.1,0.8-0.1,1.5c0,0.7-0.6,0.6-1.3,0.6c-0.8,0-1.1-0.2-1.7,0.1
				c-0.1,0.1-0.6,1.1-0.6,1.3c-0.2,0.4-0.8,0.6-1.1,0.8c-0.5,0.2,0.1,1.4,0.1,1.5c0.2,0.4,0.8,0.5,1,1c0.3,0.7-0.1,1.1,0.4,1.5
				c0.4,0.4,0.3,0.7,1,0.9c0.6,0.2,0.4-0.1,1.1-0.3c0.4-0.1,0.6,0.7,0.9,1c0.2,0.2,0.1,1.1,0.3,1.4c0.3,0.6,1-0.4,1.3,0.5
				c0.2,0.8,0.9,0.1,1.1,0c0.4-0.2,0.2,1,0.4,1.4c0.2,0.5,1.2,0.4,0.5-0.3c-0.4-0.4,0.4-0.9,0.5-1.4c0-0.2-1.4-0.4-1.5-0.4
				c-0.8-0.2-0.3-0.8-0.1-1c0.4-0.4,1.1,0.7,1.1,0.8c0,0,0.5-0.9,1-0.9c0.9,0,0.7-0.6,0.3-1c-0.8-0.8,0-0.6,0-0.6
				c0.2-0.2,0.8,0.3,0.9,0c0.4-0.8,0.4,0.6,0.4,1c0,0.2,1.1-0.2,1.3-0.1c0.9,0.2,0.8-0.1,0.9-0.5c0-0.1-1.1-0.7-1.1-0.8
				c-0.5-0.5-0.8-0.4-0.8-1.3c0-1-0.2-1-0.6-0.5c-0.4,0.4-0.5-0.2-0.9-0.5c-0.4-0.4-0.6,1.2-0.6,0c0-0.5-0.3-1-0.5-1.4
				c-0.2-0.4,0.1-1.5,0.1-1.8c0.2-0.7,0.2-0.1,0.8-0.1c0.4,0,0.7-0.8,0.9-1c0.5-0.5,1-0.2,1.3,0.1c0.8,0.8,0.9,0.3,1.7-0.3
				c0,0-1.1,0.1-0.6-0.8c0.2-0.5,0.1-1.4,0.3-1.7c0.2-0.5,0.4,0.6,1.1,0.4c0.5-0.1,0.4-0.5,0.4-1c0-0.3,0.7,0,0.8-0.1
				c0.9-0.2,0.4-0.4,1-0.1c0.1,0.1,0,1.7,0,1.9c0,0.5-0.1,0.9-0.3,1.4c-0.1,0.3-0.7,0-1,0.1c-0.3,0.1-0.4-0.5-0.4,0.8
				c0,0.6-0.6,0.4-0.6,1.3c0,0.6-0.5,0.4-1.3,0.4c-0.4,0,0.1-0.9-0.1-1.1c-0.5-0.5-0.9,0.3-1,0.6c-0.2,0.8,0.9,0.7-0.1,1.1
				c-0.6,0.3-0.3,0.8-0.1,1.3c0.1,0.2,0.9,0.8,1.1,0.9c0.2,0.1,0.5,1.1,0.6,1.3c0.2,0.2,0.4-0.1,0.6,0.8c0.1,0.4,0.3,0.2,0.5,0.9
				c0.2,0.9-0.6,0.6-1.1,0.6c-0.7,0-0.8,0.4-1,0.9c-0.4,0.7,0.2,1.1-0.8,0.9c-0.5-0.1-0.8-0.8-0.4,0.1c0.2,0.4-0.4,0.7,0.1,1.3
				c0.4,0.4,0.4,0.8,1.1,0.8c0.9,0,1-0.1,1.3-0.6c0.3-0.6,0.4-0.8,1.3-0.8c1.5,0-0.3,0.3-0.1,1c0.1,0.5,1,0.3,1.4,0.3
				c0.5-0.1-1.1-1,0.3-0.6c0.6,0.2,0.9,0,1.3-0.4c0.4-0.4,0.7-1-0.1-1c-0.6,0-1.2,0.1-1.7,0c-0.6-0.1-0.9-0.3-1.7-0.3
				c-1,0-0.1-0.6,0.1-0.8c0.2-0.2,0.3-0.5,0.5-0.6c0.2-0.1,0.6,0.1,0.8-0.1c0.1-0.2-0.3-0.3-0.5-0.4c-0.4-0.1,0.9,0.2,1.1,0.5
				c0.2,0.2,0.7,0.2,1,0c0.2-0.1,1.9,0.7,2.2,1c0.3,0.3,0.4,0,0.8-0.4c0.2-0.2-0.4-0.9-0.3-0.5c0.1,0.5,1.3,0.2,1.5,0.1
				c0.5-0.1,0.3-0.6,1.3-0.6c0.7,0,1.1-0.1,1.8-0.1c0.7,0,1.2-0.4,1.7-0.5c0.4-0.1,0.1,1.1,0.5,1.1c0.3,0,0.6-1,0.8-1.1
				c0.6-0.6,0.8-0.1,0.8,0.6c0,0.4,0.9-0.2,1.3-0.4c0.5-0.3,0.1-1.2,0-1.4c-0.3-0.7,0.1-0.8,0.8-0.6c0.5,0.1,0.1-1.1-0.3-1.4
				c-0.3-0.3-1.1-0.4-1.4-0.5c-0.6-0.1-1.1-0.1-0.3-0.5c0.7-0.4,0.6-1.2-0.1-1.7c-0.4-0.2,0.3-1.1,0.4-1.3c0.3-0.5,0.6-0.7,0.9-1
				c0.4-0.4,0.7-0.6,1-0.9c0.4-0.4,0.4-0.9,0.4-1.5c0-0.5,0.1-1.1,0.1-1.8c0-0.1-0.8,0.5-1,0.6c-0.6,0.3-0.9,0.3-1.5,0
				c-0.6-0.3-0.7-0.5-0.9-1.1c-0.2-0.9,0.2-1,0.8-1.1c0.5-0.1,0.7,1.1,0.8,1.3c0.2,0.6,0-0.8,0-1.1c0-0.5-0.5-1-0.6-1.3
				c-0.2-0.5-0.6-0.6-1.1-0.8c-0.6-0.1-0.8-0.5-1-0.9c-0.3-0.5-0.3-1-0.3-1.7c-1.3,0.6-1.9,0.6-3.3,0.6c-0.4,0-0.9-1.8-1-2.1
				c-0.2-0.8-0.6-1.6-0.6-2.5c0-0.7-0.8-1.4-1.2-1.7c-0.7-0.7-0.9-0.8-2.1-0.8c-0.9,0-1.1,0.9-1.5,1.3c-0.6,0.6-1.3,0.3-1.5,1.3
				c-0.2,0.8-0.6,1.3-1,1.9c-0.4,0.8,0.4,0.8,0.2,1.7c-0.2,0.8,1.3,0.9-1.4,2.7c-0.7,0.5,0.9,2,0.5,2.4c-0.5,0.6-0.9,0.2-1.2-0.4
				c-0.4-0.8,0.6-0.6-0.3-0.8c-0.8-0.2-2.3-1.2-3-1.5c-0.8-0.4-1.1-0.6-2.3-0.6c-1.1,0-2.1,0.3-3,0.7C21.4,56.6,20.8,57.3,21.1,57.9
				z"/>
			<path id="path49549" marker-start="none" marker-mid="none" marker-end="none" class="st10" d="M84.9,34.5
				c0.4,0.2,0.8,0.6,1.3,0.7c0.5,0.1,0.8-0.5,1.2-0.7c0.2,0.2-0.2,0.7-0.2,1c0,0.3-0.3,1,0.1,1c0.4-0.2,0.7-0.5,1-0.8
				c0.1-0.3,0.5-0.7,0.8-0.3c0.2,0.4,0.7,0.2,0.9-0.1c0.3-0.2,0.5,0,0.2,0.3c-0.2,0.5-0.6,0.9-0.6,1.4c0,0.3,0.4,0.6,0.4,0.8
				c-0.2,0-0.7-0.3-0.8-0.1c0.3,0.4,0.7,0.8,1.1,1.1c0.2,0.1,0.9,0.5,0.4,0.6c-0.3,0.1-0.7-0.2-0.9,0.1c0.1,0.5,0.4,0.9,0.6,1.3
				c0.1,0.2,0.3,0.6,0.3,0.7c-0.3-0.1-0.7-0.3-0.9,0c-0.3,0.4,0,0.9-0.2,1.3c-0.3-0.1-0.4-0.6-0.6-0.9c-0.3-0.6-0.4-1.4-1-1.9
				c-0.5-0.5-0.9-1.1-1.4-1.6c-0.5-0.6-0.6-1.4-0.8-2.1c-0.2-0.6-0.7-1.1-0.8-1.7C84.9,34.6,84.9,34.6,84.9,34.5z"/>
			
				<radialGradient id="path2127_1_" cx="-24.2138" cy="1272.6965" r="33.5782" gradientTransform="matrix(0.7981 0.3869 0.1118 -0.2306 -51.4871 356.9611)" gradientUnits="userSpaceOnUse">
				<stop  offset="0" style="stop-color:#7D7D7F"/>
				<stop  offset="1" style="stop-color:#515056"/>
			</radialGradient>
			<path id="path2127" marker-start="none" marker-mid="none" marker-end="none" class="st11" d="M58.4,25c0.6,0.2,1-0.1,1.5-0.4
				c0.5-0.3,0.5-0.6,1.1-0.8c0.2,0,0.2-1.6,0.3-1.7c0.2-0.7,0-1.1,0.6-1.3c0.5-0.1,0.7-0.6,1-0.9c0.3-0.3,1.3,0.3,1.7,0.3
				c0.8,0,1.1,0,1.5,0.4c0.4,0.4,0.8,0.5,1.4,0.6c0.7,0.2,0.9,0.5,1.4,0.8c0.4,0.2,1.5-0.1,1.8-0.1c0.8-0.2-0.5-1.1-0.5-1.1
				c-0.5-0.2-0.8-0.5-1.1-0.8c-0.5-0.5-0.5-0.3-0.5-0.6c0-0.1-1.4-0.4,0-0.8c0.8-0.2,1.1-0.1,0.5-0.6c-0.5-0.5,1.1,0.1,1.1,0.1
				c0.6,0.3,0.8,0.4,1.1,0.8c0.4,0.4-1.2,0.1-1.4,0.5c-0.2,0.3,0.8,0.8,1,1c0.6,0.6-0.4,0.9,0.8,1.1c0.3,0.1,0.9-0.9,1-1
				c0.6-0.6,0.8-0.3,0.8,0.3c0,0.5-0.9,0.8,0.1,1c0.7,0.2,0.7,0.5,0.5,1.3c-0.1,0.6-0.4,0.8-0.4,1.7c0,0.5,0.6,0.8,1,0.9
				c0.7,0.2,0.8,0.2,1.4,0c0.5-0.1-0.3,1-0.1,1.5c0.1,0.5,0.9,0.8,1.1,1c0.5,0.5-0.4,0.9-0.6,1c-0.6,0.3-0.3,0.9-0.1,1.3
				c0.3,0.5,0.5,0.7,0.8,1.1c0.3,0.7,0.7,0.8-0.3,1.3c-0.3,0.2,0.4,0.8,0.1,1c-0.5,0.5-0.8,0.3-0.4,1c0.1,0.2,1-0.1,1.5-0.1
				c0.5,0,0,1-0.3,1.4c-0.1,0.3,1.2,0,1.4,0c0.5,0,1,0.6,0.8-0.4c-0.2-0.7-0.1-1.1,0.1-1.5c0-0.1,1.3,0.8,1.4,0.9
				c0.4,0.4,0.2-1.1,0-1.5c-0.2-0.4-0.4-1.1-0.5-1.5c-0.2-1,0.8-0.2,1-0.1c0.7,0.3,1.1-0.1,1.1,0.9c0,0.4-0.5,0.8-0.5,1.4
				c0,0.6,0.9,0.3,1.4,0.3c0.6,0,0.8,0.5,0.8,1.1c0,0.5-0.9,0.5-1,0.9c0,0.2,0.7,0.9,0.8,1.1c0.1,0.6,0,1.3,0,1.9
				c0,0.5,0.8,0.6,1.3,0.6c0.5,0,1.1,0.3,1.5,0.4c0.3,0.1-0.1,0.7,0.1,0.8c1.1,0.3,0.8,0,0.6,0.5c0,0.1-0.3,1.4,0.6,1.4
				c0.6,0,1.4,0.3,1.9,0.6c0.3,0.2,0,1.3,0,1.4c0,0.5,0.9,0.7,1.1,1.1c0.3,0.5,0.4,0.8,0.6,1.3c0.3,0.5,0.4,0.8,0.8,1.1
				c0.5,0.5,0.6-0.3,1.4-0.3c0.5,0,0.6,0.8,0.6,1c0,0.5-0.8,0.1-0.4,1c0.2,0.4,0.4,1,0.5,1.4c0.1,0.6,0.3,0.9,0.3,1.7
				c0,0.7,0.1,1.1,0.1,1.8c0,0.7-0.3,1-0.3,1.8c0,0.7-0.1,1.2-0.3,1.7c-0.2,0.7-0.3,0.9-0.5,1.4c-0.3,0.5-0.4,0.8-0.6,1.3
				c-0.3,0.5-0.5,1.1-0.7,1.6c-0.3,0.5-0.6,0.7-0.8,1.1c-0.2,0.4-0.3,1.3-0.4,1.7c-0.1,0.5-0.4,0.9-1,0.9c-0.3,0,0.1-1.6-0.5-0.4
				c-0.3,0.5-0.1,1.3-0.3,1.7c-0.2,0.4-0.9,0.6-1.1,0.8c-0.5,0.2-0.8,0.4-1.4,0.5c-0.1,0,0.1-0.7,0.1-1.3c0-0.9-0.5-0.6-0.6-1.3
				c-0.1-0.4,0.8-0.9,1-1c0.5-0.3,1.1,0.1,1.1-0.8c0-1.1,0.3-0.5,0.6,0c0,0.1,1.2-0.7,1.2-1c0-0.5,0.9-0.8,1-1.2
				c0.4-0.9-1.6-1.2-1.9-0.9c-0.5,0.5-0.5,0.6-1.1,0.3c-0.6-0.3-0.2-0.7-0.9-0.9c0,0-0.9,0.9-1,1c-0.5,0.5-1,0.2-0.6-0.5
				c0.3-0.7,0.2-0.7-0.3-1.1c-0.5-0.5-0.2-1,0.1-1.3c0.4-0.4,0.7-0.5,1.3-0.4c0.4,0.1-0.5,0.6-0.9,0.8c-0.8,0.4,1.1,0.6,1.3,0.6
				c0.6,0,0-1.4-0.4-1.8c-0.4-0.4-0.5-0.6-1-0.1c-0.2,0.2-0.8,0.2-1.1,0.5c-0.6,0.6-1-0.1-1-0.6c0-0.6,0.6-0.8,1-0.9
				c0.4-0.1,0.8,0.1,1,0.4c0.3,0.3-0.6-0.7-0.9-1c-0.5-0.5-0.5-0.6-0.6-1.3c-0.2-0.7,0.6-0.8,1.1-0.8c0.6,0,0.5,0.9,0.5,1.4
				c0,0.9,0.2,0.5,0.4-0.1c0.2-0.8-0.2-1.2-0.4-1.5c-0.2-0.5-0.5-0.7-0.8-1.1c-0.3-0.5,0.5-1.2-0.3-0.4c-0.7,0.7-0.3,0.2-0.1-0.3
				c0.2-0.5,0.4-0.9,0.6-1.3c0.2-0.4,0.4-0.9,0.5-1.4c0.1-0.4,0.6-0.8,0.8-1.1c0.2-0.5,0.2-1.1,0.4-1.5c0.3-0.6,0.1-1.1,0.6-0.5
				c0.4,0.4,0.4,1,0.3,1.4c-0.2,0.7-0.1,0.9,0,1.1c0.2,0.4,0.4-0.9,0.5-1.4c0.1-0.5,0.1-1.2,0.3-1.7c0.2-0.9-0.2-1.2-0.8-1
				c-0.3,0.1,0,0.6,0,0.9c0,0.4-0.9-0.3-1.3-0.1c-0.4,0.2-0.5,1-0.6,1.3c-0.3,0.5,0,1,0.1,1.5c0.1,0.4-0.2,0.3,0.1,1
				c0.2,0.3-1.1,0-1.4-0.3c-0.8-0.8-0.3,0.8-0.3,0.9c0.6,1.1-0.6,0.3-0.8,0.1c-0.3-0.3-0.8-0.2-1.1-0.6c-0.2-0.2-0.7,0.4-1.1,0.5
				c-0.8,0.2-0.5-0.6-0.6-1.1c-0.1-0.5-0.8-0.6-1-1c-0.5-1-0.6,0-0.5,0.4c0.2,0.7,0.4,0.9,0.1,1.4c-0.4,0.7,0,1-1,1.3
				c-0.3,0.1-0.6,1-0.6,1.3c-0.2,0.7,0,0.9,0.1,1.5c0.1,0.2-0.4,1-0.5,1.4c-0.2,0.8,0.2,1.2,0.5,1.5c0.4,0.5,0.4,0.9,0.3,1.5
				c-0.1,0.5,1,0.5,1.4,0.5c0.8,0,1.1,0,1.5,0.4c0.5,0.5-0.2,0.9,0.8,1.1c0.8,0.2,0.7,0.5,0.9,1.1c0.1,0.2-0.5,1.1-0.6,1.4
				c-0.2,0.4,0,1.4-0.1,1.8c-0.2,0.7-0.2,0.9-0.4,1.5c0,0.2,0.5,0.9,0.5,1.4c0,0.7,0,0.9-0.3,1.4c-0.3,0.6-0.2,0.9-0.9,1
				c-0.9,0.2-0.3-0.6-0.1-0.9c0.3-0.6,0.2-0.9,0.4-1.5c0.1-0.5-1.1-0.2-1.3-0.6c0,0-0.6,0.6-0.9,0.8c-0.3,0.2-0.7-0.9-0.9-1
				c-1.2-1.2-0.8,0-0.4,0.4c0.4,0.4,0.4,0.9,0.3,1.4c-0.1,0.5-1-0.3-1.4-0.6c-0.6-0.6-0.7-0.3-0.1-0.9c0.4-0.4,1-0.1,0.8-0.9
				c-0.1-0.4-0.8,0.5-1.3,0.4c-0.4-0.1-1-2-0.1-4.6c0.1-0.4,1.1,0,1.5-0.2c0.4-0.2,0.6-0.2,1-0.4c0.7-0.4-0.1-1-0.1-1
				c0-0.1-0.7-0.7-0.9-0.9c-0.4-0.4-0.1-0.8-0.5,0.1c-0.2,0.5-0.5,0.8-1,0.9c-0.7,0.2-0.6-0.7-0.6-1.3c0-0.9-0.2-1.1-0.6-1.5
				c-0.3-0.3-0.9,0.3-1.3,0.4c-0.9,0.2-0.8-0.5-0.8-1.1c0-0.5,0.1-1.2,0-1.7c-0.1-0.3-0.7,0.1-1,0.1c-0.5,0,0.6-0.7,0.9-1
				c0.5-0.5,1.7-0.6,1.7-1.4c0-0.7,0-1.2,0.1-1.4c0.2-0.4-1-0.3-1.4-0.5c-0.5-0.3-0.5,0.1-0.8,0.6c-0.2,0.5-0.9-0.6-1-0.6
				c-0.7-0.7-0.2-0.4-1.3-0.4c-0.1,0-0.6,0.2-1-0.3c-0.5-0.5-0.1-0.9,0.4-1c0.8-0.2,0.9,0.7,0.9,0.8c0.1,0.5,0.4-0.9,0.5-1.4
				c0-0.1-1.1-1.3-1.5-0.9c-0.3,0.3,0.1,0.9-0.1,1.3c-0.2,0.4-0.5-0.9-0.5-1.4c0-0.5-0.8-0.4-0.6-1.1c0.1-0.3,0.4-0.7,0.3-1.4
				c-0.1-0.3,1.1,0.1,0.9-0.6c-0.1-0.5-0.5-0.9-0.8-1.1c-0.5-0.5-0.8-0.6-0.6-1.1c0.1-0.4,1.1,0.5,0.5-0.6c-0.2-0.5-0.6-0.9-0.8-1.3
				c-0.3-0.6-0.5-0.6-0.5-1.1c0-0.3,0.8,0.1,1-0.1c0.5-0.5,0.4-0.6,0.8,0.1c0.4,0.9,0.5,0,0.5-0.6c0-0.7,0.3-1,0.8-1.3
				c0.2-0.1,0.4,0.5,0.5,0.4c0.5-0.5,0.5-0.5,1.1-0.5c0.2,0,0.6,0.9,1.4,0.5c0.5-0.3,0-0.9-0.1-1.3c0-0.1-1.2,0.6-1.3,0.6
				c-0.9,0.5-0.5-0.4-0.4-0.8c0.4-0.7-0.5-0.1-0.9,0c-0.6,0.1-0.9,0.3-1.7,0.3c-0.6,0-0.8-0.4-1.4-0.5c-0.7-0.2-1.1-0.3-1.7-0.6
				c-0.4-0.2-0.9-0.5-1.4-0.6c-0.5-0.1-0.8-0.5-1.3-0.6c-0.8-0.2-0.1,0.6,0.1,0.8c0.6,0.6-0.6,0.6-1,0.6c-0.9,0-0.2-0.7,0.1-0.9
				c0,0-0.9-0.6-1.1-0.9c-0.6-0.6-0.4-0.3-0.6,0.5c-0.1,0.4-0.9,0-1.1,0.8C60,35.7,59.4,35,59,35c-0.4-0.1-0.3,0.8-1,0.1
				c-0.5-0.5-0.5-0.6-0.6-1c-0.1-0.5,1.1,0.3,1.7,0.3c0.5,0-0.1-1.1,0.1-1.5c0.2-0.3-0.1-1.3,0-1.7c0.1-0.2,0.6-0.6,0.8-1.1
				c0.1-0.4-0.2-0.8-0.1-1c0.1-0.2,0.5-0.6,0.5-1.4c0-0.7-0.8-0.3-1.4-0.3c-0.9,0-0.2,0.1-0.6-0.9C58,25.9,58.2,25.5,58.4,25z"/>
			<path id="path2129" marker-start="none" marker-mid="none" marker-end="none" class="st12" d="M95.9,35c-0.5-1,0.7,2.1,1,3.2
				c0.3,1.1-0.9,0.2-1.1,0c-0.1,0,0.4,1.3,0.5,1.4c0.4,0.4-0.2,1.1-0.4,1.3c-0.3,0.3-0.6,0.8-0.8,1.1c-0.3,0.5-0.9,0.4-1.5,0.4
				c-0.9,0-1-0.6-1.4-1c-0.5-0.5-0.1-0.8-0.8-1.1c-0.5-0.2-0.8-0.8-1-1.1c-0.2-0.5-0.5-0.7-0.8-1.1c-0.4-0.9-0.1-0.5,0.4-0.3
				c1,0.5,0.2-0.7,0.1-0.9c-0.4-0.7-0.8-0.4-0.4-1.1c0.3-0.5,0.9-0.5,0-0.9c-0.6-0.3-0.8-0.4-0.8-1.1c0-0.5,0.5-0.9,0.8-1.1
				c0.4-0.4,0.4-0.9,0.8-1.3c0.4-0.4,0.9-0.4,1.5-0.4c0.8,0,0.9,0.4,1.4,0.6c0.4,0.2,0.6,0.8,0.9,1c0.4,0.4,0.4,0.8,0.8,1.1
				c0.5,0.5,0.6,1.2,1.3,2"/>
			
				<radialGradient id="path2133_1_" cx="414.7773" cy="614.4212" r="33.5782" gradientTransform="matrix(0.2009 -0.1537 -0.2849 -0.3723 148.135 301.8937)" gradientUnits="userSpaceOnUse">
				<stop  offset="0" style="stop-color:#8B8B8E"/>
				<stop  offset="1" style="stop-color:#58575D"/>
			</radialGradient>
			<path id="path2133" marker-start="none" marker-mid="none" marker-end="none" class="st13" d="M71.7,10.7
				c-0.6,0.2-0.3,1.3-0.1,1.7c0.3,0.6-0.5,0.1-0.9,0c-0.6-0.1-0.6-0.4-1.4-0.3c-0.9,0.2-1.1-0.1-0.8,0.6c0.4,0.7-0.8,0.2-1,0.1
				c-0.4-0.2-0.9-1.2-0.9,0c0,0.6-0.5,0.8-1,0.9c-0.8,0.2-0.9,0.1-0.9,1c0,0.8-0.2,0.7-0.8,0.4c-0.5-0.3-0.9-0.2-1.5-0.4
				c-0.6-0.1-0.9-0.3-1.4-0.5c-0.5-0.3-0.5-0.6-1.1-0.8c-0.5-0.1-0.9-0.4-1.3-0.6c-0.5-0.3-0.8-0.4-1.3-0.9
				c-0.6-0.6-0.7-0.7-0.3-1.1c0.6-0.6-0.1-0.4-0.6-0.3c-0.5,0.1-0.7,0.5-1.3,0.6c-0.7,0.2-0.9,0-1-0.6c-0.2-0.7,0.6-0.7-0.4-1.1
				c-0.5-0.3-1.5-0.2-2.2-0.4c-0.7-0.2-1-0.4-1.5-0.5c-0.6-0.1-1.1-0.1-1.7,0c-0.5,0.1-0.9,0.5-1.4,0.6c-0.5,0.1-0.9,0.4-1.3,0.6
				c-0.6,0.3-1.2,0-1.5-0.1c-0.6-0.3-1,0.1-1.4,0.3c-0.8,0.4-0.5,0.1-0.1-0.3c0.4-0.4,0.5-0.5,1.3-0.6c1-0.3-0.5-0.3-0.9-0.3
				c-0.8,0-1,0.2-1.5,0.4c-0.8,0.2-0.7,0.2-1.1,0c-0.4-0.2,2.2-0.6,0.1-0.9c-0.8-0.1-0.1-0.8,0.1-1c0.2-0.2-1.2-0.1-1.5-0.1
				c-1,0-1-0.1-1.3-0.4c-0.1-0.1,1.6-0.3,1.8-0.3c0.6,0,1.1-0.3,1.5-0.4c0.8-0.2,0.1,0.6,1.1,0.6c0.2,0,0.6-0.8,1-0.9
				c0.4-0.1,0.7,0.2,1.3,0c0.7-0.2,1,0.1,1.5-0.1c0.4-0.2,0.6-0.7,1-0.9c0.7-0.3,0.3,0.8,0.4,1c0,0.2,0.9,0.4,1,1
				c0.1,0.4,0.8-0.6,1.3-0.5c0.4,0.1,0.5,0.3,1.3,0.1c0.5-0.1,1.2-0.1,1.7-0.3c0.6-0.2,0.3-0.8,1-0.1c0.5,0.5-0.1,0.9,0.8,1.3
				c0.5,0.2,1.1,0.3,1.5,0.4c0.5,0.1,0.9,0.4,1.3,0.6c0.4,0.2,0.6,0.7,1,0.9c0.9,0.5,0.3-0.6,0.1-0.8c-0.7-0.7,0.4-0.8,0.8-0.9
				c0.5-0.1,1.9,1,2.4,1.3c0.5,0.2,1-0.6,1.1-0.8c0.2-0.2,1.4,0.2,1.7,0.3c0.8,0.2,1.2,0.4,1-0.3c-0.1-0.5,1.3,0.1,1.4,0.6
				c0.1,0.2,1.4,0.1,1.8,0.1c0.2,0,1,0.7,1.1,0.8c0.6,0.3,0.8,0.4,1.1,0C71.6,9,71.7,10.5,71.7,10.7z"/>
			<path id="path2159" marker-start="none" marker-mid="none" marker-end="none" class="st14" d="M5.1,50.8
				c-0.7,0.3-0.9,1.2-0.9,1.9c0,0.6,0,1.3,0.4,1.9c0.3,0.5,1,0.8,1.5,0.3c0.5-0.6,0.3-1.5,0.3-2.3C6.4,51.9,6,51,5.1,50.8z"/>
			<path id="path2182" marker-start="none" marker-mid="none" marker-end="none" class="st15" d="M49.9,11.1c0,0.4-0.6,0.7-1.4,0.7
				c-0.8,0-1.4-0.3-1.4-0.7c0-0.4,0.6-0.7,1.4-0.7C49.3,10.4,49.9,10.7,49.9,11.1z"/>
			<path id="path2184" marker-start="none" marker-mid="none" marker-end="none" class="st16" d="M51.8,48.7c0.3-0.4,0.6-1,0.8-1.7
				c0.2-0.8,0.7-0.4,0.9,0c0.3,0.6,0.3,0.8,1,0.6c0.9-0.2-0.3-0.9-0.5-1c-0.7-0.3-0.5-0.7-0.1-1c0.5-0.5,0.7-0.3,1.1,0.1
				c0.2,0.2,0.4,1.2,0.5,1.4c0.2,0.5,0.4-0.9,0.3-1.1c-0.4-0.8,0.7-0.7,1-0.6c0.9,0.2,0.2,1.8,0.1,1.9c-0.3,0.6-0.4,0.7-0.1,1.3
				c0.3,0.5,0.5,0.7,0.4,1.3c0,0.1-1.5,0.1-1.8,0.1c-0.1,0-0.9,0.8-1,0.9c-0.5,0.5-0.3,0.7-1,0.9c-0.6,0.2-0.9-0.5-1.4-0.6
				c-0.5-0.1-0.6-0.8-0.6-1.3C51.3,49.4,51.4,49.3,51.8,48.7z"/>
			<path id="path2131" marker-start="none" marker-mid="none" marker-end="none" class="st17" d="M79.2,21.9c0.2,0.2,1,0,1.4,0.4
				c0.6,0.6-0.5,1.1-0.8,1.1c-0.7,0.2-0.7-0.1-1-0.8c-0.1-0.3-1.2-0.4-0.5,0.4c0.6,0.6,0.1,0.5-0.8,0.5c-0.1,0,0.6,0.8,0.8,0.9
				c0.1,0.1-1.4,0.1-1.5,0c-0.6-0.3-0.7-0.4-0.9-1c-0.2-0.7,0.6-0.8-0.4-1.3c0,0,0.1,0.9-0.5,0.3c-0.6-0.6,0.3-1-0.6-1
				c-0.7,0-0.4,0.5-1,0.1c-0.3-0.2,0.9-1,0.9-1c0.2-0.2,1.4-0.3,1.5-0.4c0.4-0.2-0.6-0.8-0.8-1.3c-0.1-0.3,0.5-0.1,0.8-0.1
				c0.3-0.1,0.5,0.1,0.9,0.5c0.3,0.3,0.4-1.2,1.4-0.1c0.2,0.2-0.4,0.8-0.1,1c0.4,0.4,0.7,0.4-0.3,0.6C77.2,20.9,79.1,21.9,79.2,21.9
				z"/>
			<path id="path25476" marker-start="none" marker-mid="none" marker-end="none" class="st17" d="M97.6,43.1c0.4-0.4,0,1.3-0.4,1.7
				c-0.4,0.4,0.1,1.3,0.3,1.5c0.3,0.5,0,1.2-0.1,1.5c-0.3,0.5-0.4,1.1-0.5,1.5c-0.1,0.6-0.4,0.7-0.4,1.5c0,0.5,1,0.1,1,0.9
				c0,0.8,0.6,0,0.6-0.6c0-0.5-0.6-0.9-0.6-1.7c0-0.6,0-1.3,0-1.9c0-0.3,1.1,0.7,0.5-0.5c-0.3-0.7,0.6,0.4,0.6,0.5
				c0.2,0.5-0.1-1.1-0.1-1.7c0-0.3,0.5-0.6,0.4-1.3C98.8,44.6,97.6,43.2,97.6,43.1z"/>
			<path id="path25474" marker-start="none" marker-mid="none" marker-end="none" class="st18" d="M86.5,64.9c0-0.6-0.5,1-0.8,1.5
				c-0.3,0.6,0.1,0.6,0.6,0.8c0.8,0.2,0.8,0.3,0.5,0.9c-0.2,0.5-0.6,0.8-0.8,1.1c-0.3,0.5-0.8,0.6-1,0.6c-0.5,0.1,0.4-0.9,0.6-1.3
				c0.3-0.6-0.2-1.2-0.4-1.5c-0.3-0.5-0.3-1-0.1-1.7c0.3-1.3,1.3-0.5,0.9-1.1C86,64.1,86.5,64.7,86.5,64.9z"/>
			<path id="path25472" marker-start="none" marker-mid="none" marker-end="none" class="st17" d="M84.6,17.2c0-0.1-1.2-0.6-1.4-0.8
				c-0.2-0.1-0.6-1.1-0.8-1.3c-0.4-0.4-0.9-0.7-1.3-0.9c-0.5-0.3-0.5-0.6-1-0.9c-1-0.5-0.8,0.5-0.6,0.8c0.1,0.2,1.1,0.6,1.3,0.6
				c0.7,0.3,0.7,0.4,0.3,0.9c-0.5,0.5,0.1,1.2,0.3,1.4c0.3,0.6,0.4,0.7,0.8,1.1c0.7,0.7,0.7,0,0.5-0.4c-0.2-0.5-0.6-0.5-0.9-1
				c-0.4-0.8,0.3-0.8,0.8-0.6c0.3,0.1,0.9,0.7,1,0.9C83.7,17.4,84,17.3,84.6,17.2z"/>
			<path id="path25468" marker-start="none" marker-mid="none" marker-end="none" class="st17" d="M86,17c-0.5-0.7-1.6-1.9-1.1-0.2
				C84.9,17.1,85.7,17,86,17z"/>
			<path id="path2137" marker-start="none" marker-mid="none" marker-end="none" class="st19" d="M21.4,82.1
				c-0.1-0.6-1.2-0.1-1.7-0.4c-0.7-0.4-0.5,0.6-0.4,1c0.2,0.7,1.6,0.5,1.8,0.5C21.8,83.3,21.7,82.7,21.4,82.1z"/>
			<path id="path32057" marker-start="none" marker-mid="none" marker-end="none" class="st20" d="M21.6,79.5c0.7,0,0.6-1.2,0.6-1.9
				c0-0.7-0.5-0.6-0.6-1.3c-0.2-0.7,1.4,0.1,1.4,0.1c0.3,0.3,0.9-0.2,1.3-0.1c0.4,0.1-0.3,0.9-0.1,1.3c0.2,0.3,1.6-0.2,1.7-0.3
				c0.7-0.2-0.1,0.8-0.3,0.9c-0.5,0.5,0,0.8,0.3,1.3c0.4,0.8-0.1,0.9-0.6,1c-0.3,0.1-0.8-1-0.9-1.1c-0.2-0.5-0.7-0.6-1-0.9
				c-0.4-0.4-0.6,0.2-0.8,0.6C22.3,79.4,21.9,79.3,21.6,79.5z"/>
			<path id="path32055" marker-start="none" marker-mid="none" marker-end="none" class="st20" d="M27.8,78.4
				c-0.3,0.7,0.9,0.9,1.4,1c0.5,0.1,0-1-0.1-1.5C28.8,76.7,28.2,78.5,27.8,78.4z"/>
			<path id="path32053" marker-start="none" marker-mid="none" marker-end="none" class="st20" d="M31.9,77.9
				c-0.2-0.6,1,0.9,1.5,1.1c0.4,0.2-0.2-0.8-0.5-0.9C32.5,78,32.5,77.9,31.9,77.9z"/>
			<path id="path32051" marker-start="none" marker-mid="none" marker-end="none" class="st20" d="M33.2,80.6
				c-0.8-0.4-1.1-0.2-0.9,0.6c0.2,0.6,1.2,0.1,1.4,0c0.5-0.1,1,0.6,1.3,0.8c0.5,0.3,1.3-0.3,1.5-0.4c0.4-0.2-0.6-0.3-1-0.5
				c-0.6-0.3-0.8-0.5-1.5-0.5C33.7,80.6,33.4,80.6,33.2,80.6z"/>
			<path id="path32049" marker-start="none" marker-mid="none" marker-end="none" class="st20" d="M23.5,83.8
				c-0.7,0-0.8-0.5-0.8,0.9c0,0.8,0.6,1,0.8,0.3C23.5,84.7,23.5,84,23.5,83.8z"/>
			<path id="path32047" marker-start="none" marker-mid="none" marker-end="none" class="st20" d="M16.1,75.9c0.1-0.4-1,0.1-1,0.5
				c0,0.3,1,0.7,1.1,0.8C16.6,77.4,16.2,76.3,16.1,75.9z"/>
			<path id="path32045" marker-start="none" marker-mid="none" marker-end="none" class="st20" d="M16.1,79.2
				c0.5,0.2-0.6-0.9-0.9-1.4c-0.5-1-0.7,0.4-0.6,0.6c0.2,0.7,0,0.7-0.4,0.8C13.5,79.4,15.5,79.5,16.1,79.2c0.4-0.2-0.2,1.3,0.3,1.4
				C17.1,80.8,16.8,79.6,16.1,79.2z"/>
			<path id="path32043" marker-start="none" marker-mid="none" marker-end="none" class="st20" d="M17.5,69.8
				c0.3,0.1-0.6,0.4-0.5,0.6c0.1,0.3,1.1,0.6,1.3,0.6c0.2,0.1,0.3,1.4,0.4,1.5c0.1,0.4,0.6,1.3,0.6,0.3c0-0.8-0.3-0.9-0.5-1.4
				C18.4,70.8,18.3,70.4,17.5,69.8z"/>
			<path id="path32041" marker-start="none" marker-mid="none" marker-end="none" class="st20" d="M7,62.4c-0.2-0.4,0.2,1.2,0.6,1.3
				c0.9,0.2-0.6-1.3-0.8-1.9c-0.1-0.6-0.6-0.9-0.9-1.4c-0.4-0.9-1.3-0.1-0.3,1C6.2,61.8,6.4,61.9,7,62.4z"/>
			<path id="path32039" marker-start="none" marker-mid="none" marker-end="none" class="st20" d="M14.3,60.8
				c0.3,0.3-0.6,0.8-0.4,1.1c0.3,0.6,0.3,0.9-0.1,1.3c-0.2,0.2,0.5,1.2,0.8,0.1c0.2-0.7,0.2-0.9,0.8-1.1
				C15.4,62.2,14.5,61.3,14.3,60.8z"/>
			<path id="path32037" marker-start="none" marker-mid="none" marker-end="none" class="st19" d="M3,49.2C2.1,50,2.8,50.8,2.9,51
				c0.1,0.2,0.5-0.2,0.7-0.4c0.2-0.2-0.1-0.8-0.1-0.8C3.3,49.5,3.4,49.4,3,49.2z"/>
			<path id="path34267" marker-start="none" marker-mid="none" marker-end="none" class="st21" d="M60.4,18.6
				c-0.3,0.5,0,1.3-0.8,1.5c-0.3,0.1-1.3-0.4-1.4-0.5c-0.6-0.3-0.3-0.7-1.1-0.5c-0.4,0.1-0.3,1.4-0.4,1.7c-0.1,0.5-0.1,1.2,0,1.7
				c0.1,0.4,0.7,0.8,0.9,1c0.4,0.4,0.6,0.8,0.8,1.3c0.1,0.5,0.2,1.3,0.3,1.7c0,0.1-0.6,1.1-0.6,1.3c-0.4,0.8-1-0.2-1.3-0.4
				c-0.4-0.4-0.7-0.6-1.3-0.8c-0.5-0.1-0.7-0.6-1.3-0.8c-0.7-0.2-1,0.3-1.1,0.8c-0.2,0.8,0.5,0.8,0.8,1.1c0.5,0.5,0.4,0.7,0,1.1
				c-0.4,0.4-1.2-0.6-1.3-0.6c-0.3-0.3-0.4-1.1-0.5-1.4c-0.1-0.4-0.8-0.4-1.1-0.8c-0.4-0.4,0-1.3,0.1-1.5c0.3-0.7,2.2-0.1,2.8-0.1
				c0.5,0,0.5-0.8,0.9-1c0.8-0.4,0.4-0.1-0.5-0.1c-0.5,0-1,0.4-1.4,0.5c-0.8,0.2-0.4-0.9-0.3-1.1c0.4-0.7,0.3-0.9-0.1-1.3
				c-0.3-0.3-0.9,0.1-1.4,0c-0.4-0.1-0.8-0.7-1-0.9c-0.4-0.4-0.8-0.5-1.1-0.9c-0.5-0.5,0.4-0.9,0.6-1c0.5-0.2,1.1-0.3,1.7-0.3
				c0.8,0,0.9-0.3,0.9-1c0-0.7-0.5-0.8,0.6-0.8c0.5,0,0.8,0.5,1.4,0.6c0.2,0,1-0.4,1.5-0.4c0.7,0,1.1-0.1,1.3-0.6
				c0.3-1.1,0.9,0.6,0.9,0.6c0.2,0.9,0,0.9,0.5,1.4c0.5,0.5,0.8-0.6,0.9-0.9c0.2-0.7,1.1,0.6,1.1,0.8C60.4,18.2,60.4,18.4,60.4,18.6
				z M52.9,25.3c0,0.4-0.4,0.6-0.8,0.6c-0.5,0-0.8-0.3-0.8-0.6s0.4-0.6,0.8-0.6C52.5,24.6,52.9,24.9,52.9,25.3z M56.4,22.2
				c0,0.4-0.3,0.7-0.6,0.7c-0.3,0-0.6-0.3-0.6-0.7c0-0.4,0.3-0.7,0.6-0.7C56.1,21.5,56.4,21.8,56.4,22.2z"/>
			<path id="path34269" marker-start="none" marker-mid="none" marker-end="none" class="st22" d="M64.7,12.2
				c-0.1,0.4-0.5,0.7-1,0.7c-0.5,0.1-1.1-0.1-1.6-0.3c-0.4-0.3-0.7-0.7-0.6-1.1c0.1-0.4,0.5-0.7,1-0.7c0.5-0.1,1.1,0.1,1.6,0.3
				C64.5,11.4,64.7,11.9,64.7,12.2z"/>
			<path id="path34997" marker-start="none" marker-mid="none" marker-end="none" class="st23" d="M76.1,25.6
				c-0.4,0.2-0.9,0.2-1.4-0.2c-0.5-0.4-0.9-1-1-1.5c-0.1-0.6,0-1.1,0.4-1.3c0.4-0.2,0.9-0.2,1.4,0.2c0.5,0.4,0.9,1,1,1.5
				C76.6,24.9,76.5,25.4,76.1,25.6z"/>
			<path id="path34999" marker-start="none" marker-mid="none" marker-end="none" class="st24" d="M64.6,16.4
				c-0.2,0.2-0.5,0.3-0.9,0.2c-0.4-0.1-0.7-0.4-0.9-0.7c-0.2-0.3-0.2-0.7-0.1-0.9c0.2-0.2,0.5-0.3,0.9-0.2c0.4,0.1,0.7,0.4,0.9,0.7
				C64.7,15.8,64.7,16.1,64.6,16.4z"/>
			<path id="path35005" marker-start="none" marker-mid="none" marker-end="none" class="st25" d="M94.5,60.1
				c-0.3-0.1-0.5-0.6-0.5-1.2c0-0.6,0.2-1.3,0.6-1.8c0.3-0.5,0.8-0.7,1.1-0.5c0.3,0.1,0.5,0.6,0.5,1.2c0,0.6-0.2,1.3-0.6,1.8
				C95.2,60,94.8,60.2,94.5,60.1z"/>
			<path id="path35733" marker-start="none" marker-mid="none" marker-end="none" class="st26" d="M90.6,69.6
				c-0.3-0.2-0.4-0.7-0.3-1.3s0.5-1.2,0.9-1.6c0.4-0.4,0.8-0.5,1.1-0.3c0.3,0.2,0.4,0.7,0.3,1.3c-0.1,0.6-0.5,1.2-0.9,1.6
				C91.3,69.7,90.9,69.8,90.6,69.6z"/>
			<path id="path35735" marker-start="none" marker-mid="none" marker-end="none" class="st27" d="M62.4,37.9c0,0.3-0.3,0.6-0.6,0.6
				s-0.6-0.3-0.6-0.6s0.3-0.6,0.6-0.6S62.4,37.5,62.4,37.9z"/>
			<path id="path49567" marker-start="none" marker-mid="none" marker-end="none" class="st28" d="M63.1,64.5
				c-0.1,0.2-0.3,0.3-0.4,0.4c-0.2,0.2-0.4,0.4-0.5,0.7c-0.1,0.1-0.1,0.3,0,0.4c0.1,0.1,0.2,0.1,0.4,0.1c0.4-0.1,0.7-0.4,0.8-0.8
				C63.3,65,63.2,64.4,63.1,64.5z"/>
			
				<radialGradient id="path18151_1_" cx="-58.1595" cy="97.1689" r="24.4495" gradientTransform="matrix(1.0561 0.1727 0.3512 -2.1477 67.4412 298.688)" gradientUnits="userSpaceOnUse">
				<stop  offset="0" style="stop-color:#FDFDFE"/>
				<stop  offset="1" style="stop-color:#F1F1F2;stop-opacity:0.4694"/>
			</radialGradient>
			<path id="path18151" marker-start="none" marker-mid="none" marker-end="none" class="st29" d="M68.5,74c0.7-0.3,1.1-0.7,1.6,0
				c0.4,0.9-1.2,1.1-1.8,1.3c-0.8,0.2-1.3,0.6-2,0.9c-0.8,0.4,0.3-0.7,0.7-0.9C67.7,75,67.8,74.4,68.5,74z"/>
			<path id="path18149" marker-start="none" marker-mid="none" marker-end="none" class="st28" d="M74.9,52.3
				c0.5-0.3,0.7,1.3-0.1,1.7c-0.7,0.7-2,0.7-2.3,1.8c-0.3,0.8-0.6,1.8,0.1,2.5c0.4,0.8,1.3,0.8,2.1,0.9c1.1-0.2,1.3,1,1.8,1.6
				c0.8,0,1.6-2.4,2.6-0.8c0.7,0.5,0.5,2-0.2,2.2c-0.7,0.3-1.6-0.3-1.8,0.5c0,0.7-0.6,1.8-0.6,2.8c0.6,0.6,0.3,0.2,0.3,1.1
				c0.3,0.6,1,1.5,0.2,1.7c-0.8,0.4-1,1.7-1.7,2.2c-0.6,0.7-1.5,1.1-2.1,1.7c-0.5,0.4-1.7,1-2.1,0.5c0.5-0.7,1.2-1.2,1.8-1.8
				c0.7-0.4,1.2-1,1.9-1.4c0.6-0.3,1.3-1.3,0.7-1.9c-0.6-0.6-1.7-0.6-1.8-1.6c-0.3-1,0.8-1.6,0.7-2.5c0-0.5-0.4-2-0.7-0.8
				c-0.1,0.6-0.8,0.9-0.9,0.2c-0.4-0.9-0.2-2.1-0.9-2.7c-0.8-0.1-1.6,0.2-2.3,0.2c-1,0.3-1.3,1.3-1.8,2.1c-1,0.6-0.9-1.3-0.9-1.9
				c0.1-0.7-0.2-2.3,1-1.7c0.7,0.3,2,1.3,2.2-0.1c0.4-1-0.2-1.8-1.2-1.9c-1.1-0.3,0-1.5,0.3-2c0.6-0.5,0.7-1.4,1.3-1.8
				c0.8-0.2,1.7,0.3,2.5,0.3C73.6,53.2,74.3,52.5,74.9,52.3z"/>
			<path id="path18147" marker-start="none" marker-mid="none" marker-end="none" class="st28" d="M65.4,48c-0.3-0.4-1.7-1.1-2-1.1
				c-0.4,0-0.7-0.1-1.1-0.1c-0.1,0.2,0,0.5,0,0.7c0.1,0.5,0.2,2.1,0,2.5c-0.1,0.3-0.2,0.7-0.2,1c0.1,0.3,1.2,1.1,1.5,1.3
				c0.3,0.1,0.4-0.3,0.5-0.5c0.2-0.3,1-1,1.2-1.1c0.4-0.2,0.4-0.7,0.4-1.1C65.7,49.1,65.4,48.1,65.4,48z"/>
			<path id="path18145" marker-start="none" marker-mid="none" marker-end="none" class="st28" d="M62.4,56.6
				c0.3,0.1,0.3,0.5,0.2,0.7c-0.1,0.5-1.4,1.1-1.5,1.3c-0.2,0.6-0.3,1.2-0.3,1.9c0,0.4-1.3,1-1.5,0.7c-0.1-0.3,0.9-2.1,0.9-2.7
				c0.1-0.6-0.2-1.2-0.3-1.9c-0.1-0.7,0.3-1.4,0.6-2C60.8,54.4,62.1,56,62.4,56.6z"/>
			<path id="path18143" marker-start="none" marker-mid="none" marker-end="none" class="st28" d="M59.2,65.5c0.1-0.1,0-0.3-0.1-0.2
				c-0.3,0.1-0.7,0.3-1,0.4c-0.3,0.1-0.7,0.3-1.1,0.2c-0.2,0-0.3-0.1-0.5-0.2c-0.3-0.2-0.5-0.4-0.6-0.7c-0.1-0.2-0.1-0.3-0.1-0.5
				c0-0.2,0.2,0,0.3,0c0.5,0.3,0.9,0.7,1.4,0.9c0.2,0.1,0.5,0,0.7,0.1C58.5,65.5,58.9,65.5,59.2,65.5z"/>
			
				<radialGradient id="path18141_1_" cx="-218.4419" cy="401.0687" r="24.4495" gradientTransform="matrix(0.8102 0.3165 0.3661 -0.9371 70.2775 524.9318)" gradientUnits="userSpaceOnUse">
				<stop  offset="0" style="stop-color:#FDFDFE"/>
				<stop  offset="1" style="stop-color:#F1F1F2;stop-opacity:0.4694"/>
			</radialGradient>
			<path id="path18141" marker-start="none" marker-mid="none" marker-end="none" class="st30" d="M43.1,82c-0.8-1.1-2-2.9-3.1-4.1
				c-1.4-1.4-2.4-3.1-3.2-4.9c-0.9-1.3-1.6-3.6-2.6-4.3c0.1,0.9-1.2,1.5,0.3,2c1.6,0.7,0.9,2.8,2.3,3.7c0.7,1.6,1.7,3,2.8,4.4
				c0.7,0.9,2.8,2.4,2.6,3c-0.7-1.7-2.7-2.7-4.5-2.7c-1.4,0.6,1.4,1.4,2.1,1.1c0.9,0,2.7,1.6,0.9,0.9c-1.1,0.8-2.2-1-3-0.2
				c0.3,0.5,2.7,0.8,2.1,1.1c-0.7,0-2.5-1.2-2.4,0c0.9,0.5,2.3,0.2,3,0.8c-0.5,0.8-1.3,0.7-1.9,1.1c-0.2,1.4,2.6,0.1,1.1,1.3
				c-1.6,1.6,1.8,0,1.6,0.1c-0.9,1.1,0.4,0.8,0.8,0.7c-0.7,1.5-1.7,2.7-2.5,4.1c-1,1.2-1.7,2.6-2.9,3.6c-0.5,1.2,1-0.5,1.3-0.8
				c1.6-1,2.6-2.7,3.5-4.2c0.5-0.9,1.2-2,1.7-2.7c0.9,1.3-0.1,2.8,0.3,4.4c1.3,0.9-0.3,2.6,0.4,3.4c2.3,0.1,1.4-2.4,1.4-3.7
				c-0.2-0.9,0.6-1.6,0.9-0.5c-0.1,0.8,0.5,1.4,0.5,0.3c0-0.8,0.1-1.2,0.3-0.2c0.2,0.6,1.5,2.7,1.2,0.9c0-1-1.5-2.4-0.3-3.1
				c1,0.6,1.9,1.3,0.9,2.4c-1,0.5,0.9,2.2,1.4,1c1,0.2,1.3-0.6,1.6-1.2c1.2,1,3.3,0,4-1C55,89,53.5,88.3,55,88.5
				c0.6,0.2,2.2,0.5,0.9-0.3c0.2-0.8,2.1,0.2,2.9,0.1c0-1-2.1-0.5-1.5-2c-0.4-0.9-1.9,1.7-1.8-0.1c-0.5-1.1-1,0.5-0.8,1
				c-1-0.6-1,1.7-1.2,0.2c0.3-0.7,1.1-2.1,0.5-2.8c-0.6,0.7-2,0.6-2.7,0.3c1.6,0,3.1-0.4,4.6,0.1c1.3,0,1.8-0.9,2.6-1.7
				c1,0.1-0.4-2.5-0.8-1c-0.4,1.6-1.8,1.1-2.8,0.6c-0.4,0.4-2.1,0.8-2,0.4c1.3-0.4,3.1-0.3,3.9-1.1c-0.2-0.4,0.8-1.2,0.1-1.1
				c0.8-1,1.4,1,2.1-0.4c1.7-0.5,3.6-0.7,5.2-1.5c0.9-0.8,3.4-1.2,3.4-2.3c-1.6,0.1-2.9,2-4.7,1.9c-1.6,0.8-3.4,1.6-5.2,1.6
				c-0.6,0-2.4,0.1-0.8-0.4c1.3-0.1,3.2,0.1,4-1.2c-0.5-1.1-3,1.3-3.3,0.1c1.2-1,2.4-1.9,3.6-2.9c0.9-0.6,2.9-1.5,1.4-2.6
				c0.8-1.2,4.6-0.8,3.5-3c-1.8-1.5-2,1.8-3.4,1.9c-0.6-0.6-2.5,0.2-1.9-1.1c-1.2-0.4-2.9,1.9-0.7,1.7c0,0.8,0.9,2.3,1.5,1.6
				c-0.4-1.3,1.5-0.5,0.4,0.3c-0.8,0.6-1.7,1.7-2.7,1c-1.1,0.5-1.1-0.4-0.5-1c-1-0.6-2.3,0.4-2.2-1.4c-0.9-0.1-2.6,0.2-1.2-1
				c1.5-1,1.7-2.9,2.9-4.1c0.8-0.4,1.3-2-0.1-1.1c-0.8,1.1-0.9,3.5-2.3,3.7c0.1-1.5-1.3,1.1-0.8-0.5c0.4-0.7,0.1-1.5-0.2-0.4
				c0.2,1.2-2,2.3-1.1,3.2c0.9-0.1-0.8,2.6-1,0.7c-0.2-0.6-0.1-2-0.9-0.9c-0.3,1.5-1.6,0.5-1-0.6c-0.3-1.1,0.9-2.3,0.7-3
				c-1.3,1.2-1-1.3-2.1-1c-0.4,1.4,2.1,1.7,1.1,3.3c-0.4,1.9-0.6-1.5-1.5-0.1c-1.3,0.2-0.8,2.6-2.5,2.1c-0.3-1.4-1.2-0.7-1.2,0.4
				c-0.9,0.1-1.2-1.3-2.2-0.5c-0.7-0.2-1.2-0.8-1.4,0.4c-0.7,0.3-2-1-1.9,0.6c0,1.2,1.7,0.6,1.6,2c0.8,0.5,0.2,0.2,0,0.5
				c0.9,0.6,2.3,1.7,1.5,2.8c-1.1-1.2-2.6-2.1-3.2-3.8c-1.1-1.3-1.3-3.1-2.3-4.5c-1.9-1-0.7-2.9-1.3-4.5c-1-1.5-2.2,0.9-0.8,1.5
				c0.8,1.4,1.5,2.8,2.2,4.2c0.4,1.7,1.4,3,2.3,4.5c0.9,1.2,2.3,2.1,2.9,3.4c-1.4-0.9-2.1-2.4-3.3-3.4c-0.2-0.4-1.3-2.2-1.2-1.2
				c1,1.5,2.3,2.7,3.4,4.2C42,80.7,43.2,81.2,43.1,82z"/>
			<path id="path18160" marker-start="none" marker-mid="none" marker-end="none" class="st31" d="M71.6,18c0.1,1-0.5,2-0.3,3
				c0,1,0.3,2.2-0.5,3c-0.5,0.8-0.7,1.8-0.9,2.7c-0.2,0.7-0.6,1.4-0.7,2.1c-0.4,0.8-0.4,1.7-0.6,2.6c-0.1,0.7-0.2,1.5-0.2,2.3
				c0.2,0.5,0.4-0.7,0.5-0.9c0.2-0.9,0.8-1.7,0.9-2.6c0-0.9,0.7-1.6,0.8-2.6c0.2-0.8,0.7-1.4,0.9-2.2c0.3-0.9,0.3-1.9,0.4-2.8
				c0.2-0.9,0.3-1.9,0.3-2.8c0.2-1,0.3-2,0.4-3c0.3-1,0.2-2,0.5-2.9c0.1-0.3,0.5-1.7,0-0.9c-0.4,0.9-0.6,1.8-0.9,2.7
				C72.2,15.9,71.3,16.8,71.6,18z"/>
			<path id="path50311" marker-start="none" marker-mid="none" marker-end="none" class="st32" d="M44.3,74.5c0,0.6-0.6,1.1-1.3,1.1
				c-0.7,0-1.3-0.5-1.3-1.1s0.6-1.1,1.3-1.1C43.7,73.4,44.3,73.9,44.3,74.5z"/>
			<path id="path51070" marker-start="none" marker-mid="none" marker-end="none" class="st27" d="M70,49.4c0,0.3-0.3,0.6-0.6,0.6
				c-0.3,0-0.6-0.3-0.6-0.6c0-0.3,0.3-0.6,0.6-0.6C69.7,48.8,70,49.1,70,49.4z"/>
			<path id="path51072" marker-start="none" marker-mid="none" marker-end="none" class="st33" d="M73.7,37.5c0,0.3-0.2,0.6-0.5,0.6
				c-0.3,0-0.5-0.3-0.5-0.6c0-0.3,0.2-0.6,0.5-0.6C73.4,36.9,73.7,37.1,73.7,37.5z"/>
			<path id="path51074" marker-start="none" marker-mid="none" marker-end="none" class="st34" d="M45.8,28.2c0,0.3-0.2,0.6-0.6,0.7
				c-0.4,0.1-0.8,0.1-1.2,0c-0.4-0.2-0.6-0.4-0.6-0.7c0-0.3,0.2-0.6,0.6-0.7c0.4-0.1,0.8-0.1,1.2,0C45.5,27.6,45.8,27.9,45.8,28.2z"
				/>
			<path id="path51076" marker-start="none" marker-mid="none" marker-end="none" class="st35" d="M41.6,68.7c0,0.5-0.4,0.9-0.8,0.9
				c-0.5,0-0.8-0.4-0.8-0.9c0-0.5,0.4-0.9,0.8-0.9C41.2,67.8,41.6,68.2,41.6,68.7z"/>
			<path id="path51806" marker-start="none" marker-mid="none" marker-end="none" class="st35" d="M39.8,60.8c0,0.5-0.4,0.9-0.8,0.9
				s-0.8-0.4-0.8-0.9c0-0.5,0.4-0.9,0.8-0.9S39.8,60.3,39.8,60.8z"/>
			<path id="path51808" marker-start="none" marker-mid="none" marker-end="none" class="st35" d="M39.1,61.1c0,0.5-0.4,0.9-0.8,0.9
				c-0.5,0-0.8-0.4-0.8-0.9c0-0.5,0.4-0.9,0.8-0.9C38.7,60.2,39.1,60.6,39.1,61.1z"/>
			<path id="path51810" marker-start="none" marker-mid="none" marker-end="none" class="st35" d="M40.2,67.6c0,0.5-0.4,0.9-0.8,0.9
				s-0.8-0.4-0.8-0.9c0-0.5,0.4-0.9,0.8-0.9S40.2,67.1,40.2,67.6z"/>
			<path id="path52538" marker-start="none" marker-mid="none" marker-end="none" class="st35" d="M28.1,63.8c0,0.5-0.4,0.9-0.8,0.9
				c-0.5,0-0.8-0.4-0.8-0.9c0-0.5,0.4-0.9,0.8-0.9C27.7,62.9,28.1,63.3,28.1,63.8z"/>
			<path id="path52540" marker-start="none" marker-mid="none" marker-end="none" class="st35" d="M82.8,58.7c0,0.5-0.4,0.9-0.8,0.9
				c-0.5,0-0.8-0.4-0.8-0.9c0-0.5,0.4-0.9,0.8-0.9C82.4,57.8,82.8,58.2,82.8,58.7z"/>
			<path id="path53271" marker-start="none" marker-mid="none" marker-end="none" class="st6" d="M6.6,65.1c0.1,0.3,0.6,1.4,0.8,1.8
				c0.5,1,0.9-0.2,1-0.4c0.3-0.5,1.4,0.9,1.5,1c0.4,0.4,1.2-0.1,1.4-0.3c0.7-0.4,1.3-0.1,0.5,0.3c-0.6,0.3-0.5,0.8-0.3,1.3
				c0.3,0.5,0.2,1.2,0.4,1.5c0.2,0.4-0.6,0.5-1.1,0.5c-0.6,0-1-0.4-1.4-0.8c-0.3-0.2-1.1,0.6-1.3,0.6c-0.4,0.2-0.5,1.5-0.8,0.4
				c-0.1-0.4,0.8-0.8,1-0.9C9.2,70,9,69.4,8.3,69.3c-0.8-0.2-0.2-0.6,0.1-0.9c0.3-0.3-0.8-0.4-1.1-0.8c-0.4-0.4-0.5-0.7-0.6-1.3
				C6.4,65.5,6.9,66.2,6.6,65.1z M9.1,58.8c0,0,0.9,1,1,1.3c0.3,0.6,0.6,1.2,0.8,1.8c0.2,1-0.5-0.1-0.6-0.3
				c-0.5-0.5-0.8-0.5-1.3-0.3c-1.1,0.5-0.2-0.7-0.1-0.8C9.2,60.2,9.1,59.5,9.1,58.8z M69.4,3.9C79.9,8.3,88,15.7,93,24.2
				c-1.4,0.1-2.5-0.9-3.4-2c-0.8-0.9-0.7-2.9-2.2-3c-1.1,0.8,0,2,0.5,2.8c0.6,0.9-0.6,1.8-0.9,0.5c-0.7-1.2-0.8-2.8-1.7-3.9
				c-0.6-1.3-1.2-2.6-2.5-3.3c-1-0.8-2.4-1.2-3.5-1.9c-1.4-0.1,0.3,1.8,0,2.6c-0.7,0.8-0.8-2.2-1.2-0.6c-0.1,0.5-0.3,1.2-0.2,0.3
				c0.1-1,0.2-2.3,1.3-2.6c-0.2-1.7-2.3-0.3-3-1.6c-0.8-0.8-2.1-0.6-2.9-0.5c0,1.6-1.5-0.5-1.7-1.1c-1-0.5-2-1.3-3-1.8
				C68.4,8.6,66.1,9,67.4,8c0.6-0.4,1.9-1.2,0.4-1c-1.3-0.1-2.5,0.1-3.6,0.8c0.5-1,1.5-2,2.7-1.7c1.1,0.1,2.8,0.2,2.5-1.4
				C69.4,4.5,69.4,4.2,69.4,3.9z M25.9,6.2c9.4-5.1,22.4-8.3,36.9-4.4c-1.2,0.2-3.4,1.7-4.5,0.7c-0.9-0.5-2.7-0.3-1.9,1.1
				c-0.9,0.5-2.3-1-3.1,0.1C53,4.2,54.5,5,53.1,4.9c-1.5,0.3-1.3-1.9-2.7-1.4c-1.6-0.1-0.6-1.8,0.5-1.7c0.9,0,0.9-0.7,0-0.7
				c-0.7-0.2-3.3-0.8-2.1,0.6c-0.4,0.5-2.3,0.1-1.1,1.1c0.6,1.2-1.8,0.7-1.5-0.3c-1,0.2-1.6-0.2-0.8-1c-1.3-0.1-2.5,0.3-3.8,0.3
				c-1.6,0.3-3,1.2-4.6,1.4c-2.2,0,0.2,2.5-1.5,3.2c-1,0.6-2.3,0.1-3.4,0.5c-1.3,0.3-2.6,0.6-3.5,1.7c-0.8,0.6-3,1.3-2.5-0.5
				C26.1,7.7,26,6.7,25.9,6.2L25.9,6.2z M99.3,40.9c-1-6.1-3.3-11.8-5.7-15.7c-0.2-0.7-1.8-0.5-1.8,0.2c-0.3,0.7,0.8,1.3,0.3,1.8
				c-0.5,0.1-0.9,0.5-0.3,0.9c0.5,0.6,1.3,0.8,1.9,1.2c0.5,0.4,0.8,1.2-0.1,1.3c-0.7,0.4-0.4,1.4,0.3,1.5c0.6,0.3,1.4,0.2,1.8,0.7
				c0.4,0.7,0,1.6,0.4,2.3c0.4,0.7,0.3,1.6,0.4,2.4c0.2,0.9,0.3,1.9,1,2.5C97.9,40.5,98.7,40.6,99.3,40.9z M94.4,70.9
				c1-0.5-1.5,1.8-2,2.9c-0.4,0.7-0.8,1.3-1.3,1.8c-0.6,0.6-0.7,0.9-1.4,1.3c-0.9,0.5,0.1-1.3,0.2-1.4c0.4-0.4,1-1,1.4-1.4
				c0.5-0.5,0.8-1.1,1.1-1.6C92.8,71.6,93.4,71.3,94.4,70.9z M86.3,76.2c0.3-0.6-0.8,1.3-1.4,1.6c-0.7,0.4-1.1,0.9-1.1-0.5
				c0-0.6,0.8-1.5,1.1-1.8c0.5-0.5,1.1-0.8,1.6-1.1C87,74.1,86.5,75.6,86.3,76.2z M89.9,72.9c0.7-0.3-0.7,1.4-0.9,2.2
				c-0.2,0.8-0.9,0.9-1.8,0.9c-0.2,0-0.8,1.4-1.3,1.6c-1.1,0.5-1.3,1.1-0.9,1.8c0.4,0.8,1.5-0.6,1.6-0.7c0.6-0.6,0.6-1.2,1.1-1.6
				c0.6-0.6,1-1,1.4-1.4c0.4-0.4,0.6-1.4,0.7-2C90,73.4,89.9,73.2,89.9,72.9z M23.9,91.5c14,8.5,31.6,9.6,46.9,2.8
				c-1-0.3-2.8-0.9-4.2-0.5c-1.4,0.1-1.8,2.4-3.6,1.6c-1.1-1.1-2.8-0.5-4-1.2c-0.8,0.3-1.6,1.1-2,0.2c-1.4,0.1-2.6,1.2-4,0.1
				c-1.7-0.8-2.1,0.8-1,1.3c-1.5,0.3-3.2-0.5-4.1-1.6c0.2-0.9,0.3-2.4-1.1-1.8c0,1.2-1.2,1.8-1.8,2.2c-1.2-1.6-2.4-0.2-3.5,0.6
				c-1.5,0.3-2.8-1.1-4.3-0.4c-1.1,0.4-2-0.2-1.8-1.4c-1-0.1-3.4-1-1.6-2c-1.5-0.4-3.1,0-4.3-1.1c-0.5-0.6-3.2-1-1.6,0.1
				c1.4,0.2,2.3,2.5,0.2,2.1C26.6,92.7,25.3,90.1,23.9,91.5z M83.5,52.2c-0.5-0.1-1.1-0.5-1.3-1.1c-0.1-0.5,0.1-1.2,0.3-1.7
				c0.1-0.5-0.9,0.1-1.4,0c-0.6-0.2-0.5-0.6-0.8,0.4c-0.2,0.8,0.1,1.2-0.1,1.7c-0.1,0.3-1,0.6-1.1,0.8c-0.6,0.6-0.1,1,0.1,1.3
				c0,0,1.2-0.7,1.3-0.8c0.5-0.4,0.7-0.3,1-0.9c0.2-0.4,1.3,0.9,1.3,0.9C83.3,53.2,83.5,53.2,83.5,52.2z"/>
			<path id="path25470" marker-start="none" marker-mid="none" marker-end="none" class="st17" d="M78,11.2c0.1-0.4-1.1-1.3-1.7-1.3
				c-0.8,0.1-0.1,0.8,0,0.9C77.5,11.9,78,11.4,78,11.2z"/>
			<path id="path37191" marker-start="none" marker-mid="none" marker-end="none" class="st36" d="M85,35.2c0,0.2,0.9,0.7,1.1,0.9
				c0.2,0.2,0.7,0.5,1,0.6c0.3,0.2,0.6,0.4,0.8,0.6c0.3,0.3,0.5,0.6,0.7,0.9c0.2,0.2,0.2,0.8,0.2,1.2c0,0.4-0.4,0.5-0.4,1.1
				c0,0.2,0.7-0.1,0.7,0.1c0.1,0.3,0.3,0.7,0.5,0.9c0.2,0.5,0,0.7-0.4,0.8c-0.4,0.1,0,0.8-0.3,1.1c-0.3,0.3-0.5,0.4-1,0.4
				c-0.7,0-0.2,0.6,0,0.7c0.3,0.2,0.4,0.6,0.4,0.8c0,0.7-1.3-0.5-1.4-0.6c-0.2-0.5-0.8,0.4-0.8,0.5c-0.3,0.5-0.4-0.3-0.3-0.5
				c0.1-0.2,1.1-0.1,1.3-0.2c0.4-0.1,0-0.8-0.2-1.2c-0.1-0.2,0.5-0.1,0.7-0.1c0.3,0.1,0.2-0.7,0.5-0.9c0.3-0.3,0.2-0.7-0.3-0.7
				c-0.6,0-0.7-0.1-0.8-0.5c-0.1-0.4-0.7-0.3-1-0.4c-0.4-0.1-0.7-0.2-0.9-0.5c-0.3-0.3-0.4-0.4-0.5-0.8c-0.1-0.4-0.2-0.8-0.3-1.2
				c-0.1-0.5-0.1-0.7-0.3-1.1c-0.2-0.5-0.4-0.5,0-0.8C84.5,36,84.6,35.8,85,35.2z"/>
			<path id="path37919" marker-start="none" marker-mid="none" marker-end="none" class="st37" d="M86.2,39c-0.1,0.1-0.2,0-0.3-0.1
				c-0.1-0.1-0.1-0.3,0-0.3c0.1-0.1,0.2,0,0.3,0.1C86.3,38.7,86.3,38.9,86.2,39z"/>
			
				<radialGradient id="path16675_1_" cx="149.096" cy="578.8047" r="1.6344" gradientTransform="matrix(1 0 0 -0.7353 0 507.6712)" gradientUnits="userSpaceOnUse">
				<stop  offset="0" style="stop-color:#8C8C8C"/>
				<stop  offset="0.6731" style="stop-color:#8C8C8C"/>
				<stop  offset="1" style="stop-color:#8C8C8C;stop-opacity:0"/>
			</radialGradient>
			<path id="path16675" marker-start="none" marker-mid="none" marker-end="none" class="st38" d="M48.3,82.9
				c0.5,1.2-0.4,2.6-1.9,3.1c-1.5,0.4-3.1-0.2-3.6-1.4c-0.5-1.2,0.4-2.6,1.9-3.1C46.2,81,47.8,81.7,48.3,82.9z"/>
			<path id="path7185" marker-start="none" marker-mid="none" marker-end="none" class="st39" d="M46.9,83.3
				c0.2,0.6-0.2,1.3-0.9,1.5c-0.7,0.2-1.5-0.1-1.8-0.7c-0.2-0.6,0.2-1.3,0.9-1.5C45.9,82.4,46.7,82.7,46.9,83.3z"/>
			<g id="g2440">
				<path id="path34241" class="st40" d="M41.7,34.6c0-1.6,0.4-3.1,0.3-4.7c-0.2-1.7,0.4-3.4,0.1-5.1c-0.7-0.6-0.6,1.8-0.6,2.4
					c0.4,1.4-0.7,2.8,0,4.1c0.4,1.2-0.4,2.7-1.1,3.6c-2,0.1-0.5-2.5-0.2-3.5c0-1.7-0.3-3.4-0.8-5.1c0-0.8-1.1-3.3-0.9-1.1
					c-0.1,1.5,0.5,2.9,0.7,4.4c0,1.5,0.1,3.1-0.2,4.6c-0.8,0.5-3.4,0-2.8-1.1c1.9,0-1.9-2.4,0.5-2.6c0.9-0.3,1.7,0.8,1.7-0.8
					c0.8-2.2-1.8-1.5-2.8-0.7c-0.2-1-0.1-3-0.8-3.4c-1,1.3,0.5,2.7,0.2,4.1c-0.1,0.6,1,1.3-0.3,1.2c0.2,1.1,0.1,2.1-1.2,2.5
					c-0.4,1.8-2.2,0.3-3.2,0c-0.4-1.7-2.7-0.4-3.6-1.8c-0.4-0.6-1.4-0.6-0.4,0.1c1.2,1.2,3.2,1.4,4,3c-1.4,0.3-2.6-1.1-3.9-1.5
					C26,32.6,23.2,32.2,25,33c1.6,0.9,3.3,1.6,4.7,2.7c-0.5,0.8-2.7-0.2-3.8-0.3c-0.5,0.2,1.8,1.2,2.5,1.3c-0.6,0.2-2.9,1-1.2,1.2
					c1,0.2,2.5-1.6,3-0.6c-0.3,0.9,0,1.7-0.3,2.5c0.3,0.8,2.9,1.5,0.8,1.7c-0.9-0.1-2.5,0.5-0.8,0.8c1.2-0.1,2.8,0,3.7-0.3
					c-1.3,0.6-2.7,0.9-4,1.2c-0.8-0.3-3-0.9-3.1-0.2c0.9,1,3,0.3,3.6,1.3c-1-0.3-3.2-0.7-2.5,1.1c-0.4,1-0.6,1.9,0.5,2.5
					c0.1,1.5,2.7,0.3,2.1,1.8c1.2,0.3,2.6,0.6,2.9,2.1c0.4,0.5,0.2,2.4,1.2,1.2c-0.4-1.3-0.5-2.7-1.2-4c-0.6-1.3,0.4,1.3,0.9,1.4
					c0.9,1,1.2-1.8,2.1-0.3c1.4,0.4-1.3-1.9,0.5-2c1.8-0.4,1.1,2.4,1.1,3.4c0,0.8,0,1.9-1.1,1c-1.4-0.5-0.4,1.2-1.2,1.7
					c-0.3,1.2,0.7,2.6,1.7,1.3c0.5,1.4,1.6,2.4,2.8,3.2c1,0.9,1.4,2.1,1,3.3c0.9,0.1,1-1.5,2.2-1.4c0.6-1.2,0-3.1-1.3-3.6
					c-0.9-0.9,1.7-0.9,1.2-2.2c0.4-0.7,0.1-3.2-0.7-1.9c0.7,1-0.2,2.3-0.5,0.7c0.7-1.2-0.5-1.8-1.1-2.6c0.4-1.8-1.3-3.1-0.5-4.9
					c0.1-0.6,1,0.9,1.7,0.5c1.4,0.3,2.8,0.2,4.2,0.3c2.1-0.2-1.1-1.7-1.9-1.5c-1.3,0.5-2.6,0.1-3.6-0.7c-1.9-1.1,1.3-1.6,2.1-1
					c1,0.4,1.6,1.8,2.4,2c0.9-0.8,0.4-2.6,1.7-2.9c0-0.8-2.4-1.7-0.3-1.9c1.5-1.1-1.4-1.2-2.1-1.6c0.2-0.9,2.2-1.8,0.7-2.9
					c-1.1,0-0.8-1.9-1.8-0.7c-1.8,1.1-0.2-1.3-0.4-1.7C42.6,33.7,42.2,34.4,41.7,34.6z"/>
				<path id="path34243" marker-start="none" marker-mid="none" marker-end="none" class="st41" d="M38.1,37.8
					c-0.5-0.7-0.9-1.7-1.9-1.8c-0.6-0.2-1.4-0.1-1.6,0.6c-0.3,0.7,1.1,0.5,1.5,0.8c0.3,0.4,0.9,0.9,0.9,1.4
					c-0.6,0.3-1.3,0.6-2.1,0.6c-0.7,0.2-1.1-0.6-1.3-1.1c-0.3-0.7-1-1.1-1.1-1.9c0-0.5-0.4-1.7-0.8-0.7c-0.3,0.6,0,1.2,0.4,1.7
					c0.4,0.7-0.9,0.6-1,1.1c-0.3,0.7,0.3,1.6,1.1,1.6c0.4,0.1,1.8,0,1.1,0.6c-0.4,0.1-0.7,0.4-0.1,0.4c0.6,0.3,2-0.1,2,0.9
					c-0.6,0.5-1.4,0.8-1.6,1.6c-0.2,0.5-0.3,1.5,0.5,1.1c0.4-0.1,0.8-1.4,0.8-0.4c0,0.7-0.2,1.5,0.3,2c0.4,0.1,1.1-0.7,0.9,0.2
					c-0.2,0.5,0,1,0.6,0.7c0.8-0.6,0.7,1.1,1.6,1c0.9,0.1,0.6-0.9,0.2-1.2c-0.6-0.1-1-0.6-1-1.3c-0.2-0.6-1.4,0.1-1.4-0.7
					c0.1-0.6,0.4-1.5-0.5-1.5c-1-0.3,0.5-0.9,0.9-1c0.8-0.2,1.8,0.3,2.6-0.3c0.7-0.4,1.3-1,2.2-0.9c0.6,0.3,1.3,0.2,1.9,0.5
					c0.4,0.4,0.7,0.9,1.4,1c0.4,0.1,1.3,0.3,0.8-0.4c-0.3-0.6-0.9-0.8-1.4-1.1c-0.3-0.2-1.3-0.8-0.3-0.8c0.7,0.2,1.2-0.1,1-0.9
					c0.2-0.8-1.2-0.8-1.1-0.1c-0.1,0.6-0.4,1.4-1.1,1.5c-0.8,0-1.5-0.1-2.3-0.3c-0.4-0.3-1.1-1.3-0.2-1.3c0.4-0.1,1.4-0.3,0.7-0.8
					c-0.4-0.5-1.2-0.6-1.3-1.3c0.2-0.7-0.6-1.5-0.9-0.5C38.2,36.9,38.1,37.3,38.1,37.8z"/>
				<path id="path34245" marker-start="none" marker-mid="none" marker-end="none" class="st10" d="M38.3,39.4
					c0-0.2-0.2-0.3-0.3-0.2c-0.5,0.1-0.9,0.4-1.4,0.5c-0.3,0-0.6,0.2-0.7,0.5c-0.1,0.3-0.3,0.6-0.2,0.9c0,0.3,0.2,0.5,0.5,0.6
					c0.3,0.1,0.7,0.2,1,0.3c0.5,0.1,1.1,0.2,1.6,0.1c0.3,0,0.5-0.2,0.7-0.4c0.2-0.3,0.3-0.6,0.2-0.9c-0.1-0.2-0.2-0.5-0.4-0.7
					C38.9,39.7,38.6,39.6,38.3,39.4C38.3,39.4,38.3,39.4,38.3,39.4z"/>
				<path id="path34247" marker-start="none" marker-mid="none" marker-end="none" class="st40" d="M26.8,39.2c-0.7-1.9-3-2.6-1.4-5
					c-3.5-0.5-0.3-2.8-2.5-4.7c1.8,0,2.8,2,1.8-0.9c1.1-2.6,2.6,0.9,4.4-1.2c3.5-1,0.7-3.2-1.5-1.7c-1.7,0.8-4.7-0.9-1.1-1
					c4.4-1.2-0.7-2.9-2.7-2.6c-2.4,0,1.4-5.8-1.6-3.2c1,4.6-6.2,2-5.8,4c2.4,1.2-4,2.9-4.7,5C10,29.3,7.4,32,11,29.3
					c3.1-0.9,7.3-7.3,9.7-4c-1.6,2.6-3.1,5.4-6.3,3c-2,1.6,4.2,1.5,1.4,4.2c-0.3,3.7,2.6-3.3,2.2,1c0.8-3.3,1-0.7,2-0.3
					c3.6-2.2,1.1,2.1-0.9,2.8c-4.6,2.4,4.7,3.2,0.6,5.2c-0.5,1.3-8.7-0.2-3.7,1.1c2.5-0.3,4.6,0.5,1,1.1c-2.8,3.7,3.5-1,3.5,1.9
					c0.3,2.2,3.9,3.4,2.3,0c0.6-3.3,1.8,1.2,1.7,1.2C25.4,44.4,27.2,41.9,26.8,39.2z"/>
				<path id="path34249" marker-start="none" marker-mid="none" marker-end="none" class="st41" d="M26.3,40.6
					c-0.4,0.1-0.7,0.4-1.1,0.3c-0.4-0.1-0.1-0.7-0.5-0.8c-0.4-0.1-0.7-0.5-0.7-0.9c0-0.3,0-0.9-0.5-0.9c-0.4,0-0.8,0.2-0.7,0.6
					c0,0.4,0.2,0.7,0.2,1.1c-0.3,0.3-0.7-0.4-0.9,0.1c-0.2,0.3-0.3,0.7-0.7,0.6c-0.2,0-0.5-0.1-0.7-0.1c0.2,0.3,0.5,0.5,0.8,0.8
					c0.1,0.4-0.5,0.4-0.8,0.5c-0.5,0.1-1,0-1.4,0.2c-0.4,0.1-0.1,0.3,0.1,0.3c0.7,0.1,1.5-0.1,2.2-0.2c0.4,0.1,0.3,0.7,0.4,1
					c0,0.2,0.2,0.5,0.2,0.7c-0.1-0.4,0.7-0.3,0.8,0c0,0.2,0.2,0.4,0.3,0.1c0.1-0.2,0.1-0.9,0.5-0.6c0.2,0.2,0.3,0.6,0.4,0.8
					c0.2-0.2,0.3-0.6,0.4-0.9c0.1-0.4,0.5-0.4,0.8-0.3c0.3,0,0.7,0.2,1,0c-0.2-0.3-0.6-0.5-0.9-0.8c-0.2-0.1-0.3-0.2,0-0.2
					c0.5-0.1,1-0.1,1.5-0.1c-0.5-0.1-1-0.2-1.5-0.3c0.1-0.3,0.4-0.5,0.6-0.7C26.2,40.7,26.2,40.6,26.3,40.6z"/>
				<path id="path34251" marker-start="none" marker-mid="none" marker-end="none" class="st42" d="M20.5,28.1
					c-0.7-0.1-1.1,0-1.4,0.6c0,0-1.1,0.7-1.1,0.8c-0.7,0.7,0.3,0.1,0.5-0.1c0.3-0.3,1.3-0.1,1.8-0.1C20.9,29.2,20.7,28.6,20.5,28.1z
					"/>
				<path id="path34253" marker-start="none" marker-mid="none" marker-end="none" class="st10" d="M20.7,26.5
					c0.2,0,0.5,1.2-0.6,0.9c-0.5-0.1,0-1.2,0-1.3C20.1,25.9,20.4,26.4,20.7,26.5z"/>
				<path id="path34255" marker-start="none" marker-mid="none" marker-end="none" class="st10" d="M23.7,41.1
					c0-0.1-1.3,0.9,0.1,0.9C24.4,42,23.9,41.4,23.7,41.1z"/>
			</g>
		</g>
		<g id="g1507">
			<g id="g31291" transform="matrix(0.973198,0,0,0.973198,10.05795,9.989903) ">
				<path id="path21796" marker-start="none" marker-mid="none" marker-end="none" class="st43" d="M92.4,40.5
					c0,28-23,50.7-51.4,50.7s-51.4-22.7-51.4-50.7c0-28,23-50.7,51.4-50.7S92.4,12.5,92.4,40.5z"/>
			</g>
		</g>
	</g>
</g>
</svg>
