<?xml version="1.0" encoding="utf-8"?>
<!-- Generator: Adobe Illustrator 21.0.0, SVG Export Plug-In . SVG Version: 6.00 Build 0)  -->
<svg version="1.1" xmlns="http://www.w3.org/2000/svg" xmlns:xlink="http://www.w3.org/1999/xlink" x="0px" y="0px"
	 viewBox="0 0 100 101.7" style="enable-background:new 0 0 100 101.7;" xml:space="preserve">
<style type="text/css">
	.st0{fill:#CDABC8;}
</style>
<g id="Слой_2">
</g>
<g id="Слой_1">
	<g id="Layer_x0020_1">
		<path class="st0" d="M50.1,94c-8.4,11.5-15.9,9.9-14.5-3.1c-15.2,6.6-21.2,2.2-11.4-8.4C4.5,82,0.7,75.9,16.9,70.8
			c-21.5-8.4-22.8-15.2-2.5-13.2c-20.3-16.1-19-23,2.5-13.3C0.7,21,4.5,14.9,24.2,32.6c-9.8-28.6-3.9-33,11.4-8.3
			c-1.4-31,6.2-32.6,14.5-3c8-29.5,15.6-28,14.5,3C79.5-0.4,85.5,3.9,76,32.6c19.4-17.6,23.2-11.5,7.3,11.8
			c21.2-9.7,22.5-2.8,2.5,13.2c20-2,18.7,4.8-2.5,13.2C99.3,75.9,95.4,82,76,82.5c9.4,10.6,3.5,15-11.4,8.4
			C65.7,103.9,58.2,105.5,50.1,94z M49.7,90.4c5.7,9.5,11.8,8.3,11.7-2.4c12.3,5.7,17.8,2.2,10.5-6.7c16.9-0.2,20.7-5.6,7.3-10.5
			c19.1-7.9,20.5-14.9,2.7-13.3c17.8-15.3,16.6-21.6-2.3-12c14.1-22,10.7-27.5-6.6-10.6c8.3-26.7,3-30.6-10.3-7.5
			c0.8-28.9-6.1-30.3-13.1-2.8C41.8-2.9,34.9-1.4,36.5,27.5C22.5,4.3,17.2,8.3,26.3,35C8.2,18.2,4.8,23.7,19.7,45.6
			c-19.7-9.7-20.8-3.5-2.3,12c-18.6-2.7-17.4,3.6,2.3,11.9c-14.9,3.8-11.5,9.3,6.6,10.6c-9.1,8.6-3.7,12.6,10.3,7.5
			C35.1,98.5,41.9,99.9,49.7,90.4L49.7,90.4z M42.4,71.3c-4.5-1.3-7.4,9.6-1.8,6.9c-7.7,3.1-10.4,3.6-5,0.9
			c-11.5,3.6-13.8,3.9-4.5,0.5c-12.5,3.4-14.9,3-4.7-0.8c-9.1,1.3-5.6-0.5,6.8-3.4c-7.1-0.8-3.7-3.6,6.4-5.3
			C33.5,68.2,37.9,70.1,42.4,71.3z M34.8,65c-8.8-4.9-5.4,0.5,2.2,3.4c-8.9-1.9-10.4-1.4-2.9,1c-11.3-2.4-13.6-3.2-4.4-1.6
			c-14.2-4.9-16.3-7.1-4.1-4.1c-15.8-8.3-16.7-11-1.9-5.2c-12.1-5.3-9.4-3,5.2,4.6C19.3,58.6,22.4,59.6,34.8,65z M30.5,55.3
			c-11.2-10.3-1.7-19.9,6.1-6.1c-7.8-13.8-0.9-13.8,4.4,0c-2.2-10.7,0.5-7.1,5.2,7c-3.7-10.5-5.3-11-3.1-1.1
			c-6.1-10.9-7.8-11.2-3.1-0.5c-8.1-10.7-9.2-9.7-2.1,1.8c-7.1-8.5-6.6-7.5,1,1.9c-5.6-7.8-3.8-7.4,3.3,0.8
			c-4.7-8.2-0.2-0.2,2.9,5.1c-3.1-5.3,6-2.8,5.8,1.6c-2.2-0.2-4.7,2-4.7,4.1c-3.8-2.1-5.4-2.4-3.2-0.6c-6.3-3-8-3.7-3.2-1.3
			c-8.9-6.1-10.8-9.7-3.7-6.8C27.7,54.2,19.3,44.9,30.5,55.3z M55.4,67.4c2.8-3.5,3.3-3.5,0.3,0c5.6-1.1,8.6,0.3,5.8,2.7
			c6.2-1.9,13,9.1,4.3,7.1c8.7,2,6.2,7.5-1.6,3.5c7.8,4,0.3,6.2-4.8,1.4c5.1,4.8-5.3,3-6.7-1.1c0.4,4-0.3,3.8-1.4-0.4
			c0.1,3.7-0.3,3-0.7-1.2c0.2,3.3-8.9,2.7-5.8-0.4c-3.1,3.1-6.3-0.6-2-2.4c-3-1.8-1.1-4.8,3.7-5.8c-1.5-1.3-0.9-1.2,1.1,0.2
			c0.1-1.4,1.6-2.2,2.8-1.5c1.4-3.9,2.3-5.5,1.8-3.1c1.7-2.9,1.9-1.3,0.5,3.1c1.4-1.4,1.2-0.7-0.5,1.4c0.6-0.7-0.2,0.2-1.7,1.8
			c-1.1,0.8-2,1.7-1.6,1.7c1.4,1.1,3.9,1.4,4.8,0.6c7,0.9,9.5-0.3,4.8-2.3c4.7-1.3,4.1-2.7-1.3-2.7C60.2,66.1,59.1,64.7,55.4,67.4
			L55.4,67.4z M54.4,59.1c2.2-8.2-1.5-14.2-2.4-3.9c1.5-10.8,2.4-11.3,1.6-0.9c2.8-11.3,3.7-11.6,1.7-0.5c4.2-11.1,5.3-10.8,2.1,0.5
			C62,44,63,44.3,59.3,54.9c6-10.6,7.1-10.8,2.1-0.4c7.4-11.3,8.5-11.5,2.1-0.4c8.3-11.1,9.2-10.9,1.8,0.3
			c8.4-10.9,13.4-4.3,3.2,4.2c10.2-8.5,15.4-5.4,3.3,2c12.1-7.4,13.5-1.6,0.9,3.7c12.6-5.3,16.9,0.8,2.8,3.9c14.1-3.1,4,1.2-6.5,2.7
			c10.5-1.5-2.2-5.4-8.1-2.5c2.3-4-0.5-6.2-5.5-4.2c2.8-5.3,23.4-2.3,13.2,1.9c10.2-4.2-1.8-13.8-7.7-6.1c3.1-9.9,1-11-4-2.2
			C58.9,49,57.7,49.7,54.4,59.1L54.4,59.1z M71.9,57.1c12.1-9.3,7.6-16.3-2.9-4.5c12.3-13,14.3-13.6,3.8-1.1
			C89.3,39,93.1,40.9,80,55.1C96.7,44.7,84,47.8,71.9,57.1z M66.2,52.6c8.9-11.8-0.9-14.6-6.3-1.7c7.4-13.9,9.1-15.3,3.3-2.7
			c8.6-16,9.8-17.6,2.4-3.1c9.7-17.6,11.3-18.9,3.1-2.4c12.4-18.5,15.5-19,5.9-1.1c11.8-16.8,10.5-15.6-2.5,2.3
			c11.5-15.7,10.7-14.3-1.4,2.6c10.7-13.6,9.9-12.1-1.5,2.9C78.8,37.1,77.3,38.8,66.2,52.6L66.2,52.6z M59,47.5
			c4.9-14.7,2.4-8-1.6,4.3c2.3-11.9,0.3-11.5-3.9,0.8c2.4-12.8,2.6-14.4,0.5-2.9c2.1-17.2-1.2-19.1-6.3-3.6
			c-3.4-15.5-5-15.4-2.9,0.1c-3.1-15.4,2.8-2.9,3.8,8c-4.2-13.4-7.5-16.3-6.3-5.6c-6.1-16.1-7-18.5-1.6-4.6
			c-5.4-16.7,1-23.1,4.1-4.1c0.1-19.7,4.2-20.1,7.9-0.7c2.6-18.6,3.7-17.8,2.1,1.7c3.6-17.4,4.6-16.1,2,2.5
			C61.6,28.1,62.7,30.2,59,47.5L59,47.5z M27.2,37.4c-8.9-17.9-2.9-15.8,11.6,4.1c-6.5-15.3-6.1-13.1,0.8,4.3
			c-8.7-15.7-11.3-16.2-5-1.1c-11.5-17.4-13.8-19-4.5-3C16.6,21.9,15.1,19.6,27.2,37.4L27.2,37.4z M27.9,34.8
			c-9.6-25.1-5.9-26.7,7-3.1C29.4,8.2,32.4,9,40.8,33.4c-2.5-21-0.2-18.7,4.5,4.4c-5-19.5-6.6-18.5-3.1,1.9
			c-5.7-17.9-6.4-16.9-1.2,1.9c-7.1-21.1-9.4-23.6-4.3-4.7c-10.5-22.6-13.3-23.7-5.3-2C20.5,13,15.2,13,27.9,34.8L27.9,34.8z
			 M46.1,37.8c-2.4-20.2-6.4-38.3-2.5-11.6c-0.2-25,2.4-22.8,5,4.3c0.5-21.5,1.6-17.7,2.2,7.3c-1-20.4-2.2-20.5-2.2-0.2
			C46.2,17.4,45,17.5,46.1,37.8z M49.6,62.1c-1.5-6.5-2.4-6.9-1.7-0.7c-2.2-7.7-2.6-8.5-0.7-1.7c-1.8-9-1.5-9.9,0.7-1.7
			c-0.7-9.6,0.2-9.9,1.7-0.7c0.6-9.2,1.6-8.9,1.8,0.7c1.3-8.1,1.7-7.2,0.7,1.7c1-6.8,0.6-5.9-0.7,1.7C51.2,55.3,50.3,55.7,49.6,62.1
			z"/>
	</g>
</g>
</svg>
