<svg version="1.1" id="&#x421;&#x43B;&#x43E;&#x439;_1"
	 xmlns="http://www.w3.org/2000/svg" xmlns:xlink="http://www.w3.org/1999/xlink" x="0px" y="0px" viewBox="0 0 1144 244"
	 enable-background="new 0 0 1144 244" xml:space="preserve">
<g>
	<path fill="#FEFEFE" d="M1144.542,110.283c0,47.5-0.035,95,0.083,142.5c0.007,2.983-0.602,3.581-3.583,3.581
		c-379-0.085-758-0.085-1137,0c-2.98,0.001-3.596-0.595-3.585-3.58c0.132-34.833,0.084-69.667,0.084-104.5
		c2.412-1.965,5.283-1.439,8.047-1.491c6.28,0.04,12.564-0.189,18.839,0.072c5.269-0.062,10.537,0.386,15.812-0.563
		c10.728-1.93,19.488-6.993,26.114-15.676c12.889-19.119,10.571-45.405-5.306-60.492c-2.323-2.207-4.949-3.917-7.775-5.38
		c-6.909-3.769-14.31-5.145-22.131-5.006c-8.981,0.159-17.968,0.06-26.952,0.022c-2.31-0.01-4.704,0.217-6.648-1.487
		c0-27.667,0.038-55.333-0.065-83c-0.009-2.501,0.563-3.484,3.068-3.013c0.483,0.091,0.998,0.013,1.498,0.013
		c378.333,0,756.667,0.006,1135-0.093c3.749-0.001,4.613,0.842,4.598,4.593c-0.157,40.166-0.098,80.333-0.098,120.5
		c-2.788-0.381-2.321-2.867-2.676-4.551c-1.419-6.722-3.834-12.967-7.963-18.496c-5.204-6.553-11.537-11.576-19.506-14.388
		c-8.539-3.009-17.318-2.341-26.084-1.728c-9.075,1.51-16.717,5.779-23.283,12.115c-14.707,16.897-16.391,42.018-4.072,61.045
		c5.033,7.787,12.346,12.432,21.006,15.214c2.663,0.787,5.37,1.36,8.118,1.754c5.492,1.072,10.961,0.819,16.414-0.245
		c11.265-1.849,20.752-6.7,27.443-16.267c3.937-4.858,6.024-10.538,7.599-16.503
		C1142.022,113.396,1141.601,110.734,1144.542,110.283z"/>
	<path fill="#62E0F5" d="M0.542,58.283c12.816-0.008,25.636-0.188,38.448,0.045c6.712,0.122,13.124,1.886,18.765,5.802
		c-1.717,6.801-6.236,12.087-9.731,17.922c-0.52,0.868-1.609,1.047-2.632,1.057c-4.643-1.161-9.181-2.581-14.116-2.407
		c-3.85,0.136-5.281,1.643-5.256,5.395c0.071,10.93,0.044,21.862,0.014,32.793c-0.006,2.313,0.163,4.642-0.416,6.912
		c-0.308,0.7-0.807,1.926-1.452,1.472c-1.006-0.71-1.384-2.116-2.203,0.192c-0.524,1.477-1.805,2.637-3.458,3.14
		c-1.599-0.068-2.207-1.347-2.881-2.458c-5.33-8.784-10.75-17.52-15.082-26.865C0.542,86.949,0.542,72.616,0.542,58.283z"/>
	<path fill="#3E99BB" d="M1144.542,110.283c-2.177,3.554-2.074,7.832-3.713,11.582c-1.66,3.798-3.151,7.65-6.089,10.704
		c-5.261,0.474-10.536,0.214-15.795,0.107c-3.741-0.076-7.14,0.452-10.125,2.809c-1.42-0.896-1.457-2.338-1.504-3.777
		c0.186-2.186,0.764-4.299,1.261-6.426c0.219-0.619,0.443-1.292,0.952-1.696c8.146-6.459,10.133-15.297,9.723-25.067
		c0.475-5.903,4.468-10.215,6.947-15.207c1.247-2.512,2.766-4.896,4.205-7.31c0.907-1.522,1.861-3.255,4.182-2.757
		c5.23,6.052,7.429,13.38,8.886,21.028c0.199,1.047-0.343,2.385,1.07,3.01c0,0.333,0,0.667,0,1c-0.847,3.333-0.847,6.667,0,10
		C1144.542,108.949,1144.542,109.616,1144.542,110.283z"/>
	<path fill="#62E0F5" d="M8.563,148.14c-2.674,0.048-5.348,0.095-8.021,0.143c0-5.667,0-11.333,0-17
		c5.938-2.896,12.032-1.569,18.11-0.672c16.634-1.798,33.289-1.027,49.941-0.395c0.643,0.024,1.184,0.554,1.644,1.046
		c-7.837,11.2-19.077,15.981-32.261,16.941c-3.134,0.228-6.303-0.033-9.456-0.068c-4.097-2.494-5.461-6.99-7.65-10.804
		c-1.951-3.398-2.974-2.602-4.602,0.118C14.01,141.221,12.87,145.837,8.563,148.14z"/>
	<path fill="#6EE5FC" d="M18.554,131.282c-6.004,0-12.008,0-18.012,0.001c0-10,0-20,0-30c4.515,4.551,6.514,10.676,9.932,15.917
		c2.798,4.29,5.385,8.717,8.066,13.084c0.253,0.218,0.34,0.439,0.26,0.662C18.719,131.17,18.637,131.282,18.554,131.282z"/>
	<path fill="#A4CFDF" d="M1144.542,108.283c-1.578-3.333-1.558-6.667,0-10C1144.542,101.616,1144.542,104.949,1144.542,108.283z"/>
	<path fill="#3E99BB" d="M291.402,131.165c-1.011-5.121-0.468-10.299-0.49-15.447c-0.076-17.324-0.052-34.649,0.006-51.973
		c0.006-1.757-0.666-3.666,0.661-5.283c1.597,1.603,1.353,3.682,1.342,5.637c-0.117,19.588,0.365,39.179-0.251,58.765
		c-0.013,0.402,0.124,0.645,0.491,0.728c-0.904-1.506,0.294-2.572,0.913-3.665c7.276-12.862,14.623-25.685,22.198-38.374
		c0.84-1.408,1.581-2.965,3.372-3.475c8.335,7.62,16.669,15.24,26.077,23.841c0-10.219,0-19.391,0-28.564
		c2.184-0.043,2.545,1.88,3.33,3.223c5.79,9.91,11.38,19.938,17.324,29.757c1.136,1.877,1.292,4.036,2.291,5.91l-0.049-0.049
		c0.66,6.445,0.723,12.888-0.046,19.331c-7.821,2.301-15.627,2.112-23.422-0.129c-9.924-9.487-19.849-18.975-30.773-29.418
		c0,10.401,0,19.856,0,29.312C306.704,133.726,299.044,134.018,291.402,131.165z"/>
	<path fill="#62E0F5" d="M732.714,119.347c-0.057-11.821-0.259-23.645-0.087-35.463c0.054-3.685-0.896-5.052-4.718-4.784
		c-4.64,0.325-9.324-0.028-13.983,0.114c-2.58,0.079-3.578-0.831-3.498-3.449c0.142-4.659,0.134-9.328,0.001-13.987
		c-0.071-2.5,0.671-3.549,3.368-3.538c20.151,0.085,40.303,0.071,60.454,0.014c2.318-0.007,3.3,0.734,3.245,3.147
		c-0.111,4.827-0.131,9.662,0.035,14.487c0.094,2.745-1.145,3.414-3.598,3.343c-4.327-0.125-8.683,0.233-12.982-0.132
		c-4.312-0.367-5.694,0.897-5.627,5.443c0.286,19.481,0.177,38.969,0.119,58.453c-0.005,1.687,0.917,3.675-0.905,5.09
		c-2.866-5.016-0.986-10.47-1.462-15.699c0.302-7.257,0.084-14.525,0.158-22.264c-3.649,6.069-6.701,11.957-10.317,17.501
		c-2.721,4.172-4.053,4.092-6.711-0.078C734.58,124.999,733.368,122.297,732.714,119.347z"/>
	<path fill="#3E99BB" d="M267.375,91.279c-0.276,8.847-3.447,16.532-10.108,22.333c-2.714,2.363-2.486,3.853-0.72,6.422
		c2.235,3.251,4.043,6.795,6.036,10.212c0.092,0.979-0.419,1.755-1.281,1.847c-7.882,0.846-15.792,2.127-23.543-0.83
		c-2.071-3.692-4.143-7.384-6.214-11.076c-0.15-0.072-0.296-0.193-0.452-0.208c-11.893-1.145-11.893-1.144-12.128,10.9
		c-3.204,3.143-7.231,1.62-10.864,1.693c-10.622,0.214-11.097-0.77-5.882-9.953c3.941-6.941,8.075-13.769,12.004-20.717
		c0.972-1.719,1.775-3.651,4.104-3.988c5.669,1.699,11.488,1.15,17.229,0.809c4.969-0.296,7.577-4.038,7.591-9.844
		c0.012-5.151-2.506-8.318-7.264-9.093c-1.944-0.316-3.988,0.047-5.85-0.852c-1.076-0.661-1.066-1.75-0.608-2.602
		c3.339-6.204,6.178-12.727,11.131-17.93c3.372-0.034,6.479,0.868,9.334,2.653C255.462,71.278,261.496,81.234,267.375,91.279z"/>
	<path fill="#4BB6D6" d="M395.414,131.183c-0.192-23.529-0.391-47.058-0.542-70.587c-0.005-0.749,0.48-1.501,0.736-2.252
		c0.179,0.196,0.358,0.391,0.54,0.585c1.294,3.205,0.709,6.566,0.716,9.854c0.021,10.071,0.186,20.145-0.081,29.441
		c7.49-12.941,14.855-26.811,23.398-40.002c7.749-1.054,7.949-0.965,11.454,5.374c1.765,3.193,3.732,6.266,5.551,9.426
		c0.895,1.555,2.014,3.105,1.307,5.094c-5.317,0.056-10.637,0.252-15.948,0.111c-2.863-0.076-4.075,0.514-4.093,3.781
		c-0.051,9.277-0.221,9.276,9.015,9.277c5.985,0.001,11.971,0.071,17.954-0.028c2.311-0.038,3.283,0.727,3.225,3.135
		c-0.116,4.818-0.136,9.645,0.033,14.461c0.096,2.723-1.078,3.376-3.559,3.341c-7.646-0.109-15.296,0.066-22.94-0.091
		c-2.82-0.058-3.636,0.867-3.707,3.682c-0.272,10.765-0.378,10.762,10.577,10.762c6.317,0,12.645,0.213,18.948-0.079
		c3.862-0.179,5.217,1.124,4.336,4.828c-1.872,1.849-4.291,1.578-6.577,1.586c-14.607,0.055-29.214,0.061-43.821-0.004
		C399.655,132.866,397.222,133.144,395.414,131.183z"/>
	<path fill="#5AD4EE" d="M798.313,132.56c-2.56-3.634-3.675-7.8-3.696-12.119c-0.08-16.365,0.037-32.732,0.081-49.097
		c2.505,0.027,3.158,2.181,4.121,3.795c5.946,9.963,11.451,20.184,17.5,30.088c1.83,2.996,1.692,6.312,1.74,9.636
		c0.03,2.125-0.472,4.298,0.367,6.38c2.074,6.221,10.433,8.35,17.444,6.649c6.276-1.522,8.534-5.415,8.567-13.716
		c0.013-3.302,0.113-6.604,0.173-9.905c3.955-9.358,9.791-17.686,14.619-26.567c1.504-2.766,2.855-5.646,4.715-8.207
		c0.914-1.259,1.271-3.215,3.43-3.147c0.042,18.195,0.166,36.39,0.062,54.584c-0.024,4.133-1.179,8.154-3.64,11.646
		c-8.592,0.698-17.199,0.281-25.796,0.261c-11.583-0.026-23.166,0.115-34.749,0.084C801.589,132.919,799.947,132.844,798.313,132.56
		z"/>
	<path fill="#5AD4EE" d="M893.708,131.299c0.001-14.982,0.002-29.964,0.003-44.946c3.432,0.824,4.033,4.121,5.411,6.556
		c5.461,9.648,11.185,19.144,16.609,28.812c0.491,0.875,1.161,1.607,1.805,2.36c9.031,5.516,23.694-0.104,27.681-10.64
		c2.383-6.297,2.635-12.645,0.439-19.068c-0.644-1.883-1.549-3.691-1.816-5.699c2.494-7.488,7.038-13.831,11.4-20.273
		c0.276-0.408,0.886-0.343,1.378-0.173c17.94,14.556,20.802,45.738,5.868,63.945c-5.036,1.302-10.167,0.59-15.25,0.631
		c-8.729,0.071-17.461,0.198-26.191-0.082c-0.633,0.004-1.265-0.003-1.898-0.005c-6.618,0.265-13.237,0.125-19.855,0.099
		C897.321,132.809,895.28,132.865,893.708,131.299z"/>
	<path fill="#62E0F5" d="M625.439,91.43c-3.215-11.214,2.027-25.257,14.71-30.967c14.755-6.642,29.278-6.278,43.149,2.713
		c1.676,1.086,3.259,2.291,4.26,4.09c-3.579,6.062-6.182,12.721-11.021,18.012c-2.461,0.553-4.093-0.127-4.941-2.742
		c-2.333-7.187-18.234-6.531-21.761-2.601c-3.684,4.106-2.407,9.595,2.922,11.621c5.209,1.98,10.803,1.71,16.186,2.681
		c1.289,0.233,2.692-0.049,3.787,0.947c-4.776,4.949-7.04,11.557-11.181,16.926c-10.454-0.415-20.693-1.542-29.086-8.782
		C629.789,99.56,627.906,95.322,625.439,91.43z"/>
	<path fill="#46ABCA" d="M218.434,98.287c-5.442,7.08-8.956,15.327-13.784,22.779c-0.358,0.553-0.587,1.187-0.908,1.766
		c-4.689,8.455-4.69,8.461,5.213,8.451c3.146-0.003,6.292-0.054,9.438-0.083c1.105,5.562,0.885,11.135,0.141,16.712
		c-3.326,0.703-6.674,0.361-10.018,0.207c-1.82-0.713-2.908-2.213-3.673-3.85c-2.845-6.089-7.719-11.145-9.137-17.954
		c-0.054-21.824-0.098-43.648-0.176-65.472c-0.007-1.864,0.181-3.274,2.6-3.226c14.142,0.276,28.31-0.873,42.426,0.788
		c-3.665,6.567-7.33,13.135-10.995,19.702c-1.29,1.686-3.219,1.672-5.003,1.639c-3.563-0.065-4.355,1.856-4.563,5.012
		C219.697,89.278,221.436,94.076,218.434,98.287z"/>
	<path fill="#62E0F5" d="M916.642,124.278c-4.419-4.55-6.658-10.485-9.931-15.759c-4.515-7.276-8.684-14.766-13.002-22.165
		c-0.055-8.163-0.109-16.327-0.167-24.491c-0.013-1.879-0.175-3.788,2.655-3.682c14.294,0.534,28.675-1.356,42.882,1.172
		c6.621,1.178,12.63,4.065,17.538,8.876c-4.019,6.661-8.038,13.322-12.057,19.983c-1.802,0.409-2.733-0.964-3.726-1.975
		c-5.45-5.544-12.321-5.811-19.406-5.382c-3.319,0.201-3.367,2.646-3.382,5.014c-0.069,10.593,0.012,21.187-0.053,31.779
		C917.979,119.922,918.376,122.332,916.642,124.278z"/>
	<path fill="#4BB6D6" d="M145.312,70.292c9.417,20.329,18.833,40.658,28.25,60.987c-1.245,1.359-2.933,1.518-4.587,1.516
		c-19.41-0.024-38.821,0.419-58.222-0.212c-0.588-0.095-1.152-0.291-1.675-0.564c-0.504-0.285-0.81-0.726-0.913-1.298
		c3.096-7.368,7.592-13.984,11.553-20.885c6.706-11.682,13.335-23.412,20.251-34.971C141.168,72.865,141.525,69.444,145.312,70.292z
		"/>
	<path fill="#4FC7E2" d="M989.787,76.254c-0.071-4.994-0.075-9.99-0.242-14.981c-0.078-2.347,0.787-3.239,3.172-3.225
		c12.665,0.075,25.331,0.074,37.996,0.009c2.468-0.013,3.186,1.114,3.092,3.353c-0.098,2.329,0.032,4.667-0.028,6.998
		c-0.069,2.651,0.597,5.788-0.591,7.815c-1.268,2.164-4.622,0.837-7.043,0.888c-2.879,0.06-2.589,1.906-2.6,3.743
		c-0.054,9.163-0.112,18.325-0.168,27.488c-2.491,8.256-8.014,14.898-11.922,22.411c-0.339,0.424-0.763,0.71-1.281,0.874
		c-0.271-0.038-0.534-0.079-0.806-0.12c-0.487-0.291-0.895-0.661-1.239-1.108c-5.644-7.327-9.05-15.186-8.213-24.863
		c0.7-8.095-0.036-16.305,0.227-24.452c0.115-3.576-1.038-4.703-4.497-4.389C993.731,76.868,991.665,77.292,989.787,76.254z"/>
	<path fill="#5AD4EE" d="M478.442,132.422c-2.49-2.579-4.009-5.687-4.953-9.107c1.886-6.856,6.262-12.433,9.659-18.49
		c8.147-14.528,16.632-28.866,24.927-43.311c1.169-2.036,2.328-4.053,4.472-5.244c1.326-0.029,2.651-0.058,3.977-0.087
		c3.998,2.858,5.034,7.713,7.704,11.473c2.503,3.524,4.199,7.542,6.354,11.286c0.829,1.44,2.711,3.475-0.326,4.886
		c-2.116-0.018-3.706-1.386-5.52-2.17c-14.633-6.324-29.596,3.306-29.894,19.199c-0.117,6.23-0.058,12.337,4.256,17.501
		c6.163,7.378,14.264,9.89,23.203,7.064c8.833-2.793,14.061-9.965,14.866-20.412c0.166-2.157-0.066-4.33,0.234-6.484
		c0.578-2.394,2.207-3.487,3.598-1.145c5.463,9.196,11.654,18,15.723,27.979c0.115,0.282-0.03,0.637-0.157,0.952
		c-0.399,2.011-1.561,3.57-2.955,4.991c-2.035,1.302-4.297,1.591-6.658,1.593c-21.193,0.018-42.386-0.029-63.58,0.032
		C481.696,132.933,480.09,132.53,478.442,132.422z"/>
	<path fill="#5AD4EE" d="M18.554,131.282c-0.008-0.333-0.013-0.666-0.014-0.999c1.48-2.042,2.96-4.084,4.462-6.156
		c0.985,0.815,0.102,2.651,1.719,3.061c1.826-1.601,4.072-1.195,6.191-1.219c8.605-0.098,16.384-2.044,20.405-10.596
		c4.328-9.207,3.929-18.337-1.691-27.05c-1.232-1.91-3.388-3.295-3.444-5.895c3.857-6.1,7.714-12.199,11.572-18.299
		c11.362,6.104,17.559,15.992,20.01,28.277c2.771,13.887,1.147,27.098-7.527,38.854C53.009,131.268,35.781,131.275,18.554,131.282z"
		/>
	<path fill="#62E0F5" d="M530.444,83.326c-0.383-5.621-4.55-9.467-6.76-14.234c-2.065-4.452-4.749-8.617-7.16-12.909
		c17.145-0.363,30.662,6.712,38.993,21.482c8.845,15.68,9.128,32.249,1.046,48.648c-5.305-9.266-10.596-18.541-15.936-27.787
		c-0.515-0.892-1.234-3.298-2.141-0.139c-0.348,0.044-0.827,0.055-0.914-0.171C535.587,93.064,532.559,88.413,530.444,83.326z"/>
	<path fill="#4BB6D6" d="M1060.452,132.423c-13.563-16.88-11.493-48.845,4.088-63.136c3.17,1.479,3.701,4.903,5.314,7.472
		c3.046,4.852,6.347,9.604,8.245,15.103c-0.425,3.416-1.156,6.763-1.298,10.249c-0.288,7.063,1.024,13.409,6.264,18.537
		c0.704,0.689,1.137,1.608,1.428,2.573c0.427,1.694,0.342,3.378-0.078,5.06c-0.49,1.406-0.901,2.864-2.305,3.702
		C1074.92,133.486,1067.683,132.816,1060.452,132.423z"/>
	<path fill="#4FC7E2" d="M145.312,70.292c-5.666,4.848-8.014,11.888-11.687,18.016c-7.978,13.312-15.533,26.878-23.303,40.315
		c-0.388,0.671-1.169,1.113-1.768,1.662c-4.897-3.033-6.808-7.907-8.115-13.154c8.942-19.214,17.947-38.399,26.764-57.67
		c1.515-3.311,4.098-2.26,6.344-2.219c2.409,0.044,5.423-1.344,6.89,2.184C141.96,63.09,143.679,66.674,145.312,70.292z"/>
	<path fill="#5AD4EE" d="M661.548,112.112c1.082-6.272,5.88-10.621,8.445-16.135c0.263-0.565,1.792-0.541,2.735-0.79
		c20.454,2.162,30.994,20.551,21.799,38.027c-20.753-0.695-41.512-0.292-62.269-0.328c-1.994-0.003-3.984,0.063-5.954-0.32
		c-0.388-0.723-0.879-1.409-1.148-2.173c-3.248-9.256-2.722-9.997,6.998-9.997c2.162,0,4.325,0.004,6.487-0.001
		c3.726-0.008,6.778-0.334,9.226,4.303c3.474,6.58,19.891,6.524,24.762,0.722c2.845-3.389,1.965-8.222-2.057-10.699
		C667.83,113.031,664.697,112.499,661.548,112.112z"/>
	<path fill="#4FC7E2" d="M512.547,56.27c-13.019,22.348-26.039,44.696-39.059,67.045c-14.031-29.449,6.453-66.063,37.566-67.14
		C511.551,56.157,512.05,56.236,512.547,56.27z"/>
	<path fill="#3A90B0" d="M319.643,78.079c-9.054,15.767-18.109,31.534-27.163,47.301c-0.3-0.047-0.601-0.094-0.901-0.141
		c0-22.259,0-44.518,0-66.777c3.51-1.586,6.532-1.17,9.392,1.665C307.102,66.204,313.408,72.105,319.643,78.079z"/>
	<path fill="#4FC7E2" d="M478.442,132.422c1.39-1.755,3.354-1.11,5.092-1.113c23.358-0.032,46.716-0.012,70.074-0.005
		c-6.958,11.14-17.579,16.472-30.075,18.339c-14.502,2.167-27.804-0.945-39.279-10.443
		C481.95,137.293,479.789,135.186,478.442,132.422z"/>
	<path fill="#46ABCA" d="M395.414,131.183c18.973,0.037,37.946,0.074,56.919,0.111c0.059,4.648,0.074,9.297,0.196,13.943
		c0.051,1.955-0.371,3.093-2.699,3.07c-18.091-0.176-36.184-0.269-54.276-0.388c-0.835-5.567-0.731-11.139-0.07-16.712
		C395.485,131.206,395.414,131.183,395.414,131.183z"/>
	<path fill="#47ACCA" d="M368.665,112.245c-5.721-9.683-11.444-19.364-17.162-29.049c-1.934-3.276-3.856-6.56-5.784-9.841
		c-0.21-4.8-1.981-10.799,0.567-14.055c2.515-3.215,8.722-0.926,13.294-1.02c9.623-0.199,9.747-0.059,9.598,9.606
		C368.951,82.672,369.896,97.472,368.665,112.245z"/>
	<path fill="#4FC7E2" d="M626.305,132.565c1.327-1.829,3.297-1.258,5.049-1.261c19.424-0.033,38.848-0.049,58.272,0.028
		c1.742,0.007,4.204-1.136,4.903,1.882c-7.562,13.255-20.02,16.649-34.039,16.896c-4.351-2.897-5.782-7.844-8.336-11.987
		c-2.506-4.065-2.716-4.065-5.292,0.017c-1.739,2.755-2.819,5.953-5.345,8.194C634.468,143.928,629.299,139.448,626.305,132.565z"/>
	<path fill="#63E0F5" d="M818.427,121.242c-0.26-0.417-0.802-0.882-0.74-1.243c1.756-10.08-4.458-17.383-8.974-25.155
		c-4.58-7.883-8.525-16.158-14.016-23.501c-0.651-13.062-0.651-13.062,12.482-13.062c11.125,0,11.11,0,11.128,11.163
		C818.336,86.71,818.386,103.976,818.427,121.242z"/>
	<path fill="#4FC7E2" d="M798.313,132.56c1.169-1.679,2.948-1.261,4.56-1.263c18.789-0.02,37.578-0.02,56.367-0.001
		c1.615,0.002,3.39-0.397,4.555,1.282c-5.207,9.687-13.8,14.125-24.27,15.653c-4.066-2.339-5.035-6.887-7.283-10.482
		c-1.898-3.035-2.929-3.512-4.919-0.127c-2.09,3.553-3.613,7.516-6.769,10.385C811.16,145.708,802.943,141.717,798.313,132.56z"/>
	<path fill="#4FC7E2" d="M108.583,131.258c21.66,0.007,43.319,0.014,64.979,0.021c2.045,4.164,4.116,8.316,6.126,12.497
		c1.44,2.993,0.989,4.75-2.884,4.539c-3.156-0.172-6.37-0.359-9.487,0.03c-7.587,0.947-13.784-0.094-15.731-8.957
		c-0.439-1.996-2.118-2.253-3.932-2.245c-9.33,0.04-18.661,0.102-27.99-0.038c-2.482-0.037-3.651,1.101-4.412,3.144
		c-2.309,1.294-2.877-0.888-3.752-2.047c-1.295-1.716-2.37-3.61-3.237-5.601C108.172,132.108,108.28,131.659,108.583,131.258z"/>
	<path fill="#62E0F5" d="M867.374,66.348c-7.259,12.274-14.515,24.549-21.787,36.816c-0.246,0.416-0.648,0.739-0.978,1.105
		c-0.057-14.077-0.028-28.156-0.235-42.231c-0.047-3.231,1.255-3.913,4.109-3.8c4.466,0.176,8.97,0.351,13.409-0.039
		c4.533-0.398,6.461,1.076,5.657,5.676C867.408,64.684,867.428,65.523,867.374,66.348z"/>
	<path fill="#7EC4DA" d="M1087.521,57.141c9.565-1.785,19.012-1.933,28.163,2.026c-1.338,7.831-1.119,15.829-2.527,23.655
		c-1.568,1.694-3.137,0.515-4.502-0.202c-5.927-3.111-11.984-3.749-18.368-1.576c-1.449,0.493-3.19,1.46-4.506-0.467
		C1084.349,72.614,1085.427,64.84,1087.521,57.141z"/>
	<path fill="#4FC7E2" d="M920.517,131.316c12.421-0.011,24.842-0.041,37.263-0.009c1.592,0.004,3.349-0.545,4.706,0.867
		c-8.244,11.02-19.576,15.637-33,15.916C924.969,143.315,921.06,138.215,920.517,131.316z"/>
	<path fill="#46ABCA" d="M1087.521,57.141c0.616,8.02-1.48,15.92-1.062,23.932c-2.685,3.741-5.416,7.441-9.196,10.194
		c-4.498-7.178-8.927-14.395-12.723-21.979C1070.774,62.54,1078.498,58.612,1087.521,57.141z"/>
	<path fill="#46ABCA" d="M1112.455,83.395c-0.367-7.038,0.82-13.996,1.07-21.002c0.057-1.595,0.214-2.967,2.159-3.226
		c7.782,2.703,14.103,7.367,18.901,14.077c-6.204,7.55-11.114,15.825-14.121,25.168c-0.346,0.028-0.832,0.017-0.902-0.207
		C1117.899,92.928,1114.505,88.483,1112.455,83.395z"/>
	<path fill="#46ABCA" d="M237.758,131.263c6.74,0.008,13.481,0.044,20.221,0.002c1.579-0.01,3.338,0.52,4.603-1.02
		c2.662,4.198,5.44,8.328,7.952,12.614c2.437,4.158,1.608,5.371-3.347,5.421c-0.998,0.01-1.998,0.038-2.995-0.004
		c-5.787-0.246-12.931,2.261-17.012-0.889C242.612,143.862,240.78,136.791,237.758,131.263z"/>
	<path fill="#50C8E2" d="M438.492,78.115c-3.068-5.431-6.306-10.775-9.146-16.322c-2.044-3.992-5.349-3.669-8.824-3.393
		c-2.304,1.818-5.064,1.605-7.673,1.421c-5.725-0.405-11.631,1.383-17.17-1.343c0,0-0.071-0.134-0.07-0.134
		c1.385-1.41,3.153-0.779,4.74-0.783c15.164-0.036,30.329,0.134,45.49-0.074c4.211-0.058,6.187,0.842,5.701,5.486
		c-0.397,3.791-0.27,7.669-0.023,11.486c0.206,3.184-1.078,4.098-4.039,3.865C444.496,78.089,441.488,78.172,438.492,78.115z"/>
	<path fill="#4FC7E2" d="M893.708,131.299c8.616,0.004,17.232,0.007,25.849,0.011c-0.997,6.68-5.063,11.715-9.008,16.815
		C892.771,149.012,892.771,149.012,893.708,131.299z"/>
	<path fill="#47ACCA" d="M1010.522,131.264c0.013-0.32,0.025-0.64,0.035-0.961c8.103-1.162,16.133-0.407,24.142,0.919
		c1.08,4.869,0.259,9.8,0.486,14.697c0.095,2.053-1.173,2.405-2.86,2.37c-4.269-0.087-8.539-0.119-12.808-0.173
		C1015.025,143.296,1010.938,138.26,1010.522,131.264z"/>
	<path fill="#398FAF" d="M291.402,131.165c7.658,0.042,15.316,0.085,22.974,0.127c0.05,0.494,0.172,0.993,0.14,1.482
		c-0.325,5.064,2.262,12.023-1.069,14.677c-3.152,2.511-9.811,0.619-14.927,0.663c-4.551-4.726-8.486-9.708-7.057-16.927
		L291.402,131.165z"/>
	<path fill="#3990AF" d="M1108.62,135.295c0.879-3.32,2.969-4.317,6.384-4.096c5.065,0.328,10.168,0.061,15.254,0.099
		c1.588,0.012,3.349-0.42,4.481,1.271c-6.562,9.567-15.857,14.654-27.108,16.534c-0.705-0.632-0.839-1.451-0.775-2.337
		C1107.956,143.022,1105.797,138.774,1108.62,135.295z"/>
	<path fill="#4FC7E2" d="M1000.551,148.121c-12.015,0.617-12.021,0.617-12.002-11.373c0.003-1.814,0.096-3.628,0.148-5.442
		c6.942-1.026,13.881-2.996,20.83-0.038l0.022,0.025C1008.632,138.016,1004.747,143.151,1000.551,148.121z"/>
	<path fill="#398FAF" d="M345.148,131.399c7.736-0.023,15.472-0.047,23.208-0.07c1.174,5.536,0.912,11.085,0.161,16.639
		c-4.278,1.169-7.515-0.159-10.482-3.502C353.979,139.896,349.465,135.735,345.148,131.399z"/>
	<path fill="#62E0F5" d="M108.583,131.258c-0.008,0.341-0.016,0.681-0.025,1.022c-2.32,5.904-4.464,11.921-9.961,15.825
		c-2.789,0.059-5.586,0.009-8.366,0.204c-3.522,0.247-4.057-1.424-2.776-4.161c2.221-4.742,4.578-9.42,6.877-14.125
		c4.791-0.179,9.656-1.202,14.214,1.255L108.583,131.258z"/>
	<path fill="#5BD5EE" d="M732.714,119.347c2.15,3.491,4.3,6.983,6.778,11.008c5.33-7.604,9.35-15.638,15.014-23.25
		c0,8.067,0,16.134,0,24.201c-7.268,2.574-14.535,2.243-21.802-0.006C732.707,127.316,732.711,123.332,732.714,119.347z"/>
	<path fill="#46ACCA" d="M1060.452,132.423c3.319-2.392,7.074-0.806,10.612-1.074c3.806-0.288,7.65-0.063,11.478-0.062
		c2.353,5.555,2.614,10.982-0.999,16.168C1072.705,144.981,1065.543,140.155,1060.452,132.423z"/>
	<path fill="#7EC4DA" d="M1081.543,147.455c1.211-5.335,1.065-10.754,0.999-16.168c0.069-1.094-0.138-2.278,0.98-3.033
		c3.131,1.975,6.641,1.584,10.085,1.629c1.806,0.023,3.636-0.096,5.355,0.656c1,0.553,1.473,1.554,1.005,2.468
		c-2.947,5.757-5.13,12.021-10.426,16.276C1086.693,149.47,1084.085,148.609,1081.543,147.455z"/>
	<path fill="#50C7E2" d="M732.704,131.3c7.268,0.002,14.535,0.004,21.802,0.006c0.009,5.593,0.019,11.187,0.029,16.779
		c-1.683,0.008-3.367,0.016-5.05,0.025c-4.165-1.927-4.616-6.585-7.14-9.722c-0.893-1.11-0.958-3.264-2.586-3.303
		c-1.923-0.046-2.12,2.207-3.032,3.489c-1.078,1.514-1.371,3.874-4.01,3.689C732.713,138.608,732.709,134.954,732.704,131.3z"/>
	<path fill="#5AD4EE" d="M676.537,85.279c3.303-6.231,5.646-13.049,11.021-18.012c4.472,3.982,5.82,9.39,6.802,14.955
		c0.414,2.343-0.595,3.298-2.982,3.231C686.434,85.314,681.484,85.328,676.537,85.279z"/>
	<path fill="#78B7CF" d="M1089.542,149.283c3.21-6.067,7.4-11.59,10.005-17.994c0.226-0.095,0.452-0.189,0.678-0.285
		c0.483,0.129,0.896,0.378,1.254,0.722c2.596,4.979,7.622,9.013,6.096,15.605c0.019,0.591,0.037,1.181,0.056,1.772
		C1101.615,150.519,1095.59,151.02,1089.542,149.283z"/>
	<path fill="#4BB7D6" d="M1034.699,131.223c-8.044-0.382-16.161,1.132-24.142-0.919c4.272-7.32,8.545-14.64,12.817-21.96
		c0.056,5.604,0.295,11.215,0.098,16.81c-0.114,3.23,0.896,4.192,4.145,4.248C1029.952,129.441,1033.211,127.428,1034.699,131.223z"
		/>
	<path fill="#4BB6D6" d="M820.553,148.007c1.512-5.194,5.163-9.219,7.611-13.902c1.352-2.587,2.439-1.41,3.438,0.332
		c2.637,4.601,5.281,9.196,7.923,13.794C833.178,150.074,826.86,149.508,820.553,148.007z"/>
	<path fill="#3A90B0" d="M267.375,91.279c-3.904-0.774-3.87-4.666-5.462-7.171c-4.262-6.707-8.163-13.643-12.175-20.507
		c-0.476-0.814-1.132-1.772,0.151-2.544C261.288,65.889,267.992,77.476,267.375,91.279z"/>
	<path fill="#4BB6D6" d="M641.515,146.335c0.915-4.669,4.368-8.056,6.225-12.266c1.089-2.469,2.469-1.399,3.487,0.328
		c3.089,5.237,6.175,10.476,9.261,15.714C653.86,150.378,647.483,149.382,641.515,146.335z"/>
	<path fill="#4BB6D6" d="M910.548,148.125c2.203-6.034,6.349-11.026,9.008-16.815c0.321-0.007,0.641-0.005,0.961,0.006
		c2.133,6.05,6.288,11.018,8.969,16.774C923.173,148.101,916.861,148.113,910.548,148.125z"/>
	<path fill="#6EE5FC" d="M8.563,148.14c2.624-4.407,5.225-8.827,7.881-13.215c1.349-2.229,2.621-3.496,4.391-0.131
		c2.388,4.538,5.107,8.902,7.683,13.341C21.867,148.136,15.215,148.138,8.563,148.14z"/>
	<path fill="#4BB6D6" d="M1000.551,148.121c3-5.609,5.999-11.219,8.999-16.828c0.325-0.01,0.649-0.019,0.973-0.028
		c2.095,6.099,6.282,11.082,8.994,16.852C1013.195,148.118,1006.873,148.12,1000.551,148.121z"/>
	<path fill="#5FD6EF" d="M1009.527,131.268c-6.943,0.013-13.887,0.025-20.83,0.038c0.381-3.776,3.423-2.11,4.96-1.92
		c5.227,0.646,6.376-1.438,6.245-6.371c-0.352-13.278-0.359-26.578-0.026-39.857c0.121-4.807-1.166-6.711-6.032-6.011
		c-1.298,0.187-3.021,0.778-4.057-0.893c10.788,0.068,10.788,0.068,10.788,10.626c0,4.647,0.458,9.349-0.093,13.93
		c-1.258,10.46,1.713,19.526,7.879,27.798C1008.925,129.364,1009.146,130.375,1009.527,131.268z"/>
	<path fill="#4BB6D6" d="M732.718,142.263c2.39-1.57,2.753-4.423,4.169-6.611c2.59-4.001,3.137-3.98,5.404,0.067
		c2.334,4.167,4.792,8.264,7.195,12.391c-3.79,0.057-7.617-0.194-11.362,0.247C733.048,148.954,731.663,146.828,732.718,142.263z"/>
	<path fill="#4BB7D6" d="M195.706,126.314c4.27,7.268,8.54,14.536,12.811,21.804c-13.046,0.682-13.051,0.682-12.951-12.391
		C195.59,132.589,195.658,129.452,195.706,126.314z"/>
	<path fill="#5AD4EE" d="M98.597,148.106c3.32-5.275,6.64-10.55,9.961-15.825c3.218,1.829,2.921,6.609,6.695,7.97
		C110.627,149.831,114.827,148.329,98.597,148.106z"/>
	<path fill="#5AD4EE" d="M108.548,131.278c-4.714-0.685-9.68,1.488-14.213-1.254c1.601-4.503,3.555-8.839,6.106-12.892
		c2.705,4.384,5.409,8.769,8.114,13.154C108.554,130.617,108.552,130.947,108.548,131.278z"/>
	<path fill="#3E99BB" d="M291.464,131.187c-0.508,6.834,4.934,11.189,7.057,16.927c-1.143,0.056-2.297,0.031-3.426,0.183
		c-3.083,0.415-4.586-0.597-4.217-3.977C291.351,139.963,290.225,135.522,291.464,131.187z"/>
	<path fill="#47ACCA" d="M218.534,147.911c-0.046-5.57-0.092-11.14-0.14-16.711c0.034-0.825,0.093-1.65,0.102-2.475
		c0.098-10.03,2.97-11.911,13.048-8.537c-12.217-0.334-12.111-0.332-12.376,11.96C219.055,137.4,220.021,142.711,218.534,147.911z"
		/>
	<path fill="#47ACCA" d="M368.517,147.968c-0.053-5.547-0.106-11.093-0.16-16.639c0.085-6.377,0.172-12.754,0.259-19.132
		C369.558,124.123,369.874,136.047,368.517,147.968z"/>
	<path fill="#60D5EE" d="M625.439,91.43c2.893,2.18,5.859,7.206,7.023,11.9C628.441,100.355,626.03,96.43,625.439,91.43z"/>
	<path fill="#49ADCB" d="M395.485,131.206c0.023,5.571,0.047,11.142,0.07,16.713C394.379,142.353,394.503,136.781,395.485,131.206z"
		/>
	<path fill="#FEFEFE" d="M46.182,82.43c9.097,8.521,11.47,18.762,7.591,30.472c-3.003,9.068-9.777,13.916-19.56,14.216
		c-3.162,0.097-6.329,0.052-9.493,0.071c-0.934-15.043-0.162-30.102-0.425-45.15c-0.039-2.261,1.137-2.721,3.095-2.778
		C33.877,79.07,40.306,79.067,46.182,82.43z"/>
	<path fill="#FEFEFE" d="M1112.455,83.395c4.352,4.109,6.643,9.316,8.009,15.018c0.759,10.737-1.722,20.123-11.1,26.636
		c-1.538,2.567-4.311,2.794-6.786,3.594c-7.261,1.467-13.94,0.859-19.026-5.375c-9.496-9.213-9.937-20.205-6.289-32.002
		c2.182-4.194,5.185-7.648,9.196-10.193C1095.579,76.761,1104.253,77.434,1112.455,83.395z"/>
	<path fill="#74B1C7" d="M1107.575,147.331c0.378-5.29-3.934-8.559-5.639-12.958c-0.399-1.03-1.417-1.825-1.39-3.086
		c2.665-2.052,5.332-1.846,8-0.005c0.024,1.338,0.048,2.676,0.073,4.013C1108.022,139.285,1109.476,143.454,1107.575,147.331z"/>
	<path fill="#78B8D0" d="M1108.547,131.281c-2.667,0.002-5.333,0.004-8,0.005c0,0-0.029-0.03-0.029-0.03
		c-1.349-2.32,0.641-2.866,1.993-3.752c2.285-0.819,4.569-1.637,6.854-2.456C1109.9,127.232,1108.942,129.22,1108.547,131.281z"/>
	<path fill="#5AD4EE" d="M770.911,77.865c1.601-3.41,2.538-6.542,5.341-8.762C776.985,78.407,776.985,78.407,770.911,77.865z"/>
	<path fill="#FEFEFE" d="M218.434,98.287c0.056-5.282,0.287-10.571,0.103-15.844c-0.11-3.154,0.732-4.557,4.101-4.215
		c2.279,0.231,4.612-0.063,6.921-0.122c1.319,0.059,2.643,0.218,3.957,0.16c4.311-0.19,7.981,1.03,9.894,5.141
		c2.084,4.48,1.805,9.011-0.854,13.252c-1.086,1.731-2.688,3.148-4.684,3.441c-5.912,0.868-11.88,0.394-17.826,0.314
		C218.741,100.396,218.674,99.226,218.434,98.287z"/>
	<path fill="#49ADCB" d="M395.679,58.478c8.281-0.027,16.562-0.053,24.843-0.079c-3.241,8.781-9.088,16.138-13.341,24.374
		c-3.266,6.323-7.136,12.334-11.502,19.787C395.679,86.974,395.679,72.726,395.679,58.478z"/>
	<path fill="#FEFEFE" d="M916.642,124.278c0.046-12.321,0.104-24.642,0.135-36.963c0.021-8.038,0.015-7.776,7.825-8.104
		c8.295-0.348,14.975,2.297,19.958,9.002c5.243,10.403,5.824,20.73-0.897,30.721c-4.34,6.451-18.098,10.693-25.266,8.103
		C917.036,126.543,916.893,125.408,916.642,124.278z"/>
	<path fill="#FDFEFE" d="M124.478,117.281c3.129-7.318,5.961-13.943,9.243-21.62c3.048,7.11,5.595,13.155,8.237,19.158
		c1.039,2.361-0.306,2.473-2.025,2.467C135.117,117.27,130.301,117.281,124.478,117.281z"/>
	<path fill="#FEFEFE" d="M530.444,83.326c4.419,4.091,6.378,9.497,8.042,15.06c0.301,7.071-0.201,13.95-4.415,20.041
		c-5.282,7.635-14.838,11.139-24.135,8.783c-8.741-2.216-15.589-10.202-16.423-19.244c-0.856-9.278,0.057-18.119,7.857-24.519
		C509.819,76.512,519.342,76.614,530.444,83.326z"/>
	<g>
		<path fill="#82CDE2" d="M1102.511,127.505c-0.698,1.233-2.1,2.092-1.993,3.752c-0.324,0.011-0.647,0.021-0.971,0.032
			c-4.248-0.003-8.498-0.081-12.743,0.021c-2.235,0.054-3.44-0.689-3.281-3.056c0.01-1.662,0.02-3.324,0.03-4.986
			C1089.371,126.921,1095.497,129.198,1102.511,127.505z"/>
	</g>
</g>
<g id="&#x421;&#x43B;&#x43E;&#x439;_2">
</g>
<g id="&#x421;&#x43B;&#x43E;&#x439;_3">
</g>
</svg>
